<svg width="160" height="160" viewBox="0 0 160 160" fill="none" xmlns="http://www.w3.org/2000/svg">
<circle cx="80" cy="80" r="80" fill="#FFFCE2"/>
<circle cx="80" cy="80" r="77" fill="#161A4A"/>
<path d="M139.5 80C139.5 110.059 112.903 134.5 80 134.5C47.0972 134.5 20.5 110.059 20.5 80C20.5 49.9405 47.0972 25.5 80 25.5C112.903 25.5 139.5 49.9405 139.5 80Z" fill="#C08552" stroke="black"/>
<path d="M117.5 80C117.5 87.5355 113.356 94.3989 106.573 99.3965C99.7912 104.394 90.3977 107.5 80 107.5C69.6023 107.5 60.2088 104.394 53.4265 99.3965C46.6441 94.3989 42.5 87.5355 42.5 80C42.5 72.4645 46.6441 65.6011 53.4265 60.6035C60.2088 55.6061 69.6023 52.5 80 52.5C90.3977 52.5 99.7912 55.6061 106.573 60.6035C113.356 65.6011 117.5 72.4645 117.5 80Z" fill="#161A4A" stroke="black"/>
<rect x="83" y="46" width="19" height="65" fill="#C08552"/>
<rect x="77" y="18" width="6" height="123" fill="#161A4A"/>
<line x1="102.5" y1="58" x2="102.5" y2="102" stroke="black"/>
<line x1="83.5" y1="26" x2="83.5" y2="134" stroke="black"/>
<line x1="83.5" y1="26" x2="83.5" y2="134" stroke="black"/>
<line x1="76.5" y1="107" x2="76.5" y2="134" stroke="black"/>
<line x1="76.5" y1="107" x2="76.5" y2="134" stroke="black"/>
<line x1="76.5" y1="26" x2="76.5" y2="53" stroke="black"/>
</svg>
