<svg width="240" height="240" viewBox="0 0 240 240" fill="none" xmlns="http://www.w3.org/2000/svg">
<path d="M40 0L0 40V1.92711e-05L40 0Z" fill="#FFFEF3"/>
<path d="M0 40L40 0V40L0 40Z" fill="#FFFEF3"/>
<path d="M0 40L40 80H1.91221e-05L0 40Z" fill="#FFFEF3"/>
<path d="M80 40L40 0L80 1.49012e-07L80 40Z" fill="#FFFEF3"/>
<path d="M80 40L40 80V40L80 40Z" fill="#FFFEF3"/>
<path d="M40 80L80 40V80L40 80Z" fill="#D4D7EA"/>
<path d="M40 80L0 40L40 40V80Z" fill="#EBEEF8"/>
<path d="M40 0L80 40L40 40V0Z" fill="#EBEEF8"/>
<path d="M120 80L80 120V80L120 80Z" fill="#D4D7EA"/>
<path d="M40 80L80 120H40L40 80Z" fill="#FCF1CD"/>
<path d="M40 120L1.91221e-05 80H40L40 120Z" fill="#FCF1CD"/>
<path d="M1.91221e-05 80L40 120H1.91221e-05V80Z" fill="#FFFEF3"/>
<path d="M120 80L80 40H120L120 80Z" fill="#FCF1CD"/>
<path d="M80 1.49012e-07L120 40H80L80 1.49012e-07Z" fill="#FCF1CD"/>
<path d="M120 40L80 1.49012e-07H120V40Z" fill="#FFFEF3"/>
<path d="M80 120L40 80L80 80V120Z" fill="#FFFEF3"/>
<path d="M80 40L120 80L80 80V40Z" fill="#FFFEF3"/>
<path d="M0 200L40 240H1.92711e-05L0 200Z" fill="#FFFEF3"/>
<path d="M40 240L0 200H40L40 240Z" fill="#FFFEF3"/>
<path d="M40 240L80 200V240L40 240Z" fill="#FFFEF3"/>
<path d="M40 160L0 200L1.49012e-07 160L40 160Z" fill="#FFFEF3"/>
<path d="M40 160L80 200H40L40 160Z" fill="#FFFEF3"/>
<path d="M80 200L40 160H80L80 200Z" fill="#D4D7EA"/>
<path d="M80 200L40 240L40 200H80Z" fill="#EBEEF8"/>
<path d="M0 200L40 160L40 200H0Z" fill="#EBEEF8"/>
<path d="M80 120L120 160H80L80 120Z" fill="#D4D7EA"/>
<path d="M80 200L120 160V200L80 200Z" fill="#FCF1CD"/>
<path d="M120 200L80 240V200L120 200Z" fill="#FCF1CD"/>
<path d="M80 240L120 200V240H80Z" fill="#FFFEF3"/>
<path d="M80 120L40 160L40 120H80Z" fill="#FCF1CD"/>
<path d="M1.49012e-07 160L40 120L40 160L1.49012e-07 160Z" fill="#FCF1CD"/>
<path d="M40 120L1.49012e-07 160L1.91221e-05 120H40Z" fill="#FFFEF3"/>
<path d="M120 160L80 200L80 160H120Z" fill="#FFFEF3"/>
<path d="M40 160L80 120L80 160H40Z" fill="#FFFEF3"/>
<path d="M200 240L240 200V240L200 240Z" fill="#FFFEF3"/>
<path d="M240 200L200 240V200L240 200Z" fill="#FFFEF3"/>
<path d="M240 200L200 160H240L240 200Z" fill="#FFFEF3"/>
<path d="M160 200L200 240H160L160 200Z" fill="#FFFEF3"/>
<path d="M160 200L200 160V200L160 200Z" fill="#FFFEF3"/>
<path d="M200 160L160 200V160L200 160Z" fill="#D4D7EA"/>
<path d="M200 160L240 200L200 200V160Z" fill="#EBEEF8"/>
<path d="M200 240L160 200L200 200V240Z" fill="#EBEEF8"/>
<path d="M120 160L160 120V160L120 160Z" fill="#D4D7EA"/>
<path d="M200 160L160 120H200L200 160Z" fill="#FCF1CD"/>
<path d="M200 120L240 160H200L200 120Z" fill="#FCF1CD"/>
<path d="M240 160L200 120H240V160Z" fill="#FFFEF3"/>
<path d="M120 160L160 200L120 200V160Z" fill="#FCF1CD"/>
<path d="M160 240L120 200L160 200L160 240Z" fill="#FCF1CD"/>
<path d="M120 200L160 240L120 240V200Z" fill="#FFFEF3"/>
<path d="M160 120L200 160L160 160V120Z" fill="#FFFEF3"/>
<path d="M160 200L120 160L160 160V200Z" fill="#FFFEF3"/>
<path d="M240 40L200 0H240L240 40Z" fill="#FFFEF3"/>
<path d="M200 0L240 40H200L200 0Z" fill="#FFFEF3"/>
<path d="M200 0L160 40V1.91221e-05L200 0Z" fill="#FFFEF3"/>
<path d="M200 80L240 40V80L200 80Z" fill="#FFFEF3"/>
<path d="M200 80L160 40H200L200 80Z" fill="#FFFEF3"/>
<path d="M160 40L200 80H160L160 40Z" fill="#D4D7EA"/>
<path d="M160 40L200 0L200 40H160Z" fill="#EBEEF8"/>
<path d="M240 40L200 80L200 40H240Z" fill="#EBEEF8"/>
<path d="M160 120L120 80H160L160 120Z" fill="#D4D7EA"/>
<path d="M160 40L120 80L120 40H160Z" fill="#FCF1CD"/>
<path d="M120 40L160 1.91221e-05V40H120Z" fill="#FCF1CD"/>
<path d="M160 1.91221e-05L120 40V1.49012e-07L160 1.91221e-05Z" fill="#FFFEF3"/>
<path d="M160 120L200 80L200 120H160Z" fill="#FCF1CD"/>
<path d="M240 80L200 120L200 80L240 80Z" fill="#FCF1CD"/>
<path d="M200 120L240 80L240 120H200Z" fill="#FFFEF3"/>
<path d="M120 80L160 40L160 80H120Z" fill="#FFFEF3"/>
<path d="M200 80L160 120L160 80H200Z" fill="#FFFEF3"/>
<path d="M120 160L80 120H120L120 160Z" fill="#EBEEF8"/>
<path d="M120 80L160 120H120L120 80Z" fill="#EBEEF8"/>
<path d="M80 120L120 80L120 120H80Z" fill="#FFFEF3"/>
<path d="M160 120L120 160L120 120H160Z" fill="#FFFEF3"/>
</svg>
