<svg width="128" height="128" viewBox="0 0 128 128" fill="none" xmlns="http://www.w3.org/2000/svg">
<circle cx="64" cy="64" r="64" fill="#FFFCE2"/>
<circle cx="64" cy="64" r="61.6" fill="#161A4A"/>
<path d="M111.5 64C111.5 87.9843 90.2754 107.5 64 107.5C37.7246 107.5 16.5 87.9843 16.5 64C16.5 40.0157 37.7246 20.5 64 20.5C90.2754 20.5 111.5 40.0157 111.5 64Z" fill="#C08552" stroke="black"/>
<path d="M93.9 64C93.9 69.9891 90.6065 75.4525 85.1994 79.4367C79.7926 83.4207 72.299 85.9 64 85.9C55.701 85.9 48.2074 83.4207 42.8006 79.4367C37.3935 75.4525 34.1 69.9891 34.1 64C34.1 58.0109 37.3935 52.5475 42.8006 48.5633C48.2074 44.5793 55.701 42.1 64 42.1C72.299 42.1 79.7926 44.5793 85.1994 48.5633C90.6065 52.5475 93.9 58.0109 93.9 64Z" fill="#161A4A" stroke="black"/>
<rect x="66.4" y="36.8" width="15.2" height="52" fill="#C08552"/>
<rect x="61.6" y="14.4" width="4.8" height="98.4" fill="#161A4A"/>
<line x1="82.1" y1="46.4" x2="82.1" y2="81.6" stroke="black"/>
<line x1="66.9" y1="20.8" x2="66.9" y2="107.2" stroke="black"/>
<line x1="66.9" y1="20.8" x2="66.9" y2="107.2" stroke="black"/>
<line x1="61.3" y1="85.6" x2="61.3" y2="107.2" stroke="black"/>
<line x1="61.3" y1="85.6" x2="61.3" y2="107.2" stroke="black"/>
<line x1="61.3" y1="20.8" x2="61.3" y2="42.4" stroke="black"/>
</svg>
