<svg width="1221" height="1046" viewBox="0 0 1221 1046" fill="none" xmlns="http://www.w3.org/2000/svg">
<rect width="430" height="932" transform="translate(43 114)" fill="white"/>
<rect x="43" y="114" width="66" height="932" fill="#161A4A"/>
<ellipse cx="76" cy="144" rx="25" ry="23" fill="#FFFCE2"/>
<ellipse cx="76" cy="144" rx="24.0625" ry="22.1375" fill="#161A4A"/>
<path d="M94.25 144C94.25 152.38 86.1624 159.312 76 159.312C65.8376 159.312 57.75 152.38 57.75 144C57.75 135.62 65.8376 128.688 76 128.688C86.1624 128.688 94.25 135.62 94.25 144Z" fill="#C08552" stroke="black"/>
<path d="M87.375 144C87.375 146.008 86.1748 147.883 84.1163 149.278C82.0606 150.672 79.1925 151.55 76 151.55C72.8075 151.55 69.9394 150.672 67.8837 149.278C65.8252 147.883 64.625 146.008 64.625 144C64.625 141.992 65.8252 140.117 67.8837 138.722C69.9394 137.328 72.8075 136.45 76 136.45C79.1925 136.45 82.0606 137.328 84.1163 138.722C86.1748 140.117 87.375 141.992 87.375 144Z" fill="#161A4A" stroke="black"/>
<rect x="76.9375" y="134.225" width="5.9375" height="18.6875" fill="#C08552"/>
<rect x="75.0625" y="126.175" width="1.875" height="35.3625" fill="#161A4A"/>
<line x1="83.375" y1="137.675" x2="83.375" y2="150.325" stroke="black"/>
<line x1="77.4375" y1="128.475" x2="77.4375" y2="159.525" stroke="black"/>
<line x1="77.4375" y1="128.475" x2="77.4375" y2="159.525" stroke="black"/>
<line x1="75.25" y1="151.762" x2="75.25" y2="159.525" stroke="black"/>
<line x1="75.25" y1="151.762" x2="75.25" y2="159.525" stroke="black"/>
<line x1="75.25" y1="128.475" x2="75.25" y2="136.238" stroke="black"/>
<path d="M76 201.75L85 193.5L76 185.25" stroke="#FFFCE2" stroke-width="2"/>
<path d="M67 201.75L76 193.5L67 185.25" stroke="#FFFCE2" stroke-width="2"/>
<path d="M58.0252 619.67C57.2185 619.67 56.5126 619.396 55.9076 618.849C55.3025 618.301 55 617.663 55 616.933V595.036C55 594.306 55.3025 593.667 55.9076 593.12C56.5126 592.573 57.2185 592.299 58.0252 592.299H67.1008V587.737C67.1008 587.038 67.4034 586.407 68.0084 585.844C68.6134 585.281 69.3193 585 70.1261 585H80.2101C81.0168 585 81.7227 585.281 82.3277 585.844C82.9328 586.407 83.2353 587.038 83.2353 587.737V592.299H92.3109C93.1176 592.299 93.8235 592.573 94.4286 593.12C95.0336 593.667 95.3361 594.306 95.3361 595.036V605.3C94.8655 604.966 94.3866 604.661 93.8992 604.388C93.4118 604.114 92.8824 603.856 92.3109 603.612V595.036H58.0252V616.933H74.8655C75 617.419 75.1681 617.891 75.3697 618.347C75.5714 618.803 75.8067 619.244 76.0756 619.67H58.0252ZM70.1261 592.299H80.2101V587.737H70.1261V592.299ZM87.2689 623C84.6134 623 82.3277 622.133 80.4118 620.4C78.4958 618.666 77.5378 616.598 77.5378 614.196C77.5378 611.793 78.4958 609.725 80.4118 607.992C82.3277 606.258 84.6134 605.391 87.2689 605.391C89.9244 605.391 92.2101 606.258 94.1261 607.992C96.042 609.725 97 611.793 97 614.196C97 616.598 96.042 618.666 94.1261 620.4C92.2101 622.133 89.9244 623 87.2689 623ZM88.1261 614.104V608.448H86.0084V614.642L91 618.803L92.3613 617.571L88.1261 614.104Z" fill="#FFFCE2"/>
<path d="M57.4955 556C56.5318 556 55.7083 555.685 55.025 555.056C54.3417 554.427 54 553.671 54 552.788C54 551.904 54.3415 551.149 55.0245 550.523C55.7078 549.897 56.5292 549.583 57.4885 549.583C57.6628 549.583 57.8333 549.591 58 549.606C58.1667 549.622 58.3833 549.66 58.65 549.721L68.65 540.554C68.5833 540.31 68.5417 540.111 68.525 539.958C68.5083 539.806 68.5 539.649 68.5 539.489C68.5 538.61 68.8432 537.857 69.5295 537.231C70.2158 536.605 71.0408 536.292 72.0045 536.292C72.9682 536.292 73.7917 536.607 74.475 537.237C75.1583 537.868 75.5 538.626 75.5 539.511C75.5 539.565 75.45 539.913 75.35 540.554L80.85 545.596C81.1167 545.535 81.3333 545.497 81.5 545.481C81.6667 545.466 81.8333 545.458 82 545.458C82.1667 545.458 82.3333 545.466 82.5 545.481C82.6667 545.497 82.8833 545.535 83.15 545.596L91.15 538.263C91.0833 538.018 91.0417 537.819 91.025 537.667C91.0083 537.514 91 537.358 91 537.198C91 536.318 91.3432 535.566 92.0295 534.939C92.7158 534.313 93.5408 534 94.5045 534C95.4682 534 96.2917 534.315 96.975 534.944C97.6583 535.573 98 536.329 98 537.212C98 538.096 97.6585 538.851 96.9755 539.477C96.2922 540.103 95.4708 540.417 94.5115 540.417C94.3372 540.417 94.1667 540.409 94 540.394C93.8333 540.378 93.6167 540.34 93.35 540.279L85.35 547.613C85.4167 547.857 85.4583 548.056 85.475 548.208C85.4917 548.361 85.5 548.517 85.5 548.677C85.5 549.557 85.1568 550.309 84.4705 550.936C83.7842 551.562 82.9592 551.875 81.9955 551.875C81.0318 551.875 80.2083 551.562 79.525 550.936C78.8417 550.309 78.5 549.557 78.5 548.677C78.5 548.517 78.5083 548.361 78.525 548.208C78.5417 548.056 78.5833 547.857 78.65 547.613L73.15 542.571C72.8833 542.632 72.6667 542.67 72.5 542.685C72.3333 542.701 72.1625 542.708 71.9875 542.708C71.9292 542.708 71.55 542.663 70.85 542.571L60.85 551.738C60.9167 551.982 60.9583 552.181 60.975 552.333C60.9917 552.486 61 552.642 61 552.802C61 553.682 60.6568 554.434 59.9705 555.061C59.2842 555.687 58.4592 556 57.4955 556Z" fill="#FFFCE2"/>
<path d="M75.95 505L61.45 497.713V486.713L54 483L75.95 472L98 483V497.529H95V484.604L90.45 486.713V497.713L75.95 505ZM75.95 490.883L91.7 483L75.95 475.254L60.3 483L75.95 490.883ZM75.95 501.883L87.45 496.063V488.363L75.95 494L64.45 488.271V496.063L75.95 501.883Z" fill="#FFFCE2"/>
<path d="M90.55 687.065C89.8693 687.065 89.2908 686.851 88.8145 686.422C88.3382 685.993 88.1 685.473 88.1 684.86C88.1 684.247 88.3382 683.727 88.8145 683.298C89.2908 682.869 89.8693 682.655 90.55 682.655C91.2307 682.655 91.8092 682.869 92.2855 683.298C92.7618 683.727 93 684.247 93 684.86C93 685.473 92.7618 685.993 92.2855 686.422C91.8092 686.851 91.2307 687.065 90.55 687.065ZM70.8 689C67.5667 689 64.7917 688.715 62.475 688.145C60.1583 687.575 59 686.83 59 685.911C59 685.27 59.6667 684.673 61 684.118C62.3333 683.563 63.9 683.15 65.7 682.88V686.3H69.3V653L83.9 659.39L72.3 664.88V682.679C75.3 682.843 77.7667 683.225 79.7 683.825C81.6333 684.425 82.6 685.115 82.6 685.895C82.6 686.825 81.4417 687.575 79.125 688.145C76.8083 688.715 74.0333 689 70.8 689Z" fill="#FFFCE2"/>
<rect width="430" height="932" transform="translate(791 114)" fill="white"/>
<rect x="791" y="114" width="280" height="932" fill="#161A4A"/>
<ellipse cx="824" cy="144" rx="25" ry="23" fill="#FFFCE2"/>
<ellipse cx="824" cy="144" rx="24.0625" ry="22.1375" fill="#161A4A"/>
<path d="M842.25 144C842.25 152.38 834.162 159.312 824 159.312C813.838 159.312 805.75 152.38 805.75 144C805.75 135.62 813.838 128.688 824 128.688C834.162 128.688 842.25 135.62 842.25 144Z" fill="#C08552" stroke="black"/>
<path d="M835.375 144C835.375 146.008 834.175 147.883 832.116 149.278C830.061 150.672 827.193 151.55 824 151.55C820.807 151.55 817.939 150.672 815.884 149.278C813.825 147.883 812.625 146.008 812.625 144C812.625 141.992 813.825 140.117 815.884 138.722C817.939 137.328 820.807 136.45 824 136.45C827.193 136.45 830.061 137.328 832.116 138.722C834.175 140.117 835.375 141.992 835.375 144Z" fill="#161A4A" stroke="black"/>
<rect x="824.938" y="134.225" width="5.9375" height="18.6875" fill="#C08552"/>
<rect x="823.062" y="126.175" width="1.875" height="35.3625" fill="#161A4A"/>
<line x1="831.375" y1="137.675" x2="831.375" y2="150.325" stroke="black"/>
<line x1="825.438" y1="128.475" x2="825.438" y2="159.525" stroke="black"/>
<line x1="825.438" y1="128.475" x2="825.438" y2="159.525" stroke="black"/>
<line x1="823.25" y1="151.762" x2="823.25" y2="159.525" stroke="black"/>
<line x1="823.25" y1="151.762" x2="823.25" y2="159.525" stroke="black"/>
<line x1="823.25" y1="128.475" x2="823.25" y2="136.238" stroke="black"/>
<path d="M1039 152L1030 144L1039 136" stroke="#FFFCE2" stroke-width="2"/>
<path d="M1048 152L1039 144L1048 136" stroke="#FFFCE2" stroke-width="2"/>
<path d="M868.761 153V138.455H870.523V144.932H878.278V138.455H880.04V153H878.278V146.494H870.523V153H868.761ZM887.771 153.227C886.786 153.227 885.922 152.993 885.178 152.524C884.44 152.055 883.862 151.4 883.445 150.557C883.033 149.714 882.827 148.729 882.827 147.602C882.827 146.466 883.033 145.474 883.445 144.626C883.862 143.779 884.44 143.121 885.178 142.652C885.922 142.183 886.786 141.949 887.771 141.949C888.755 141.949 889.617 142.183 890.356 142.652C891.099 143.121 891.677 143.779 892.089 144.626C892.505 145.474 892.714 146.466 892.714 147.602C892.714 148.729 892.505 149.714 892.089 150.557C891.677 151.4 891.099 152.055 890.356 152.524C889.617 152.993 888.755 153.227 887.771 153.227ZM887.771 151.722C888.519 151.722 889.134 151.53 889.617 151.146C890.1 150.763 890.458 150.259 890.69 149.634C890.922 149.009 891.038 148.331 891.038 147.602C891.038 146.873 890.922 146.194 890.69 145.564C890.458 144.934 890.1 144.425 889.617 144.037C889.134 143.649 888.519 143.455 887.771 143.455C887.022 143.455 886.407 143.649 885.924 144.037C885.441 144.425 885.084 144.934 884.852 145.564C884.62 146.194 884.504 146.873 884.504 147.602C884.504 148.331 884.62 149.009 884.852 149.634C885.084 150.259 885.441 150.763 885.924 151.146C886.407 151.53 887.022 151.722 887.771 151.722ZM895.272 153V142.091H896.892V143.795H897.034C897.261 143.213 897.628 142.761 898.135 142.439C898.641 142.112 899.25 141.949 899.96 141.949C900.68 141.949 901.279 142.112 901.757 142.439C902.24 142.761 902.616 143.213 902.886 143.795H903C903.279 143.232 903.698 142.785 904.257 142.453C904.815 142.117 905.485 141.949 906.267 141.949C907.242 141.949 908.04 142.254 908.66 142.865C909.28 143.471 909.591 144.416 909.591 145.699V153H907.914V145.699C907.914 144.894 907.694 144.319 907.254 143.973C906.814 143.627 906.295 143.455 905.699 143.455C904.931 143.455 904.337 143.687 903.916 144.151C903.494 144.61 903.284 145.192 903.284 145.898V153H901.579V145.528C901.579 144.908 901.378 144.409 900.975 144.03C900.573 143.646 900.055 143.455 899.42 143.455C898.984 143.455 898.577 143.571 898.199 143.803C897.824 144.035 897.521 144.357 897.289 144.768C897.062 145.176 896.949 145.647 896.949 146.182V153H895.272ZM917.229 153.227C916.178 153.227 915.271 152.995 914.509 152.531C913.751 152.062 913.167 151.409 912.755 150.571C912.347 149.728 912.144 148.748 912.144 147.631C912.144 146.513 912.347 145.528 912.755 144.676C913.167 143.819 913.739 143.152 914.473 142.673C915.212 142.19 916.074 141.949 917.059 141.949C917.627 141.949 918.188 142.044 918.742 142.233C919.296 142.422 919.8 142.73 920.255 143.156C920.709 143.578 921.071 144.136 921.341 144.832C921.611 145.528 921.746 146.385 921.746 147.403V148.114H913.337V146.665H920.042C920.042 146.049 919.918 145.5 919.672 145.017C919.431 144.534 919.085 144.153 918.635 143.874C918.19 143.594 917.665 143.455 917.059 143.455C916.391 143.455 915.813 143.62 915.326 143.952C914.843 144.278 914.471 144.705 914.211 145.23C913.95 145.756 913.82 146.319 913.82 146.92V147.886C913.82 148.71 913.962 149.409 914.246 149.982C914.535 150.55 914.935 150.983 915.446 151.281C915.958 151.575 916.552 151.722 917.229 151.722C917.669 151.722 918.067 151.66 918.422 151.537C918.782 151.409 919.092 151.22 919.353 150.969C919.613 150.713 919.814 150.396 919.956 150.017L921.576 150.472C921.405 151.021 921.119 151.504 920.716 151.92C920.314 152.332 919.817 152.654 919.225 152.886C918.633 153.114 917.968 153.227 917.229 153.227Z" fill="white"/>
<path d="M807.025 618.758C806.218 618.758 805.513 618.491 804.908 617.958C804.303 617.425 804 616.803 804 616.092V594.772C804 594.061 804.303 593.439 804.908 592.906C805.513 592.373 806.218 592.107 807.025 592.107H816.101V587.665C816.101 586.984 816.403 586.37 817.008 585.822C817.613 585.274 818.319 585 819.126 585H829.21C830.017 585 830.723 585.274 831.328 585.822C831.933 586.37 832.235 586.984 832.235 587.665V592.107H841.311C842.118 592.107 842.824 592.373 843.429 592.906C844.034 593.439 844.336 594.061 844.336 594.772V604.766C843.866 604.44 843.387 604.144 842.899 603.878C842.412 603.611 841.882 603.359 841.311 603.122V594.772H807.025V616.092H823.866C824 616.566 824.168 617.025 824.37 617.469C824.571 617.914 824.807 618.343 825.076 618.758H807.025ZM819.126 592.107H829.21V587.665H819.126V592.107ZM836.269 622C833.613 622 831.328 621.156 829.412 619.468C827.496 617.78 826.538 615.767 826.538 613.427C826.538 611.088 827.496 609.074 829.412 607.387C831.328 605.699 833.613 604.855 836.269 604.855C838.924 604.855 841.21 605.699 843.126 607.387C845.042 609.074 846 611.088 846 613.427C846 615.767 845.042 617.78 843.126 619.468C841.21 621.156 838.924 622 836.269 622ZM837.126 613.339V607.831H835.008V613.862L840 617.914L841.361 616.714L837.126 613.339Z" fill="#FFFCE2"/>
<path d="M806.496 555C805.532 555 804.708 554.7 804.025 554.099C803.342 553.499 803 552.777 803 551.934C803 551.09 803.342 550.37 804.025 549.772C804.708 549.174 805.529 548.875 806.488 548.875C806.663 548.875 806.833 548.882 807 548.897C807.167 548.911 807.383 548.948 807.65 549.006L817.65 540.256C817.583 540.023 817.542 539.833 817.525 539.687C817.508 539.542 817.5 539.392 817.5 539.24C817.5 538.401 817.843 537.682 818.53 537.084C819.216 536.486 820.041 536.187 821.005 536.187C821.968 536.187 822.792 536.488 823.475 537.09C824.158 537.692 824.5 538.416 824.5 539.26C824.5 539.312 824.45 539.644 824.35 540.256L829.85 545.069C830.117 545.01 830.333 544.974 830.5 544.959C830.667 544.945 830.833 544.937 831 544.937C831.167 544.937 831.333 544.945 831.5 544.959C831.667 544.974 831.883 545.01 832.15 545.069L840.15 538.069C840.083 537.835 840.042 537.646 840.025 537.5C840.008 537.354 840 537.205 840 537.052C840 536.213 840.343 535.494 841.03 534.896C841.716 534.299 842.541 534 843.505 534C844.468 534 845.292 534.3 845.975 534.901C846.658 535.501 847 536.223 847 537.066C847 537.91 846.659 538.63 845.976 539.228C845.292 539.826 844.471 540.125 843.511 540.125C843.337 540.125 843.167 540.118 843 540.103C842.833 540.089 842.617 540.052 842.35 539.994L834.35 546.994C834.417 547.227 834.458 547.417 834.475 547.562C834.492 547.708 834.5 547.858 834.5 548.01C834.5 548.849 834.157 549.568 833.47 550.166C832.784 550.764 831.959 551.062 830.995 551.062C830.032 551.062 829.208 550.764 828.525 550.166C827.842 549.568 827.5 548.849 827.5 548.01C827.5 547.858 827.508 547.708 827.525 547.562C827.542 547.417 827.583 547.227 827.65 546.994L822.15 542.181C821.883 542.24 821.667 542.276 821.5 542.291C821.333 542.305 821.163 542.312 820.988 542.312C820.929 542.312 820.55 542.269 819.85 542.181L809.85 550.931C809.917 551.165 809.958 551.354 809.975 551.5C809.992 551.646 810 551.795 810 551.948C810 552.787 809.657 553.506 808.971 554.104C808.284 554.701 807.459 555 806.496 555Z" fill="#FFFCE2"/>
<path d="M824.95 504L810.45 496.933V486.267L803 482.667L824.95 472L847 482.667V496.756H844V484.222L839.45 486.267V496.933L824.95 504ZM824.95 490.311L840.7 482.667L824.95 475.156L809.3 482.667L824.95 490.311ZM824.95 500.978L836.45 495.333V487.867L824.95 493.333L813.45 487.778V495.333L824.95 500.978Z" fill="#FFFCE2"/>
<path d="M839.55 686.065C838.869 686.065 838.291 685.851 837.814 685.422C837.338 684.993 837.1 684.473 837.1 683.86C837.1 683.247 837.338 682.727 837.814 682.298C838.291 681.869 838.869 681.655 839.55 681.655C840.231 681.655 840.809 681.869 841.286 682.298C841.762 682.727 842 683.247 842 683.86C842 684.473 841.762 684.993 841.286 685.422C840.809 685.851 840.231 686.065 839.55 686.065ZM819.8 688C816.567 688 813.792 687.715 811.475 687.145C809.158 686.575 808 685.83 808 684.911C808 684.27 808.667 683.673 810 683.118C811.333 682.563 812.9 682.15 814.7 681.88V685.3H818.3V652L832.9 658.39L821.3 663.88V681.679C824.3 681.843 826.767 682.225 828.7 682.825C830.633 683.425 831.6 684.115 831.6 684.895C831.6 685.825 830.442 686.575 828.125 687.145C825.808 687.715 823.033 688 819.8 688Z" fill="#FFFCE2"/>
<path d="M868.761 497V482.455H877.54V484.017H870.523V488.932H877.085V490.494H870.523V495.438H877.653V497H868.761ZM884.607 497.227C883.697 497.227 882.895 496.998 882.199 496.538C881.503 496.074 880.958 495.421 880.565 494.578C880.172 493.731 879.976 492.729 879.976 491.574C879.976 490.428 880.172 489.434 880.565 488.591C880.958 487.748 881.505 487.097 882.206 486.638C882.907 486.179 883.716 485.949 884.635 485.949C885.345 485.949 885.906 486.067 886.318 486.304C886.735 486.536 887.052 486.801 887.27 487.099C887.492 487.393 887.665 487.634 887.788 487.824H887.93V482.455H889.607V497H887.987V495.324H887.788C887.665 495.523 887.49 495.774 887.263 496.077C887.036 496.375 886.711 496.643 886.29 496.879C885.868 497.111 885.307 497.227 884.607 497.227ZM884.834 495.722C885.506 495.722 886.074 495.546 886.538 495.196C887.002 494.841 887.355 494.351 887.597 493.726C887.838 493.096 887.959 492.369 887.959 491.545C887.959 490.731 887.84 490.018 887.604 489.408C887.367 488.792 887.017 488.314 886.553 487.973C886.089 487.627 885.516 487.455 884.834 487.455C884.124 487.455 883.532 487.637 883.058 488.001C882.589 488.361 882.237 488.851 882 489.472C881.768 490.087 881.652 490.778 881.652 491.545C881.652 492.322 881.77 493.027 882.007 493.662C882.249 494.292 882.604 494.794 883.072 495.168C883.546 495.537 884.133 495.722 884.834 495.722ZM899.784 492.54V486.091H901.46V497H899.784V495.153H899.67C899.415 495.707 899.017 496.179 898.477 496.567C897.938 496.95 897.256 497.142 896.432 497.142C895.75 497.142 895.144 496.993 894.614 496.695C894.083 496.392 893.667 495.937 893.364 495.331C893.061 494.72 892.909 493.951 892.909 493.023V486.091H894.585V492.909C894.585 493.705 894.808 494.339 895.253 494.812C895.703 495.286 896.276 495.523 896.972 495.523C897.388 495.523 897.812 495.416 898.243 495.203C898.679 494.99 899.043 494.663 899.337 494.223C899.635 493.783 899.784 493.222 899.784 492.54ZM908.962 497.227C907.939 497.227 907.059 496.986 906.32 496.503C905.581 496.02 905.013 495.355 904.615 494.507C904.218 493.66 904.019 492.691 904.019 491.602C904.019 490.494 904.222 489.517 904.63 488.669C905.042 487.817 905.614 487.152 906.348 486.673C907.087 486.19 907.949 485.949 908.934 485.949C909.701 485.949 910.392 486.091 911.007 486.375C911.623 486.659 912.127 487.057 912.52 487.568C912.913 488.08 913.157 488.676 913.252 489.358H911.576C911.448 488.861 911.164 488.42 910.723 488.037C910.288 487.649 909.701 487.455 908.962 487.455C908.309 487.455 907.736 487.625 907.243 487.966C906.756 488.302 906.374 488.778 906.1 489.393C905.83 490.004 905.695 490.722 905.695 491.545C905.695 492.388 905.828 493.122 906.093 493.747C906.363 494.372 906.741 494.857 907.229 495.203C907.721 495.549 908.299 495.722 908.962 495.722C909.398 495.722 909.793 495.646 910.148 495.494C910.503 495.343 910.804 495.125 911.05 494.841C911.296 494.557 911.471 494.216 911.576 493.818H913.252C913.157 494.462 912.923 495.042 912.549 495.558C912.179 496.07 911.689 496.477 911.078 496.78C910.472 497.078 909.767 497.227 908.962 497.227ZM918.912 497.256C918.221 497.256 917.594 497.125 917.03 496.865C916.467 496.6 916.019 496.219 915.688 495.722C915.356 495.22 915.191 494.614 915.191 493.903C915.191 493.278 915.314 492.772 915.56 492.384C915.806 491.991 916.135 491.683 916.547 491.46C916.959 491.238 917.414 491.072 917.911 490.963C918.413 490.849 918.917 490.759 919.424 490.693C920.087 490.608 920.624 490.544 921.036 490.501C921.453 490.454 921.756 490.376 921.945 490.267C922.139 490.158 922.236 489.969 922.236 489.699V489.642C922.236 488.941 922.044 488.397 921.661 488.009C921.282 487.62 920.707 487.426 919.935 487.426C919.135 487.426 918.507 487.601 918.053 487.952C917.598 488.302 917.279 488.676 917.094 489.074L915.503 488.506C915.787 487.843 916.166 487.327 916.64 486.957C917.118 486.583 917.639 486.323 918.202 486.176C918.77 486.025 919.329 485.949 919.878 485.949C920.229 485.949 920.631 485.991 921.086 486.077C921.545 486.157 921.988 486.325 922.414 486.581C922.845 486.837 923.202 487.223 923.486 487.739C923.77 488.255 923.912 488.946 923.912 489.812V497H922.236V495.523H922.151C922.037 495.759 921.848 496.013 921.583 496.283C921.318 496.553 920.965 496.782 920.525 496.972C920.084 497.161 919.547 497.256 918.912 497.256ZM919.168 495.75C919.831 495.75 920.39 495.62 920.844 495.359C921.303 495.099 921.649 494.763 921.881 494.351C922.118 493.939 922.236 493.506 922.236 493.051V491.517C922.165 491.602 922.009 491.68 921.767 491.751C921.531 491.818 921.256 491.877 920.944 491.929C920.636 491.976 920.335 492.019 920.042 492.057C919.753 492.09 919.518 492.118 919.338 492.142C918.903 492.199 918.496 492.291 918.117 492.419C917.743 492.542 917.44 492.729 917.208 492.98C916.98 493.226 916.867 493.562 916.867 493.989C916.867 494.571 917.082 495.011 917.513 495.31C917.949 495.603 918.5 495.75 919.168 495.75ZM931.716 486.091V487.511H926.062V486.091H931.716ZM927.71 483.477H929.386V493.875C929.386 494.348 929.455 494.704 929.592 494.94C929.734 495.172 929.914 495.329 930.132 495.409C930.355 495.485 930.589 495.523 930.835 495.523C931.02 495.523 931.171 495.513 931.29 495.494C931.408 495.471 931.503 495.452 931.574 495.438L931.915 496.943C931.801 496.986 931.643 497.028 931.439 497.071C931.235 497.118 930.977 497.142 930.665 497.142C930.191 497.142 929.727 497.04 929.273 496.837C928.823 496.633 928.449 496.323 928.151 495.906C927.857 495.49 927.71 494.964 927.71 494.33V483.477ZM934.237 497V486.091H935.913V497H934.237ZM935.089 484.273C934.763 484.273 934.481 484.161 934.244 483.939C934.012 483.716 933.896 483.449 933.896 483.136C933.896 482.824 934.012 482.556 934.244 482.334C934.481 482.111 934.763 482 935.089 482C935.416 482 935.696 482.111 935.928 482.334C936.164 482.556 936.283 482.824 936.283 483.136C936.283 483.449 936.164 483.716 935.928 483.939C935.696 484.161 935.416 484.273 935.089 484.273ZM943.415 497.227C942.43 497.227 941.566 496.993 940.823 496.524C940.084 496.055 939.507 495.4 939.09 494.557C938.678 493.714 938.472 492.729 938.472 491.602C938.472 490.466 938.678 489.474 939.09 488.626C939.507 487.779 940.084 487.121 940.823 486.652C941.566 486.183 942.43 485.949 943.415 485.949C944.4 485.949 945.262 486.183 946 486.652C946.744 487.121 947.321 487.779 947.733 488.626C948.15 489.474 948.358 490.466 948.358 491.602C948.358 492.729 948.15 493.714 947.733 494.557C947.321 495.4 946.744 496.055 946 496.524C945.262 496.993 944.4 497.227 943.415 497.227ZM943.415 495.722C944.163 495.722 944.779 495.53 945.262 495.146C945.745 494.763 946.102 494.259 946.334 493.634C946.566 493.009 946.682 492.331 946.682 491.602C946.682 490.873 946.566 490.194 946.334 489.564C946.102 488.934 945.745 488.425 945.262 488.037C944.779 487.649 944.163 487.455 943.415 487.455C942.667 487.455 942.051 487.649 941.569 488.037C941.086 488.425 940.728 488.934 940.496 489.564C940.264 490.194 940.148 490.873 940.148 491.602C940.148 492.331 940.264 493.009 940.496 493.634C940.728 494.259 941.086 494.763 941.569 495.146C942.051 495.53 942.667 495.722 943.415 495.722ZM952.593 490.438V497H950.917V486.091H952.536V487.795H952.678C952.934 487.241 953.322 486.796 953.843 486.46C954.364 486.119 955.036 485.949 955.86 485.949C956.599 485.949 957.245 486.1 957.799 486.403C958.353 486.702 958.784 487.156 959.092 487.767C959.399 488.373 959.553 489.14 959.553 490.068V497H957.877V490.182C957.877 489.325 957.655 488.657 957.21 488.179C956.764 487.696 956.154 487.455 955.377 487.455C954.842 487.455 954.364 487.571 953.942 487.803C953.526 488.035 953.197 488.373 952.955 488.818C952.714 489.263 952.593 489.803 952.593 490.438ZM972.36 497.199C971.404 497.199 970.58 497.024 969.889 496.673C969.198 496.323 968.665 495.842 968.291 495.232C967.917 494.621 967.73 493.922 967.73 493.136C967.73 492.53 967.858 491.993 968.113 491.524C968.374 491.051 968.731 490.613 969.186 490.21C969.645 489.803 970.173 489.396 970.77 488.989L972.872 487.426C973.284 487.156 973.613 486.867 973.859 486.56C974.11 486.252 974.235 485.849 974.235 485.352C974.235 484.983 974.072 484.625 973.745 484.28C973.423 483.934 973 483.761 972.474 483.761C972.105 483.761 971.778 483.856 971.494 484.045C971.215 484.23 970.994 484.467 970.833 484.756C970.677 485.04 970.599 485.333 970.599 485.636C970.599 485.977 970.691 486.323 970.876 486.673C971.065 487.019 971.305 487.374 971.593 487.739C971.887 488.098 972.19 488.468 972.502 488.847L979.179 497H977.162L971.65 490.352C971.139 489.737 970.675 489.178 970.258 488.676C969.842 488.174 969.51 487.679 969.264 487.192C969.018 486.704 968.895 486.176 968.895 485.608C968.895 484.955 969.039 484.382 969.328 483.889C969.621 483.392 970.031 483.006 970.556 482.732C971.087 482.452 971.707 482.312 972.417 482.312C973.146 482.312 973.774 482.455 974.299 482.739C974.825 483.018 975.23 483.39 975.514 483.854C975.798 484.313 975.94 484.812 975.94 485.352C975.94 486.048 975.767 486.652 975.422 487.163C975.076 487.675 974.605 488.151 974.008 488.591L971.11 490.75C970.457 491.233 970.014 491.702 969.782 492.156C969.55 492.611 969.434 492.937 969.434 493.136C969.434 493.591 969.553 494.015 969.789 494.408C970.026 494.801 970.36 495.118 970.791 495.359C971.222 495.601 971.726 495.722 972.304 495.722C972.853 495.722 973.388 495.606 973.909 495.374C974.43 495.137 974.901 494.796 975.322 494.351C975.748 493.906 976.084 493.371 976.331 492.746C976.582 492.121 976.707 491.418 976.707 490.636H978.326C978.326 491.602 978.215 492.391 977.993 493.001C977.77 493.612 977.519 494.09 977.24 494.436C976.96 494.782 976.735 495.04 976.565 495.21C976.508 495.281 976.456 495.352 976.409 495.423C976.361 495.494 976.309 495.565 976.252 495.636C975.784 496.162 975.192 496.555 974.477 496.815C973.762 497.071 973.056 497.199 972.36 497.199ZM994.841 486.091C994.756 485.371 994.41 484.812 993.804 484.415C993.198 484.017 992.455 483.818 991.574 483.818C990.93 483.818 990.366 483.922 989.884 484.131C989.405 484.339 989.031 484.625 988.761 484.99C988.496 485.355 988.364 485.769 988.364 486.233C988.364 486.621 988.456 486.955 988.641 487.234C988.83 487.509 989.071 487.739 989.365 487.923C989.659 488.103 989.966 488.252 990.288 488.371C990.61 488.484 990.906 488.577 991.176 488.648L992.653 489.045C993.032 489.145 993.454 489.282 993.918 489.457C994.386 489.633 994.834 489.872 995.26 490.175C995.691 490.473 996.046 490.857 996.325 491.325C996.605 491.794 996.744 492.369 996.744 493.051C996.744 493.837 996.538 494.547 996.126 495.182C995.719 495.816 995.123 496.321 994.337 496.695C993.555 497.069 992.606 497.256 991.489 497.256C990.447 497.256 989.545 497.088 988.783 496.751C988.025 496.415 987.429 495.946 986.993 495.345C986.562 494.744 986.318 494.045 986.261 493.25H988.08C988.127 493.799 988.312 494.254 988.634 494.614C988.96 494.969 989.372 495.234 989.869 495.409C990.371 495.58 990.911 495.665 991.489 495.665C992.161 495.665 992.765 495.556 993.3 495.338C993.835 495.116 994.259 494.808 994.571 494.415C994.884 494.017 995.04 493.553 995.04 493.023C995.04 492.54 994.905 492.147 994.635 491.844C994.365 491.541 994.01 491.295 993.57 491.105C993.129 490.916 992.653 490.75 992.142 490.608L990.352 490.097C989.216 489.77 988.316 489.304 987.653 488.697C986.991 488.091 986.659 487.298 986.659 486.318C986.659 485.504 986.879 484.794 987.32 484.188C987.765 483.577 988.361 483.103 989.109 482.767C989.862 482.426 990.703 482.256 991.631 482.256C992.568 482.256 993.402 482.424 994.131 482.76C994.86 483.091 995.438 483.546 995.864 484.124C996.295 484.701 996.522 485.357 996.545 486.091H994.841ZM1000.98 493.023L1000.95 490.949H1001.29L1006.06 486.091H1008.13L1003.05 491.233H1002.91L1000.98 493.023ZM999.413 497V482.455H1001.09V497H999.413ZM1006.34 497L1002.08 491.602L1003.28 490.438L1008.48 497H1006.34ZM1010.29 497V486.091H1011.97V497H1010.29ZM1011.14 484.273C1010.82 484.273 1010.54 484.161 1010.3 483.939C1010.07 483.716 1009.95 483.449 1009.95 483.136C1009.95 482.824 1010.07 482.556 1010.3 482.334C1010.54 482.111 1010.82 482 1011.14 482C1011.47 482 1011.75 482.111 1011.98 482.334C1012.22 482.556 1012.34 482.824 1012.34 483.136C1012.34 483.449 1012.22 483.716 1011.98 483.939C1011.75 484.161 1011.47 484.273 1011.14 484.273ZM1016.71 482.455V497H1015.04V482.455H1016.71ZM1021.46 482.455V497H1019.78V482.455H1021.46ZM1032.26 488.534L1030.75 488.96C1030.66 488.709 1030.52 488.465 1030.33 488.229C1030.15 487.987 1029.91 487.788 1029.59 487.632C1029.28 487.476 1028.88 487.398 1028.39 487.398C1027.73 487.398 1027.17 487.552 1026.72 487.859C1026.28 488.162 1026.06 488.548 1026.06 489.017C1026.06 489.434 1026.22 489.763 1026.52 490.004C1026.82 490.246 1027.3 490.447 1027.94 490.608L1029.56 491.006C1030.53 491.242 1031.26 491.605 1031.74 492.092C1032.22 492.575 1032.46 493.198 1032.46 493.96C1032.46 494.585 1032.28 495.144 1031.92 495.636C1031.56 496.129 1031.06 496.517 1030.43 496.801C1029.79 497.085 1029.04 497.227 1028.19 497.227C1027.08 497.227 1026.16 496.986 1025.43 496.503C1024.7 496.02 1024.24 495.314 1024.05 494.386L1025.64 493.989C1025.79 494.576 1026.08 495.016 1026.5 495.31C1026.92 495.603 1027.48 495.75 1028.17 495.75C1028.95 495.75 1029.57 495.584 1030.03 495.253C1030.49 494.917 1030.72 494.514 1030.72 494.045C1030.72 493.667 1030.59 493.349 1030.33 493.094C1030.06 492.833 1029.65 492.639 1029.1 492.511L1027.29 492.085C1026.29 491.848 1025.55 491.482 1025.08 490.984C1024.62 490.482 1024.39 489.855 1024.39 489.102C1024.39 488.487 1024.56 487.942 1024.91 487.469C1025.26 486.995 1025.73 486.624 1026.33 486.354C1026.94 486.084 1027.63 485.949 1028.39 485.949C1029.47 485.949 1030.32 486.186 1030.94 486.659C1031.56 487.133 1032 487.758 1032.26 488.534Z" fill="white"/>
<path d="M867.966 540.017V538.455H878.875V540.017H874.301V553H872.54V540.017H867.966ZM881.366 553V542.091H883.042V553H881.366ZM882.218 540.273C881.892 540.273 881.61 540.161 881.373 539.939C881.141 539.716 881.025 539.449 881.025 539.136C881.025 538.824 881.141 538.556 881.373 538.334C881.61 538.111 881.892 538 882.218 538C882.545 538 882.824 538.111 883.056 538.334C883.293 538.556 883.412 538.824 883.412 539.136C883.412 539.449 883.293 539.716 883.056 539.939C882.824 540.161 882.545 540.273 882.218 540.273ZM886.112 553V542.091H887.732V543.795H887.874C888.101 543.213 888.468 542.761 888.974 542.439C889.481 542.112 890.089 541.949 890.8 541.949C891.519 541.949 892.118 542.112 892.597 542.439C893.08 542.761 893.456 543.213 893.726 543.795H893.839C894.119 543.232 894.538 542.785 895.097 542.453C895.655 542.117 896.325 541.949 897.107 541.949C898.082 541.949 898.88 542.254 899.5 542.865C900.12 543.471 900.43 544.416 900.43 545.699V553H898.754V545.699C898.754 544.894 898.534 544.319 898.094 543.973C897.653 543.627 897.135 543.455 896.538 543.455C895.771 543.455 895.177 543.687 894.756 544.151C894.334 544.61 894.124 545.192 894.124 545.898V553H892.419V545.528C892.419 544.908 892.218 544.409 891.815 544.03C891.413 543.646 890.894 543.455 890.26 543.455C889.824 543.455 889.417 543.571 889.038 543.803C888.664 544.035 888.361 544.357 888.129 544.768C887.902 545.176 887.788 545.647 887.788 546.182V553H886.112ZM908.069 553.227C907.018 553.227 906.111 552.995 905.349 552.531C904.591 552.062 904.006 551.409 903.594 550.571C903.187 549.728 902.984 548.748 902.984 547.631C902.984 546.513 903.187 545.528 903.594 544.676C904.006 543.819 904.579 543.152 905.313 542.673C906.052 542.19 906.914 541.949 907.898 541.949C908.467 541.949 909.028 542.044 909.582 542.233C910.136 542.422 910.64 542.73 911.094 543.156C911.549 543.578 911.911 544.136 912.181 544.832C912.451 545.528 912.586 546.385 912.586 547.403V548.114H904.177V546.665H910.881C910.881 546.049 910.758 545.5 910.512 545.017C910.271 544.534 909.925 544.153 909.475 543.874C909.03 543.594 908.504 543.455 907.898 543.455C907.231 543.455 906.653 543.62 906.165 543.952C905.683 544.278 905.311 544.705 905.05 545.23C904.79 545.756 904.66 546.319 904.66 546.92V547.886C904.66 548.71 904.802 549.409 905.086 549.982C905.375 550.55 905.775 550.983 906.286 551.281C906.798 551.575 907.392 551.722 908.069 551.722C908.509 551.722 908.907 551.66 909.262 551.537C909.622 551.409 909.932 551.22 910.192 550.969C910.453 550.713 910.654 550.396 910.796 550.017L912.415 550.472C912.245 551.021 911.959 551.504 911.556 551.92C911.154 552.332 910.656 552.654 910.065 552.886C909.473 553.114 908.808 553.227 908.069 553.227ZM916.812 538.455V553H915.136V538.455H916.812ZM919.882 553V542.091H921.558V553H919.882ZM920.734 540.273C920.407 540.273 920.126 540.161 919.889 539.939C919.657 539.716 919.541 539.449 919.541 539.136C919.541 538.824 919.657 538.556 919.889 538.334C920.126 538.111 920.407 538 920.734 538C921.061 538 921.34 538.111 921.572 538.334C921.809 538.556 921.927 538.824 921.927 539.136C921.927 539.449 921.809 539.716 921.572 539.939C921.34 540.161 921.061 540.273 920.734 540.273ZM926.304 546.438V553H924.628V542.091H926.247V543.795H926.389C926.645 543.241 927.033 542.796 927.554 542.46C928.075 542.119 928.747 541.949 929.571 541.949C930.31 541.949 930.956 542.1 931.51 542.403C932.064 542.702 932.495 543.156 932.803 543.767C933.11 544.373 933.264 545.14 933.264 546.068V553H931.588V546.182C931.588 545.325 931.366 544.657 930.92 544.179C930.475 543.696 929.865 543.455 929.088 543.455C928.553 543.455 928.075 543.571 927.653 543.803C927.237 544.035 926.908 544.373 926.666 544.818C926.425 545.263 926.304 545.803 926.304 546.438ZM940.901 553.227C939.85 553.227 938.943 552.995 938.181 552.531C937.423 552.062 936.838 551.409 936.426 550.571C936.019 549.728 935.816 548.748 935.816 547.631C935.816 546.513 936.019 545.528 936.426 544.676C936.838 543.819 937.411 543.152 938.145 542.673C938.884 542.19 939.746 541.949 940.73 541.949C941.299 541.949 941.86 542.044 942.414 542.233C942.968 542.422 943.472 542.73 943.926 543.156C944.381 543.578 944.743 544.136 945.013 544.832C945.283 545.528 945.418 546.385 945.418 547.403V548.114H937.009V546.665H943.713C943.713 546.049 943.59 545.5 943.344 545.017C943.103 544.534 942.757 544.153 942.307 543.874C941.862 543.594 941.337 543.455 940.73 543.455C940.063 543.455 939.485 543.62 938.998 543.952C938.515 544.278 938.143 544.705 937.882 545.23C937.622 545.756 937.492 546.319 937.492 546.92V547.886C937.492 548.71 937.634 549.409 937.918 549.982C938.207 550.55 938.607 550.983 939.118 551.281C939.63 551.575 940.224 551.722 940.901 551.722C941.341 551.722 941.739 551.66 942.094 551.537C942.454 551.409 942.764 551.22 943.025 550.969C943.285 550.713 943.486 550.396 943.628 550.017L945.248 550.472C945.077 551.021 944.791 551.504 944.388 551.92C943.986 552.332 943.489 552.654 942.897 552.886C942.305 553.114 941.64 553.227 940.901 553.227Z" fill="white"/>
<path d="M868.761 613V598.455H873.676C874.817 598.455 875.75 598.661 876.474 599.072C877.204 599.48 877.743 600.031 878.094 600.727C878.444 601.423 878.619 602.2 878.619 603.057C878.619 603.914 878.444 604.693 878.094 605.393C877.748 606.094 877.213 606.653 876.489 607.07C875.764 607.482 874.836 607.688 873.705 607.688H870.182V606.125H873.648C874.429 606.125 875.056 605.99 875.53 605.72C876.003 605.45 876.347 605.086 876.56 604.626C876.777 604.162 876.886 603.639 876.886 603.057C876.886 602.474 876.777 601.954 876.56 601.494C876.347 601.035 876.001 600.675 875.523 600.415C875.045 600.15 874.41 600.017 873.619 600.017H870.523V613H868.761ZM881.229 613V602.091H882.849V603.739H882.962C883.161 603.199 883.521 602.761 884.042 602.425C884.563 602.089 885.15 601.92 885.803 601.92C885.926 601.92 886.08 601.923 886.265 601.928C886.45 601.932 886.589 601.939 886.684 601.949V603.653C886.627 603.639 886.497 603.618 886.293 603.589C886.094 603.556 885.884 603.54 885.661 603.54C885.131 603.54 884.657 603.651 884.241 603.874C883.829 604.091 883.502 604.394 883.261 604.783C883.024 605.166 882.906 605.604 882.906 606.097V613H881.229ZM892.771 613.227C891.786 613.227 890.922 612.993 890.178 612.524C889.44 612.055 888.862 611.4 888.445 610.557C888.033 609.714 887.827 608.729 887.827 607.602C887.827 606.466 888.033 605.474 888.445 604.626C888.862 603.779 889.44 603.121 890.178 602.652C890.922 602.183 891.786 601.949 892.771 601.949C893.755 601.949 894.617 602.183 895.356 602.652C896.099 603.121 896.677 603.779 897.089 604.626C897.505 605.474 897.714 606.466 897.714 607.602C897.714 608.729 897.505 609.714 897.089 610.557C896.677 611.4 896.099 612.055 895.356 612.524C894.617 612.993 893.755 613.227 892.771 613.227ZM892.771 611.722C893.519 611.722 894.134 611.53 894.617 611.146C895.1 610.763 895.458 610.259 895.69 609.634C895.922 609.009 896.038 608.331 896.038 607.602C896.038 606.873 895.922 606.194 895.69 605.564C895.458 604.934 895.1 604.425 894.617 604.037C894.134 603.649 893.519 603.455 892.771 603.455C892.022 603.455 891.407 603.649 890.924 604.037C890.441 604.425 890.084 604.934 889.852 605.564C889.62 606.194 889.504 606.873 889.504 607.602C889.504 608.331 889.62 609.009 889.852 609.634C890.084 610.259 890.441 610.763 890.924 611.146C891.407 611.53 892.022 611.722 892.771 611.722ZM900.272 602.091H901.949V613.795C901.949 614.468 901.833 615.05 901.6 615.543C901.373 616.035 901.028 616.416 900.564 616.686C900.104 616.956 899.524 617.091 898.824 617.091C898.767 617.091 898.71 617.091 898.653 617.091C898.596 617.091 898.539 617.091 898.483 617.091V615.528C898.539 615.528 898.592 615.528 898.639 615.528C898.686 615.528 898.738 615.528 898.795 615.528C899.306 615.528 899.681 615.377 899.917 615.074C900.154 614.776 900.272 614.349 900.272 613.795V602.091ZM901.096 600.273C900.77 600.273 900.488 600.161 900.251 599.939C900.019 599.716 899.903 599.449 899.903 599.136C899.903 598.824 900.019 598.556 900.251 598.334C900.488 598.111 900.77 598 901.096 598C901.423 598 901.702 598.111 901.934 598.334C902.171 598.556 902.289 598.824 902.289 599.136C902.289 599.449 902.171 599.716 901.934 599.939C901.702 600.161 901.423 600.273 901.096 600.273ZM909.592 613.227C908.541 613.227 907.634 612.995 906.872 612.531C906.115 612.062 905.53 611.409 905.118 610.571C904.711 609.728 904.507 608.748 904.507 607.631C904.507 606.513 904.711 605.528 905.118 604.676C905.53 603.819 906.103 603.152 906.837 602.673C907.575 602.19 908.437 601.949 909.422 601.949C909.99 601.949 910.551 602.044 911.105 602.233C911.659 602.422 912.163 602.73 912.618 603.156C913.072 603.578 913.435 604.136 913.705 604.832C913.974 605.528 914.109 606.385 914.109 607.403V608.114H905.7V606.665H912.405C912.405 606.049 912.282 605.5 912.036 605.017C911.794 604.534 911.448 604.153 910.999 603.874C910.554 603.594 910.028 603.455 909.422 603.455C908.754 603.455 908.177 603.62 907.689 603.952C907.206 604.278 906.834 604.705 906.574 605.23C906.313 605.756 906.183 606.319 906.183 606.92V607.886C906.183 608.71 906.325 609.409 906.609 609.982C906.898 610.55 907.298 610.983 907.81 611.281C908.321 611.575 908.915 611.722 909.592 611.722C910.033 611.722 910.43 611.66 910.786 611.537C911.145 611.409 911.455 611.22 911.716 610.969C911.976 610.713 912.178 610.396 912.32 610.017L913.939 610.472C913.768 611.021 913.482 611.504 913.08 611.92C912.677 612.332 912.18 612.654 911.588 612.886C910.996 613.114 910.331 613.227 909.592 613.227ZM921.091 613.227C920.068 613.227 919.188 612.986 918.449 612.503C917.71 612.02 917.142 611.355 916.744 610.507C916.347 609.66 916.148 608.691 916.148 607.602C916.148 606.494 916.351 605.517 916.759 604.669C917.17 603.817 917.743 603.152 918.477 602.673C919.216 602.19 920.078 601.949 921.062 601.949C921.83 601.949 922.521 602.091 923.136 602.375C923.752 602.659 924.256 603.057 924.649 603.568C925.042 604.08 925.286 604.676 925.381 605.358H923.705C923.577 604.861 923.293 604.42 922.852 604.037C922.417 603.649 921.83 603.455 921.091 603.455C920.438 603.455 919.865 603.625 919.372 603.966C918.884 604.302 918.503 604.778 918.229 605.393C917.959 606.004 917.824 606.722 917.824 607.545C917.824 608.388 917.956 609.122 918.222 609.747C918.491 610.372 918.87 610.857 919.358 611.203C919.85 611.549 920.428 611.722 921.091 611.722C921.527 611.722 921.922 611.646 922.277 611.494C922.632 611.343 922.933 611.125 923.179 610.841C923.425 610.557 923.6 610.216 923.705 609.818H925.381C925.286 610.462 925.052 611.042 924.678 611.558C924.308 612.07 923.818 612.477 923.207 612.78C922.601 613.078 921.896 613.227 921.091 613.227ZM932.575 602.091V603.511H926.922V602.091H932.575ZM928.57 599.477H930.246V609.875C930.246 610.348 930.314 610.704 930.452 610.94C930.594 611.172 930.774 611.329 930.991 611.409C931.214 611.485 931.448 611.523 931.695 611.523C931.879 611.523 932.031 611.513 932.149 611.494C932.268 611.471 932.362 611.452 932.433 611.438L932.774 612.943C932.661 612.986 932.502 613.028 932.298 613.071C932.095 613.118 931.837 613.142 931.524 613.142C931.051 613.142 930.587 613.04 930.132 612.837C929.682 612.633 929.308 612.323 929.01 611.906C928.716 611.49 928.57 610.964 928.57 610.33V599.477ZM942.629 604.534L941.123 604.96C941.028 604.709 940.888 604.465 940.704 604.229C940.524 603.987 940.278 603.788 939.965 603.632C939.653 603.476 939.253 603.398 938.765 603.398C938.097 603.398 937.541 603.552 937.096 603.859C936.656 604.162 936.435 604.548 936.435 605.017C936.435 605.434 936.587 605.763 936.89 606.004C937.193 606.246 937.666 606.447 938.31 606.608L939.93 607.006C940.905 607.242 941.632 607.605 942.11 608.092C942.588 608.575 942.827 609.198 942.827 609.96C942.827 610.585 942.647 611.144 942.288 611.636C941.933 612.129 941.435 612.517 940.796 612.801C940.157 613.085 939.414 613.227 938.566 613.227C937.453 613.227 936.532 612.986 935.803 612.503C935.074 612.02 934.612 611.314 934.418 610.386L936.009 609.989C936.161 610.576 936.447 611.016 936.869 611.31C937.295 611.603 937.851 611.75 938.538 611.75C939.319 611.75 939.939 611.584 940.398 611.253C940.862 610.917 941.094 610.514 941.094 610.045C941.094 609.667 940.962 609.349 940.697 609.094C940.432 608.833 940.024 608.639 939.475 608.511L937.657 608.085C936.658 607.848 935.924 607.482 935.455 606.984C934.991 606.482 934.759 605.855 934.759 605.102C934.759 604.487 934.932 603.942 935.278 603.469C935.628 602.995 936.104 602.624 936.705 602.354C937.311 602.084 937.998 601.949 938.765 601.949C939.844 601.949 940.692 602.186 941.308 602.659C941.928 603.133 942.368 603.758 942.629 604.534Z" fill="white"/>
<path d="M868.761 679V664.455H870.523V670.932H878.278V664.455H880.04V679H878.278V672.494H870.523V679H868.761ZM887.771 679.227C886.786 679.227 885.922 678.993 885.178 678.524C884.44 678.055 883.862 677.4 883.445 676.557C883.033 675.714 882.827 674.729 882.827 673.602C882.827 672.466 883.033 671.474 883.445 670.626C883.862 669.779 884.44 669.121 885.178 668.652C885.922 668.183 886.786 667.949 887.771 667.949C888.755 667.949 889.617 668.183 890.356 668.652C891.099 669.121 891.677 669.779 892.089 670.626C892.505 671.474 892.714 672.466 892.714 673.602C892.714 674.729 892.505 675.714 892.089 676.557C891.677 677.4 891.099 678.055 890.356 678.524C889.617 678.993 888.755 679.227 887.771 679.227ZM887.771 677.722C888.519 677.722 889.134 677.53 889.617 677.146C890.1 676.763 890.458 676.259 890.69 675.634C890.922 675.009 891.038 674.331 891.038 673.602C891.038 672.873 890.922 672.194 890.69 671.564C890.458 670.934 890.1 670.425 889.617 670.037C889.134 669.649 888.519 669.455 887.771 669.455C887.022 669.455 886.407 669.649 885.924 670.037C885.441 670.425 885.084 670.934 884.852 671.564C884.62 672.194 884.504 672.873 884.504 673.602C884.504 674.331 884.62 675.009 884.852 675.634C885.084 676.259 885.441 676.763 885.924 677.146C886.407 677.53 887.022 677.722 887.771 677.722ZM895.5 679V664.455H897.176V669.824H897.318C897.441 669.634 897.611 669.393 897.829 669.099C898.052 668.801 898.369 668.536 898.781 668.304C899.198 668.067 899.761 667.949 900.471 667.949C901.39 667.949 902.199 668.179 902.9 668.638C903.601 669.097 904.148 669.748 904.541 670.591C904.934 671.434 905.13 672.428 905.13 673.574C905.13 674.729 904.934 675.731 904.541 676.578C904.148 677.421 903.603 678.074 902.907 678.538C902.211 678.998 901.409 679.227 900.5 679.227C899.799 679.227 899.238 679.111 898.816 678.879C898.395 678.643 898.071 678.375 897.843 678.077C897.616 677.774 897.441 677.523 897.318 677.324H897.119V679H895.5ZM897.147 673.545C897.147 674.369 897.268 675.096 897.51 675.726C897.751 676.351 898.104 676.841 898.568 677.196C899.032 677.546 899.6 677.722 900.272 677.722C900.973 677.722 901.558 677.537 902.027 677.168C902.5 676.794 902.855 676.292 903.092 675.662C903.333 675.027 903.454 674.322 903.454 673.545C903.454 672.778 903.336 672.087 903.099 671.472C902.867 670.851 902.514 670.361 902.041 670.001C901.572 669.637 900.983 669.455 900.272 669.455C899.591 669.455 899.018 669.627 898.554 669.973C898.09 670.314 897.739 670.792 897.502 671.408C897.266 672.018 897.147 672.731 897.147 673.545ZM907.922 679V664.455H909.598V669.824H909.74C909.863 669.634 910.033 669.393 910.251 669.099C910.474 668.801 910.791 668.536 911.203 668.304C911.619 668.067 912.183 667.949 912.893 667.949C913.812 667.949 914.621 668.179 915.322 668.638C916.023 669.097 916.57 669.748 916.963 670.591C917.356 671.434 917.552 672.428 917.552 673.574C917.552 674.729 917.356 675.731 916.963 676.578C916.57 677.421 916.025 678.074 915.329 678.538C914.633 678.998 913.831 679.227 912.922 679.227C912.221 679.227 911.66 679.111 911.238 678.879C910.817 678.643 910.493 678.375 910.265 678.077C910.038 677.774 909.863 677.523 909.74 677.324H909.541V679H907.922ZM909.569 673.545C909.569 674.369 909.69 675.096 909.931 675.726C910.173 676.351 910.526 676.841 910.99 677.196C911.454 677.546 912.022 677.722 912.694 677.722C913.395 677.722 913.98 677.537 914.449 677.168C914.922 676.794 915.277 676.292 915.514 675.662C915.755 675.027 915.876 674.322 915.876 673.545C915.876 672.778 915.758 672.087 915.521 671.472C915.289 670.851 914.936 670.361 914.463 670.001C913.994 669.637 913.404 669.455 912.694 669.455C912.012 669.455 911.44 669.627 910.975 669.973C910.511 670.314 910.161 670.792 909.924 671.408C909.688 672.018 909.569 672.731 909.569 673.545ZM920.116 679V668.091H921.792V679H920.116ZM920.968 666.273C920.642 666.273 920.36 666.161 920.123 665.939C919.891 665.716 919.775 665.449 919.775 665.136C919.775 664.824 919.891 664.556 920.123 664.334C920.36 664.111 920.642 664 920.968 664C921.295 664 921.574 664.111 921.806 664.334C922.043 664.556 922.162 664.824 922.162 665.136C922.162 665.449 922.043 665.716 921.806 665.939C921.574 666.161 921.295 666.273 920.968 666.273ZM929.436 679.227C928.385 679.227 927.478 678.995 926.716 678.531C925.958 678.062 925.374 677.409 924.962 676.571C924.554 675.728 924.351 674.748 924.351 673.631C924.351 672.513 924.554 671.528 924.962 670.676C925.374 669.819 925.946 669.152 926.68 668.673C927.419 668.19 928.281 667.949 929.266 667.949C929.834 667.949 930.395 668.044 930.949 668.233C931.503 668.422 932.007 668.73 932.462 669.156C932.916 669.578 933.278 670.136 933.548 670.832C933.818 671.528 933.953 672.385 933.953 673.403V674.114H925.544V672.665H932.249C932.249 672.049 932.125 671.5 931.879 671.017C931.638 670.534 931.292 670.153 930.842 669.874C930.397 669.594 929.872 669.455 929.266 669.455C928.598 669.455 928.02 669.62 927.533 669.952C927.05 670.278 926.678 670.705 926.418 671.23C926.157 671.756 926.027 672.319 926.027 672.92V673.886C926.027 674.71 926.169 675.409 926.453 675.982C926.742 676.55 927.142 676.983 927.653 677.281C928.165 677.575 928.759 677.722 929.436 677.722C929.876 677.722 930.274 677.66 930.629 677.537C930.989 677.409 931.299 677.22 931.56 676.969C931.82 676.713 932.021 676.396 932.163 676.017L933.783 676.472C933.612 677.021 933.326 677.504 932.923 677.92C932.521 678.332 932.024 678.654 931.432 678.886C930.84 679.114 930.175 679.227 929.436 679.227ZM944.23 670.534L942.724 670.96C942.63 670.709 942.49 670.465 942.305 670.229C942.125 669.987 941.879 669.788 941.567 669.632C941.254 669.476 940.854 669.398 940.366 669.398C939.699 669.398 939.143 669.552 938.697 669.859C938.257 670.162 938.037 670.548 938.037 671.017C938.037 671.434 938.188 671.763 938.491 672.004C938.795 672.246 939.268 672.447 939.912 672.608L941.531 673.006C942.507 673.242 943.233 673.605 943.712 674.092C944.19 674.575 944.429 675.198 944.429 675.96C944.429 676.585 944.249 677.144 943.889 677.636C943.534 678.129 943.037 678.517 942.398 678.801C941.759 679.085 941.015 679.227 940.168 679.227C939.055 679.227 938.134 678.986 937.405 678.503C936.676 678.02 936.214 677.314 936.02 676.386L937.611 675.989C937.762 676.576 938.049 677.016 938.47 677.31C938.896 677.603 939.453 677.75 940.139 677.75C940.92 677.75 941.541 677.584 942 677.253C942.464 676.917 942.696 676.514 942.696 676.045C942.696 675.667 942.563 675.349 942.298 675.094C942.033 674.833 941.626 674.639 941.077 674.511L939.259 674.085C938.259 673.848 937.526 673.482 937.057 672.984C936.593 672.482 936.361 671.855 936.361 671.102C936.361 670.487 936.534 669.942 936.879 669.469C937.23 668.995 937.705 668.624 938.307 668.354C938.913 668.084 939.599 667.949 940.366 667.949C941.446 667.949 942.294 668.186 942.909 668.659C943.529 669.133 943.97 669.758 944.23 670.534Z" fill="white"/>
<line x1="1" y1="194" x2="1" stroke="white" stroke-width="2"/>
<line x1="2" y1="1" x2="822" y2="1" stroke="white" stroke-width="2"/>
<path d="M821.293 53.7071C821.683 54.0976 822.317 54.0976 822.707 53.7071L829.071 47.3431C829.462 46.9526 829.462 46.3195 829.071 45.9289C828.681 45.5384 828.047 45.5384 827.657 45.9289L822 51.5858L816.343 45.9289C815.953 45.5384 815.319 45.5384 814.929 45.9289C814.538 46.3195 814.538 46.9526 814.929 47.3431L821.293 53.7071ZM821 0V53H823V0L821 0Z" fill="white"/>
<line x1="2" y1="193" x2="22" y2="193" stroke="white" stroke-width="2"/>
</svg>
