<svg width="3199" height="1112" viewBox="0 0 3199 1112" fill="none" xmlns="http://www.w3.org/2000/svg">
<rect width="1440" height="1024" transform="translate(31 88)" fill="white"/>
<rect x="31" y="88" width="66" height="1024" fill="#161A4A"/>
<circle cx="64" cy="121" r="25" fill="#FFFCE2"/>
<ellipse cx="64" cy="121" rx="24.0625" ry="24.0625" fill="#161A4A"/>
<path d="M82.25 121C82.25 130.176 74.121 137.688 64 137.688C53.879 137.688 45.75 130.176 45.75 121C45.75 111.824 53.879 104.312 64 104.312C74.121 104.312 82.25 111.824 82.25 121Z" fill="#C08552" stroke="black"/>
<path d="M75.375 121C75.375 123.22 74.155 125.271 72.1003 126.785C70.0458 128.299 67.1835 129.25 64 129.25C60.8165 129.25 57.9542 128.299 55.8997 126.785C53.845 125.271 52.625 123.22 52.625 121C52.625 118.78 53.845 116.729 55.8997 115.215C57.9542 113.701 60.8165 112.75 64 112.75C67.1835 112.75 70.0458 113.701 72.1003 115.215C74.155 116.729 75.375 118.78 75.375 121Z" fill="#161A4A" stroke="black"/>
<rect x="64.9375" y="110.375" width="5.9375" height="20.3125" fill="#C08552"/>
<rect x="63.0625" y="101.625" width="1.875" height="38.4375" fill="#161A4A"/>
<line x1="71.375" y1="114.125" x2="71.375" y2="127.875" stroke="black"/>
<line x1="65.4375" y1="104.125" x2="65.4375" y2="137.875" stroke="black"/>
<line x1="65.4375" y1="104.125" x2="65.4375" y2="137.875" stroke="black"/>
<line x1="63.25" y1="129.438" x2="63.25" y2="137.875" stroke="black"/>
<line x1="63.25" y1="129.438" x2="63.25" y2="137.875" stroke="black"/>
<line x1="63.25" y1="104.125" x2="63.25" y2="112.562" stroke="black"/>
<path d="M64 184L73 175L64 166" stroke="#FFFCE2" stroke-width="2"/>
<path d="M55 184L64 175L55 166" stroke="#FFFCE2" stroke-width="2"/>
<path d="M46 643C45.2 643 44.5 642.7 43.9 642.1C43.3 641.5 43 640.8 43 640V616C43 615.2 43.3 614.5 43.9 613.9C44.5 613.3 45.2 613 46 613H55V608C55 607.233 55.3 606.542 55.9 605.925C56.5 605.308 57.2 605 58 605H68C68.8 605 69.5 605.308 70.1 605.925C70.7 606.542 71 607.233 71 608V613H80C80.8 613 81.5 613.3 82.1 613.9C82.7 614.5 83 615.2 83 616V627.25C82.5333 626.883 82.0583 626.55 81.575 626.25C81.0917 625.95 80.5667 625.667 80 625.4V616H46V640H62.7C62.8333 640.533 63 641.05 63.2 641.55C63.4 642.05 63.6333 642.533 63.9 643H46ZM58 613H68V608H58V613ZM75 646.65C72.3667 646.65 70.1 645.7 68.2 643.8C66.3 641.9 65.35 639.633 65.35 637C65.35 634.367 66.3 632.1 68.2 630.2C70.1 628.3 72.3667 627.35 75 627.35C77.6333 627.35 79.9 628.3 81.8 630.2C83.7 632.1 84.65 634.367 84.65 637C84.65 639.633 83.7 641.9 81.8 643.8C79.9 645.7 77.6333 646.65 75 646.65ZM75.85 636.9V630.7H73.75V637.489L78.7 642.05L80.05 640.7L75.85 636.9Z" fill="#FFFCE2"/>
<path d="M45.4955 573C44.5318 573 43.7083 572.657 43.025 571.971C42.3417 571.284 42 570.459 42 569.496C42 568.532 42.3415 567.708 43.0245 567.025C43.7078 566.342 44.5292 566 45.4885 566C45.6628 566 45.8333 566.008 46 566.025C46.1667 566.042 46.3833 566.083 46.65 566.15L56.65 556.15C56.5833 555.883 56.5417 555.667 56.525 555.5C56.5083 555.333 56.5 555.163 56.5 554.989C56.5 554.029 56.8432 553.208 57.5295 552.524C58.2158 551.841 59.0408 551.5 60.0045 551.5C60.9682 551.5 61.7917 551.844 62.475 552.532C63.1583 553.22 63.5 554.046 63.5 555.012C63.5 555.071 63.45 555.45 63.35 556.15L68.85 561.65C69.1167 561.583 69.3333 561.542 69.5 561.525C69.6667 561.508 69.8333 561.5 70 561.5C70.1667 561.5 70.3333 561.508 70.5 561.525C70.6667 561.542 70.8833 561.583 71.15 561.65L79.15 553.65C79.0833 553.383 79.0417 553.167 79.025 553C79.0083 552.833 79 552.663 79 552.489C79 551.529 79.3432 550.708 80.0295 550.024C80.7158 549.341 81.5408 549 82.5045 549C83.4682 549 84.2917 549.343 84.975 550.03C85.6583 550.716 86 551.541 86 552.505C86 553.468 85.6585 554.292 84.9755 554.975C84.2922 555.658 83.4708 556 82.5115 556C82.3372 556 82.1667 555.992 82 555.975C81.8333 555.958 81.6167 555.917 81.35 555.85L73.35 563.85C73.4167 564.117 73.4583 564.333 73.475 564.5C73.4917 564.667 73.5 564.837 73.5 565.012C73.5 565.971 73.1568 566.792 72.4705 567.476C71.7842 568.159 70.9592 568.5 69.9955 568.5C69.0318 568.5 68.2083 568.159 67.525 567.476C66.8417 566.792 66.5 565.971 66.5 565.012C66.5 564.837 66.5083 564.667 66.525 564.5C66.5417 564.333 66.5833 564.117 66.65 563.85L61.15 558.35C60.8833 558.417 60.6667 558.458 60.5 558.475C60.3333 558.492 60.1625 558.5 59.9875 558.5C59.9292 558.5 59.55 558.45 58.85 558.35L48.85 568.35C48.9167 568.617 48.9583 568.833 48.975 569C48.9917 569.167 49 569.337 49 569.512C49 570.471 48.6568 571.292 47.9705 571.976C47.2842 572.659 46.4592 573 45.4955 573Z" fill="#FFFCE2"/>
<path d="M63.95 517L49.45 509.05V497.05L42 493L63.95 481L86 493V508.85H83V494.75L78.45 497.05V509.05L63.95 517ZM63.95 501.6L79.7 493L63.95 484.55L48.3 493L63.95 501.6ZM63.95 513.6L75.45 507.25V498.85L63.95 505L52.45 498.75V507.25L63.95 513.6Z" fill="#FFFCE2"/>
<path d="M78.55 716.85C77.8693 716.85 77.2908 716.612 76.8145 716.136C76.3382 715.659 76.1 715.081 76.1 714.4C76.1 713.719 76.3382 713.141 76.8145 712.664C77.2908 712.188 77.8693 711.95 78.55 711.95C79.2307 711.95 79.8092 712.188 80.2855 712.664C80.7618 713.141 81 713.719 81 714.4C81 715.081 80.7618 715.659 80.2855 716.136C79.8092 716.612 79.2307 716.85 78.55 716.85ZM58.8 719C55.5667 719 52.7917 718.683 50.475 718.05C48.1583 717.417 47 716.589 47 715.568C47 714.856 47.6667 714.192 49 713.575C50.3333 712.958 51.9 712.5 53.7 712.2V716H57.3V679L71.9 686.1L60.3 692.2V711.977C63.3 712.159 65.7667 712.583 67.7 713.25C69.6333 713.917 70.6 714.683 70.6 715.55C70.6 716.583 69.4417 717.417 67.125 718.05C64.8083 718.683 62.0333 719 58.8 719Z" fill="#FFFCE2"/>
<rect width="1440" height="1024" transform="translate(1759 88)" fill="white"/>
<rect x="1759" y="88" width="280" height="1024" fill="#161A4A"/>
<circle cx="1792" cy="121" r="25" fill="#FFFCE2"/>
<ellipse cx="1792" cy="121" rx="24.0625" ry="24.0625" fill="#161A4A"/>
<path d="M1810.25 121C1810.25 130.176 1802.12 137.688 1792 137.688C1781.88 137.688 1773.75 130.176 1773.75 121C1773.75 111.824 1781.88 104.312 1792 104.312C1802.12 104.312 1810.25 111.824 1810.25 121Z" fill="#C08552" stroke="black"/>
<path d="M1803.37 121C1803.37 123.22 1802.16 125.271 1800.1 126.785C1798.05 128.299 1795.18 129.25 1792 129.25C1788.82 129.25 1785.95 128.299 1783.9 126.785C1781.84 125.271 1780.62 123.22 1780.62 121C1780.62 118.78 1781.84 116.729 1783.9 115.215C1785.95 113.701 1788.82 112.75 1792 112.75C1795.18 112.75 1798.05 113.701 1800.1 115.215C1802.16 116.729 1803.37 118.78 1803.37 121Z" fill="#161A4A" stroke="black"/>
<rect x="1792.94" y="110.375" width="5.9375" height="20.3125" fill="#C08552"/>
<rect x="1791.06" y="101.625" width="1.875" height="38.4375" fill="#161A4A"/>
<line x1="1799.38" y1="114.125" x2="1799.38" y2="127.875" stroke="black"/>
<line x1="1793.44" y1="104.125" x2="1793.44" y2="137.875" stroke="black"/>
<line x1="1793.44" y1="104.125" x2="1793.44" y2="137.875" stroke="black"/>
<line x1="1791.25" y1="129.438" x2="1791.25" y2="137.875" stroke="black"/>
<line x1="1791.25" y1="129.438" x2="1791.25" y2="137.875" stroke="black"/>
<line x1="1791.25" y1="104.125" x2="1791.25" y2="112.562" stroke="black"/>
<path d="M1775 643C1774.2 643 1773.5 642.7 1772.9 642.1C1772.3 641.5 1772 640.8 1772 640V616C1772 615.2 1772.3 614.5 1772.9 613.9C1773.5 613.3 1774.2 613 1775 613H1784V608C1784 607.233 1784.3 606.542 1784.9 605.925C1785.5 605.308 1786.2 605 1787 605H1797C1797.8 605 1798.5 605.308 1799.1 605.925C1799.7 606.542 1800 607.233 1800 608V613H1809C1809.8 613 1810.5 613.3 1811.1 613.9C1811.7 614.5 1812 615.2 1812 616V627.25C1811.53 626.883 1811.06 626.55 1810.58 626.25C1810.09 625.95 1809.57 625.667 1809 625.4V616H1775V640H1791.7C1791.83 640.533 1792 641.05 1792.2 641.55C1792.4 642.05 1792.63 642.533 1792.9 643H1775ZM1787 613H1797V608H1787V613ZM1804 646.65C1801.37 646.65 1799.1 645.7 1797.2 643.8C1795.3 641.9 1794.35 639.633 1794.35 637C1794.35 634.367 1795.3 632.1 1797.2 630.2C1799.1 628.3 1801.37 627.35 1804 627.35C1806.63 627.35 1808.9 628.3 1810.8 630.2C1812.7 632.1 1813.65 634.367 1813.65 637C1813.65 639.633 1812.7 641.9 1810.8 643.8C1808.9 645.7 1806.63 646.65 1804 646.65ZM1804.85 636.9V630.7H1802.75V637.489L1807.7 642.05L1809.05 640.7L1804.85 636.9Z" fill="#FFFCE2"/>
<path d="M1774.5 573C1773.53 573 1772.71 572.657 1772.03 571.971C1771.34 571.284 1771 570.459 1771 569.496C1771 568.532 1771.34 567.708 1772.02 567.025C1772.71 566.342 1773.53 566 1774.49 566C1774.66 566 1774.83 566.008 1775 566.025C1775.17 566.042 1775.38 566.083 1775.65 566.15L1785.65 556.15C1785.58 555.883 1785.54 555.667 1785.53 555.5C1785.51 555.333 1785.5 555.163 1785.5 554.989C1785.5 554.029 1785.84 553.208 1786.53 552.524C1787.22 551.841 1788.04 551.5 1789 551.5C1789.97 551.5 1790.79 551.844 1791.48 552.532C1792.16 553.22 1792.5 554.046 1792.5 555.012C1792.5 555.071 1792.45 555.45 1792.35 556.15L1797.85 561.65C1798.12 561.583 1798.33 561.542 1798.5 561.525C1798.67 561.508 1798.83 561.5 1799 561.5C1799.17 561.5 1799.33 561.508 1799.5 561.525C1799.67 561.542 1799.88 561.583 1800.15 561.65L1808.15 553.65C1808.08 553.383 1808.04 553.167 1808.03 553C1808.01 552.833 1808 552.663 1808 552.489C1808 551.529 1808.34 550.708 1809.03 550.024C1809.72 549.341 1810.54 549 1811.5 549C1812.47 549 1813.29 549.343 1813.98 550.03C1814.66 550.716 1815 551.541 1815 552.505C1815 553.468 1814.66 554.292 1813.98 554.975C1813.29 555.658 1812.47 556 1811.51 556C1811.34 556 1811.17 555.992 1811 555.975C1810.83 555.958 1810.62 555.917 1810.35 555.85L1802.35 563.85C1802.42 564.117 1802.46 564.333 1802.48 564.5C1802.49 564.667 1802.5 564.837 1802.5 565.012C1802.5 565.971 1802.16 566.792 1801.47 567.476C1800.78 568.159 1799.96 568.5 1799 568.5C1798.03 568.5 1797.21 568.159 1796.53 567.476C1795.84 566.792 1795.5 565.971 1795.5 565.012C1795.5 564.837 1795.51 564.667 1795.53 564.5C1795.54 564.333 1795.58 564.117 1795.65 563.85L1790.15 558.35C1789.88 558.417 1789.67 558.458 1789.5 558.475C1789.33 558.492 1789.16 558.5 1788.99 558.5C1788.93 558.5 1788.55 558.45 1787.85 558.35L1777.85 568.35C1777.92 568.617 1777.96 568.833 1777.98 569C1777.99 569.167 1778 569.337 1778 569.512C1778 570.471 1777.66 571.292 1776.97 571.976C1776.28 572.659 1775.46 573 1774.5 573Z" fill="#FFFCE2"/>
<path d="M1792.95 517L1778.45 509.05V497.05L1771 493L1792.95 481L1815 493V508.85H1812V494.75L1807.45 497.05V509.05L1792.95 517ZM1792.95 501.6L1808.7 493L1792.95 484.55L1777.3 493L1792.95 501.6ZM1792.95 513.6L1804.45 507.25V498.85L1792.95 505L1781.45 498.75V507.25L1792.95 513.6Z" fill="#FFFCE2"/>
<path d="M1807.55 716.85C1806.87 716.85 1806.29 716.612 1805.81 716.136C1805.34 715.659 1805.1 715.081 1805.1 714.4C1805.1 713.719 1805.34 713.141 1805.81 712.664C1806.29 712.188 1806.87 711.95 1807.55 711.95C1808.23 711.95 1808.81 712.188 1809.29 712.664C1809.76 713.141 1810 713.719 1810 714.4C1810 715.081 1809.76 715.659 1809.29 716.136C1808.81 716.612 1808.23 716.85 1807.55 716.85ZM1787.8 719C1784.57 719 1781.79 718.683 1779.48 718.05C1777.16 717.417 1776 716.589 1776 715.568C1776 714.856 1776.67 714.192 1778 713.575C1779.33 712.958 1780.9 712.5 1782.7 712.2V716H1786.3V679L1800.9 686.1L1789.3 692.2V711.977C1792.3 712.159 1794.77 712.583 1796.7 713.25C1798.63 713.917 1799.6 714.683 1799.6 715.55C1799.6 716.583 1798.44 717.417 1796.13 718.05C1793.81 718.683 1791.03 719 1787.8 719Z" fill="#FFFCE2"/>
<path d="M1836.76 507V492.455H1845.54V494.017H1838.52V498.932H1845.09V500.494H1838.52V505.438H1845.65V507H1836.76ZM1852.61 507.227C1851.7 507.227 1850.89 506.998 1850.2 506.538C1849.5 506.074 1848.96 505.421 1848.57 504.578C1848.17 503.731 1847.98 502.729 1847.98 501.574C1847.98 500.428 1848.17 499.434 1848.57 498.591C1848.96 497.748 1849.51 497.097 1850.21 496.638C1850.91 496.179 1851.72 495.949 1852.63 495.949C1853.35 495.949 1853.91 496.067 1854.32 496.304C1854.73 496.536 1855.05 496.801 1855.27 497.099C1855.49 497.393 1855.67 497.634 1855.79 497.824H1855.93V492.455H1857.61V507H1855.99V505.324H1855.79C1855.67 505.523 1855.49 505.774 1855.26 506.077C1855.04 506.375 1854.71 506.643 1854.29 506.879C1853.87 507.111 1853.31 507.227 1852.61 507.227ZM1852.83 505.722C1853.51 505.722 1854.07 505.546 1854.54 505.196C1855 504.841 1855.36 504.351 1855.6 503.726C1855.84 503.096 1855.96 502.369 1855.96 501.545C1855.96 500.731 1855.84 500.018 1855.6 499.408C1855.37 498.792 1855.02 498.314 1854.55 497.973C1854.09 497.627 1853.52 497.455 1852.83 497.455C1852.12 497.455 1851.53 497.637 1851.06 498.001C1850.59 498.361 1850.24 498.851 1850 499.472C1849.77 500.087 1849.65 500.778 1849.65 501.545C1849.65 502.322 1849.77 503.027 1850.01 503.662C1850.25 504.292 1850.6 504.794 1851.07 505.168C1851.55 505.537 1852.13 505.722 1852.83 505.722ZM1867.78 502.54V496.091H1869.46V507H1867.78V505.153H1867.67C1867.41 505.707 1867.02 506.179 1866.48 506.567C1865.94 506.95 1865.26 507.142 1864.43 507.142C1863.75 507.142 1863.14 506.993 1862.61 506.695C1862.08 506.392 1861.67 505.937 1861.36 505.331C1861.06 504.72 1860.91 503.951 1860.91 503.023V496.091H1862.59V502.909C1862.59 503.705 1862.81 504.339 1863.25 504.812C1863.7 505.286 1864.28 505.523 1864.97 505.523C1865.39 505.523 1865.81 505.416 1866.24 505.203C1866.68 504.99 1867.04 504.663 1867.34 504.223C1867.63 503.783 1867.78 503.222 1867.78 502.54ZM1876.96 507.227C1875.94 507.227 1875.06 506.986 1874.32 506.503C1873.58 506.02 1873.01 505.355 1872.62 504.507C1872.22 503.66 1872.02 502.691 1872.02 501.602C1872.02 500.494 1872.22 499.517 1872.63 498.669C1873.04 497.817 1873.61 497.152 1874.35 496.673C1875.09 496.19 1875.95 495.949 1876.93 495.949C1877.7 495.949 1878.39 496.091 1879.01 496.375C1879.62 496.659 1880.13 497.057 1880.52 497.568C1880.91 498.08 1881.16 498.676 1881.25 499.358H1879.58C1879.45 498.861 1879.16 498.42 1878.72 498.037C1878.29 497.649 1877.7 497.455 1876.96 497.455C1876.31 497.455 1875.74 497.625 1875.24 497.966C1874.76 498.302 1874.37 498.778 1874.1 499.393C1873.83 500.004 1873.69 500.722 1873.69 501.545C1873.69 502.388 1873.83 503.122 1874.09 503.747C1874.36 504.372 1874.74 504.857 1875.23 505.203C1875.72 505.549 1876.3 505.722 1876.96 505.722C1877.4 505.722 1877.79 505.646 1878.15 505.494C1878.5 505.343 1878.8 505.125 1879.05 504.841C1879.3 504.557 1879.47 504.216 1879.58 503.818H1881.25C1881.16 504.462 1880.92 505.042 1880.55 505.558C1880.18 506.07 1879.69 506.477 1879.08 506.78C1878.47 507.078 1877.77 507.227 1876.96 507.227ZM1886.91 507.256C1886.22 507.256 1885.59 507.125 1885.03 506.865C1884.47 506.6 1884.02 506.219 1883.69 505.722C1883.36 505.22 1883.19 504.614 1883.19 503.903C1883.19 503.278 1883.31 502.772 1883.56 502.384C1883.81 501.991 1884.14 501.683 1884.55 501.46C1884.96 501.238 1885.41 501.072 1885.91 500.963C1886.41 500.849 1886.92 500.759 1887.42 500.693C1888.09 500.608 1888.62 500.544 1889.04 500.501C1889.45 500.454 1889.76 500.376 1889.94 500.267C1890.14 500.158 1890.24 499.969 1890.24 499.699V499.642C1890.24 498.941 1890.04 498.397 1889.66 498.009C1889.28 497.62 1888.71 497.426 1887.94 497.426C1887.13 497.426 1886.51 497.601 1886.05 497.952C1885.6 498.302 1885.28 498.676 1885.09 499.074L1883.5 498.506C1883.79 497.843 1884.17 497.327 1884.64 496.957C1885.12 496.583 1885.64 496.323 1886.2 496.176C1886.77 496.025 1887.33 495.949 1887.88 495.949C1888.23 495.949 1888.63 495.991 1889.09 496.077C1889.54 496.157 1889.99 496.325 1890.41 496.581C1890.84 496.837 1891.2 497.223 1891.49 497.739C1891.77 498.255 1891.91 498.946 1891.91 499.812V507H1890.24V505.523H1890.15C1890.04 505.759 1889.85 506.013 1889.58 506.283C1889.32 506.553 1888.96 506.782 1888.52 506.972C1888.08 507.161 1887.55 507.256 1886.91 507.256ZM1887.17 505.75C1887.83 505.75 1888.39 505.62 1888.84 505.359C1889.3 505.099 1889.65 504.763 1889.88 504.351C1890.12 503.939 1890.24 503.506 1890.24 503.051V501.517C1890.17 501.602 1890.01 501.68 1889.77 501.751C1889.53 501.818 1889.26 501.877 1888.94 501.929C1888.64 501.976 1888.34 502.019 1888.04 502.057C1887.75 502.09 1887.52 502.118 1887.34 502.142C1886.9 502.199 1886.5 502.291 1886.12 502.419C1885.74 502.542 1885.44 502.729 1885.21 502.98C1884.98 503.226 1884.87 503.562 1884.87 503.989C1884.87 504.571 1885.08 505.011 1885.51 505.31C1885.95 505.603 1886.5 505.75 1887.17 505.75ZM1899.72 496.091V497.511H1894.06V496.091H1899.72ZM1895.71 493.477H1897.39V503.875C1897.39 504.348 1897.46 504.704 1897.59 504.94C1897.73 505.172 1897.91 505.329 1898.13 505.409C1898.35 505.485 1898.59 505.523 1898.84 505.523C1899.02 505.523 1899.17 505.513 1899.29 505.494C1899.41 505.471 1899.5 505.452 1899.57 505.438L1899.91 506.943C1899.8 506.986 1899.64 507.028 1899.44 507.071C1899.24 507.118 1898.98 507.142 1898.66 507.142C1898.19 507.142 1897.73 507.04 1897.27 506.837C1896.82 506.633 1896.45 506.323 1896.15 505.906C1895.86 505.49 1895.71 504.964 1895.71 504.33V493.477ZM1902.24 507V496.091H1903.91V507H1902.24ZM1903.09 494.273C1902.76 494.273 1902.48 494.161 1902.24 493.939C1902.01 493.716 1901.9 493.449 1901.9 493.136C1901.9 492.824 1902.01 492.556 1902.24 492.334C1902.48 492.111 1902.76 492 1903.09 492C1903.42 492 1903.7 492.111 1903.93 492.334C1904.16 492.556 1904.28 492.824 1904.28 493.136C1904.28 493.449 1904.16 493.716 1903.93 493.939C1903.7 494.161 1903.42 494.273 1903.09 494.273ZM1911.42 507.227C1910.43 507.227 1909.57 506.993 1908.82 506.524C1908.08 506.055 1907.51 505.4 1907.09 504.557C1906.68 503.714 1906.47 502.729 1906.47 501.602C1906.47 500.466 1906.68 499.474 1907.09 498.626C1907.51 497.779 1908.08 497.121 1908.82 496.652C1909.57 496.183 1910.43 495.949 1911.42 495.949C1912.4 495.949 1913.26 496.183 1914 496.652C1914.74 497.121 1915.32 497.779 1915.73 498.626C1916.15 499.474 1916.36 500.466 1916.36 501.602C1916.36 502.729 1916.15 503.714 1915.73 504.557C1915.32 505.4 1914.74 506.055 1914 506.524C1913.26 506.993 1912.4 507.227 1911.42 507.227ZM1911.42 505.722C1912.16 505.722 1912.78 505.53 1913.26 505.146C1913.74 504.763 1914.1 504.259 1914.33 503.634C1914.57 503.009 1914.68 502.331 1914.68 501.602C1914.68 500.873 1914.57 500.194 1914.33 499.564C1914.1 498.934 1913.74 498.425 1913.26 498.037C1912.78 497.649 1912.16 497.455 1911.42 497.455C1910.67 497.455 1910.05 497.649 1909.57 498.037C1909.09 498.425 1908.73 498.934 1908.5 499.564C1908.26 500.194 1908.15 500.873 1908.15 501.602C1908.15 502.331 1908.26 503.009 1908.5 503.634C1908.73 504.259 1909.09 504.763 1909.57 505.146C1910.05 505.53 1910.67 505.722 1911.42 505.722ZM1920.59 500.438V507H1918.92V496.091H1920.54V497.795H1920.68C1920.93 497.241 1921.32 496.796 1921.84 496.46C1922.36 496.119 1923.04 495.949 1923.86 495.949C1924.6 495.949 1925.25 496.1 1925.8 496.403C1926.35 496.702 1926.78 497.156 1927.09 497.767C1927.4 498.373 1927.55 499.14 1927.55 500.068V507H1925.88V500.182C1925.88 499.325 1925.65 498.657 1925.21 498.179C1924.76 497.696 1924.15 497.455 1923.38 497.455C1922.84 497.455 1922.36 497.571 1921.94 497.803C1921.53 498.035 1921.2 498.373 1920.96 498.818C1920.71 499.263 1920.59 499.803 1920.59 500.438ZM1940.36 507.199C1939.4 507.199 1938.58 507.024 1937.89 506.673C1937.2 506.323 1936.66 505.842 1936.29 505.232C1935.92 504.621 1935.73 503.922 1935.73 503.136C1935.73 502.53 1935.86 501.993 1936.11 501.524C1936.37 501.051 1936.73 500.613 1937.19 500.21C1937.65 499.803 1938.17 499.396 1938.77 498.989L1940.87 497.426C1941.28 497.156 1941.61 496.867 1941.86 496.56C1942.11 496.252 1942.24 495.849 1942.24 495.352C1942.24 494.983 1942.07 494.625 1941.75 494.28C1941.42 493.934 1941 493.761 1940.47 493.761C1940.1 493.761 1939.78 493.856 1939.49 494.045C1939.21 494.23 1938.99 494.467 1938.83 494.756C1938.68 495.04 1938.6 495.333 1938.6 495.636C1938.6 495.977 1938.69 496.323 1938.88 496.673C1939.07 497.019 1939.3 497.374 1939.59 497.739C1939.89 498.098 1940.19 498.468 1940.5 498.847L1947.18 507H1945.16L1939.65 500.352C1939.14 499.737 1938.67 499.178 1938.26 498.676C1937.84 498.174 1937.51 497.679 1937.26 497.192C1937.02 496.704 1936.89 496.176 1936.89 495.608C1936.89 494.955 1937.04 494.382 1937.33 493.889C1937.62 493.392 1938.03 493.006 1938.56 492.732C1939.09 492.452 1939.71 492.312 1940.42 492.312C1941.15 492.312 1941.77 492.455 1942.3 492.739C1942.82 493.018 1943.23 493.39 1943.51 493.854C1943.8 494.313 1943.94 494.812 1943.94 495.352C1943.94 496.048 1943.77 496.652 1943.42 497.163C1943.08 497.675 1942.6 498.151 1942.01 498.591L1939.11 500.75C1938.46 501.233 1938.01 501.702 1937.78 502.156C1937.55 502.611 1937.43 502.937 1937.43 503.136C1937.43 503.591 1937.55 504.015 1937.79 504.408C1938.03 504.801 1938.36 505.118 1938.79 505.359C1939.22 505.601 1939.73 505.722 1940.3 505.722C1940.85 505.722 1941.39 505.606 1941.91 505.374C1942.43 505.137 1942.9 504.796 1943.32 504.351C1943.75 503.906 1944.08 503.371 1944.33 502.746C1944.58 502.121 1944.71 501.418 1944.71 500.636H1946.33C1946.33 501.602 1946.22 502.391 1945.99 503.001C1945.77 503.612 1945.52 504.09 1945.24 504.436C1944.96 504.782 1944.74 505.04 1944.56 505.21C1944.51 505.281 1944.46 505.352 1944.41 505.423C1944.36 505.494 1944.31 505.565 1944.25 505.636C1943.78 506.162 1943.19 506.555 1942.48 506.815C1941.76 507.071 1941.06 507.199 1940.36 507.199ZM1962.84 496.091C1962.76 495.371 1962.41 494.812 1961.8 494.415C1961.2 494.017 1960.45 493.818 1959.57 493.818C1958.93 493.818 1958.37 493.922 1957.88 494.131C1957.41 494.339 1957.03 494.625 1956.76 494.99C1956.5 495.355 1956.36 495.769 1956.36 496.233C1956.36 496.621 1956.46 496.955 1956.64 497.234C1956.83 497.509 1957.07 497.739 1957.37 497.923C1957.66 498.103 1957.97 498.252 1958.29 498.371C1958.61 498.484 1958.91 498.577 1959.18 498.648L1960.65 499.045C1961.03 499.145 1961.45 499.282 1961.92 499.457C1962.39 499.633 1962.83 499.872 1963.26 500.175C1963.69 500.473 1964.05 500.857 1964.33 501.325C1964.6 501.794 1964.74 502.369 1964.74 503.051C1964.74 503.837 1964.54 504.547 1964.13 505.182C1963.72 505.816 1963.12 506.321 1962.34 506.695C1961.56 507.069 1960.61 507.256 1959.49 507.256C1958.45 507.256 1957.54 507.088 1956.78 506.751C1956.03 506.415 1955.43 505.946 1954.99 505.345C1954.56 504.744 1954.32 504.045 1954.26 503.25H1956.08C1956.13 503.799 1956.31 504.254 1956.63 504.614C1956.96 504.969 1957.37 505.234 1957.87 505.409C1958.37 505.58 1958.91 505.665 1959.49 505.665C1960.16 505.665 1960.76 505.556 1961.3 505.338C1961.83 505.116 1962.26 504.808 1962.57 504.415C1962.88 504.017 1963.04 503.553 1963.04 503.023C1963.04 502.54 1962.9 502.147 1962.63 501.844C1962.37 501.541 1962.01 501.295 1961.57 501.105C1961.13 500.916 1960.65 500.75 1960.14 500.608L1958.35 500.097C1957.22 499.77 1956.32 499.304 1955.65 498.697C1954.99 498.091 1954.66 497.298 1954.66 496.318C1954.66 495.504 1954.88 494.794 1955.32 494.188C1955.76 493.577 1956.36 493.103 1957.11 492.767C1957.86 492.426 1958.7 492.256 1959.63 492.256C1960.57 492.256 1961.4 492.424 1962.13 492.76C1962.86 493.091 1963.44 493.546 1963.86 494.124C1964.29 494.701 1964.52 495.357 1964.55 496.091H1962.84ZM1968.98 503.023L1968.95 500.949H1969.29L1974.06 496.091H1976.13L1971.05 501.233H1970.91L1968.98 503.023ZM1967.41 507V492.455H1969.09V507H1967.41ZM1974.34 507L1970.08 501.602L1971.28 500.438L1976.48 507H1974.34ZM1978.29 507V496.091H1979.97V507H1978.29ZM1979.14 494.273C1978.82 494.273 1978.54 494.161 1978.3 493.939C1978.07 493.716 1977.95 493.449 1977.95 493.136C1977.95 492.824 1978.07 492.556 1978.3 492.334C1978.54 492.111 1978.82 492 1979.14 492C1979.47 492 1979.75 492.111 1979.98 492.334C1980.22 492.556 1980.34 492.824 1980.34 493.136C1980.34 493.449 1980.22 493.716 1979.98 493.939C1979.75 494.161 1979.47 494.273 1979.14 494.273ZM1984.71 492.455V507H1983.04V492.455H1984.71ZM1989.46 492.455V507H1987.78V492.455H1989.46ZM2000.26 498.534L1998.75 498.96C1998.66 498.709 1998.52 498.465 1998.33 498.229C1998.15 497.987 1997.91 497.788 1997.59 497.632C1997.28 497.476 1996.88 497.398 1996.39 497.398C1995.73 497.398 1995.17 497.552 1994.72 497.859C1994.28 498.162 1994.06 498.548 1994.06 499.017C1994.06 499.434 1994.22 499.763 1994.52 500.004C1994.82 500.246 1995.3 500.447 1995.94 500.608L1997.56 501.006C1998.53 501.242 1999.26 501.605 1999.74 502.092C2000.22 502.575 2000.46 503.198 2000.46 503.96C2000.46 504.585 2000.28 505.144 1999.92 505.636C1999.56 506.129 1999.06 506.517 1998.43 506.801C1997.79 507.085 1997.04 507.227 1996.19 507.227C1995.08 507.227 1994.16 506.986 1993.43 506.503C1992.7 506.02 1992.24 505.314 1992.05 504.386L1993.64 503.989C1993.79 504.576 1994.08 505.016 1994.5 505.31C1994.92 505.603 1995.48 505.75 1996.17 505.75C1996.95 505.75 1997.57 505.584 1998.03 505.253C1998.49 504.917 1998.72 504.514 1998.72 504.045C1998.72 503.667 1998.59 503.349 1998.33 503.094C1998.06 502.833 1997.65 502.639 1997.1 502.511L1995.29 502.085C1994.29 501.848 1993.55 501.482 1993.08 500.984C1992.62 500.482 1992.39 499.855 1992.39 499.102C1992.39 498.487 1992.56 497.942 1992.91 497.469C1993.26 496.995 1993.73 496.624 1994.33 496.354C1994.94 496.084 1995.63 495.949 1996.39 495.949C1997.47 495.949 1998.32 496.186 1998.94 496.659C1999.56 497.133 2000 497.758 2000.26 498.534Z" fill="white"/>
<path d="M1835.97 556.017V554.455H1846.88V556.017H1842.3V569H1840.54V556.017H1835.97ZM1849.37 569V558.091H1851.04V569H1849.37ZM1850.22 556.273C1849.89 556.273 1849.61 556.161 1849.37 555.939C1849.14 555.716 1849.03 555.449 1849.03 555.136C1849.03 554.824 1849.14 554.556 1849.37 554.334C1849.61 554.111 1849.89 554 1850.22 554C1850.55 554 1850.82 554.111 1851.06 554.334C1851.29 554.556 1851.41 554.824 1851.41 555.136C1851.41 555.449 1851.29 555.716 1851.06 555.939C1850.82 556.161 1850.55 556.273 1850.22 556.273ZM1854.11 569V558.091H1855.73V559.795H1855.87C1856.1 559.213 1856.47 558.761 1856.97 558.439C1857.48 558.112 1858.09 557.949 1858.8 557.949C1859.52 557.949 1860.12 558.112 1860.6 558.439C1861.08 558.761 1861.46 559.213 1861.73 559.795H1861.84C1862.12 559.232 1862.54 558.785 1863.1 558.453C1863.66 558.117 1864.33 557.949 1865.11 557.949C1866.08 557.949 1866.88 558.254 1867.5 558.865C1868.12 559.471 1868.43 560.416 1868.43 561.699V569H1866.75V561.699C1866.75 560.894 1866.53 560.319 1866.09 559.973C1865.65 559.627 1865.13 559.455 1864.54 559.455C1863.77 559.455 1863.18 559.687 1862.76 560.151C1862.33 560.61 1862.12 561.192 1862.12 561.898V569H1860.42V561.528C1860.42 560.908 1860.22 560.409 1859.82 560.03C1859.41 559.646 1858.89 559.455 1858.26 559.455C1857.82 559.455 1857.42 559.571 1857.04 559.803C1856.66 560.035 1856.36 560.357 1856.13 560.768C1855.9 561.176 1855.79 561.647 1855.79 562.182V569H1854.11ZM1876.07 569.227C1875.02 569.227 1874.11 568.995 1873.35 568.531C1872.59 568.062 1872.01 567.409 1871.59 566.571C1871.19 565.728 1870.98 564.748 1870.98 563.631C1870.98 562.513 1871.19 561.528 1871.59 560.676C1872.01 559.819 1872.58 559.152 1873.31 558.673C1874.05 558.19 1874.91 557.949 1875.9 557.949C1876.47 557.949 1877.03 558.044 1877.58 558.233C1878.14 558.422 1878.64 558.73 1879.09 559.156C1879.55 559.578 1879.91 560.136 1880.18 560.832C1880.45 561.528 1880.59 562.385 1880.59 563.403V564.114H1872.18V562.665H1878.88C1878.88 562.049 1878.76 561.5 1878.51 561.017C1878.27 560.534 1877.92 560.153 1877.48 559.874C1877.03 559.594 1876.5 559.455 1875.9 559.455C1875.23 559.455 1874.65 559.62 1874.17 559.952C1873.68 560.278 1873.31 560.705 1873.05 561.23C1872.79 561.756 1872.66 562.319 1872.66 562.92V563.886C1872.66 564.71 1872.8 565.409 1873.09 565.982C1873.37 566.55 1873.77 566.983 1874.29 567.281C1874.8 567.575 1875.39 567.722 1876.07 567.722C1876.51 567.722 1876.91 567.66 1877.26 567.537C1877.62 567.409 1877.93 567.22 1878.19 566.969C1878.45 566.713 1878.65 566.396 1878.8 566.017L1880.42 566.472C1880.25 567.021 1879.96 567.504 1879.56 567.92C1879.15 568.332 1878.66 568.654 1878.06 568.886C1877.47 569.114 1876.81 569.227 1876.07 569.227ZM1884.81 554.455V569H1883.14V554.455H1884.81ZM1887.88 569V558.091H1889.56V569H1887.88ZM1888.73 556.273C1888.41 556.273 1888.13 556.161 1887.89 555.939C1887.66 555.716 1887.54 555.449 1887.54 555.136C1887.54 554.824 1887.66 554.556 1887.89 554.334C1888.13 554.111 1888.41 554 1888.73 554C1889.06 554 1889.34 554.111 1889.57 554.334C1889.81 554.556 1889.93 554.824 1889.93 555.136C1889.93 555.449 1889.81 555.716 1889.57 555.939C1889.34 556.161 1889.06 556.273 1888.73 556.273ZM1894.3 562.438V569H1892.63V558.091H1894.25V559.795H1894.39C1894.64 559.241 1895.03 558.796 1895.55 558.46C1896.07 558.119 1896.75 557.949 1897.57 557.949C1898.31 557.949 1898.96 558.1 1899.51 558.403C1900.06 558.702 1900.49 559.156 1900.8 559.767C1901.11 560.373 1901.26 561.14 1901.26 562.068V569H1899.59V562.182C1899.59 561.325 1899.37 560.657 1898.92 560.179C1898.48 559.696 1897.86 559.455 1897.09 559.455C1896.55 559.455 1896.07 559.571 1895.65 559.803C1895.24 560.035 1894.91 560.373 1894.67 560.818C1894.42 561.263 1894.3 561.803 1894.3 562.438ZM1908.9 569.227C1907.85 569.227 1906.94 568.995 1906.18 568.531C1905.42 568.062 1904.84 567.409 1904.43 566.571C1904.02 565.728 1903.82 564.748 1903.82 563.631C1903.82 562.513 1904.02 561.528 1904.43 560.676C1904.84 559.819 1905.41 559.152 1906.15 558.673C1906.88 558.19 1907.75 557.949 1908.73 557.949C1909.3 557.949 1909.86 558.044 1910.41 558.233C1910.97 558.422 1911.47 558.73 1911.93 559.156C1912.38 559.578 1912.74 560.136 1913.01 560.832C1913.28 561.528 1913.42 562.385 1913.42 563.403V564.114H1905.01V562.665H1911.71C1911.71 562.049 1911.59 561.5 1911.34 561.017C1911.1 560.534 1910.76 560.153 1910.31 559.874C1909.86 559.594 1909.34 559.455 1908.73 559.455C1908.06 559.455 1907.49 559.62 1907 559.952C1906.51 560.278 1906.14 560.705 1905.88 561.23C1905.62 561.756 1905.49 562.319 1905.49 562.92V563.886C1905.49 564.71 1905.63 565.409 1905.92 565.982C1906.21 566.55 1906.61 566.983 1907.12 567.281C1907.63 567.575 1908.22 567.722 1908.9 567.722C1909.34 567.722 1909.74 567.66 1910.09 567.537C1910.45 567.409 1910.76 567.22 1911.02 566.969C1911.28 566.713 1911.49 566.396 1911.63 566.017L1913.25 566.472C1913.08 567.021 1912.79 567.504 1912.39 567.92C1911.99 568.332 1911.49 568.654 1910.9 568.886C1910.3 569.114 1909.64 569.227 1908.9 569.227Z" fill="white"/>
<path d="M1836.76 634V619.455H1841.68C1842.82 619.455 1843.75 619.661 1844.47 620.072C1845.2 620.48 1845.74 621.031 1846.09 621.727C1846.44 622.423 1846.62 623.2 1846.62 624.057C1846.62 624.914 1846.44 625.693 1846.09 626.393C1845.75 627.094 1845.21 627.653 1844.49 628.07C1843.76 628.482 1842.84 628.688 1841.7 628.688H1838.18V627.125H1841.65C1842.43 627.125 1843.06 626.99 1843.53 626.72C1844 626.45 1844.35 626.086 1844.56 625.626C1844.78 625.162 1844.89 624.639 1844.89 624.057C1844.89 623.474 1844.78 622.954 1844.56 622.494C1844.35 622.035 1844 621.675 1843.52 621.415C1843.04 621.15 1842.41 621.017 1841.62 621.017H1838.52V634H1836.76ZM1849.23 634V623.091H1850.85V624.739H1850.96C1851.16 624.199 1851.52 623.761 1852.04 623.425C1852.56 623.089 1853.15 622.92 1853.8 622.92C1853.93 622.92 1854.08 622.923 1854.26 622.928C1854.45 622.932 1854.59 622.939 1854.68 622.949V624.653C1854.63 624.639 1854.5 624.618 1854.29 624.589C1854.09 624.556 1853.88 624.54 1853.66 624.54C1853.13 624.54 1852.66 624.651 1852.24 624.874C1851.83 625.091 1851.5 625.394 1851.26 625.783C1851.02 626.166 1850.91 626.604 1850.91 627.097V634H1849.23ZM1860.77 634.227C1859.79 634.227 1858.92 633.993 1858.18 633.524C1857.44 633.055 1856.86 632.4 1856.45 631.557C1856.03 630.714 1855.83 629.729 1855.83 628.602C1855.83 627.466 1856.03 626.474 1856.45 625.626C1856.86 624.779 1857.44 624.121 1858.18 623.652C1858.92 623.183 1859.79 622.949 1860.77 622.949C1861.76 622.949 1862.62 623.183 1863.36 623.652C1864.1 624.121 1864.68 624.779 1865.09 625.626C1865.51 626.474 1865.71 627.466 1865.71 628.602C1865.71 629.729 1865.51 630.714 1865.09 631.557C1864.68 632.4 1864.1 633.055 1863.36 633.524C1862.62 633.993 1861.76 634.227 1860.77 634.227ZM1860.77 632.722C1861.52 632.722 1862.13 632.53 1862.62 632.146C1863.1 631.763 1863.46 631.259 1863.69 630.634C1863.92 630.009 1864.04 629.331 1864.04 628.602C1864.04 627.873 1863.92 627.194 1863.69 626.564C1863.46 625.934 1863.1 625.425 1862.62 625.037C1862.13 624.649 1861.52 624.455 1860.77 624.455C1860.02 624.455 1859.41 624.649 1858.92 625.037C1858.44 625.425 1858.08 625.934 1857.85 626.564C1857.62 627.194 1857.5 627.873 1857.5 628.602C1857.5 629.331 1857.62 630.009 1857.85 630.634C1858.08 631.259 1858.44 631.763 1858.92 632.146C1859.41 632.53 1860.02 632.722 1860.77 632.722ZM1868.27 623.091H1869.95V634.795C1869.95 635.468 1869.83 636.05 1869.6 636.543C1869.37 637.035 1869.03 637.416 1868.56 637.686C1868.1 637.956 1867.52 638.091 1866.82 638.091C1866.77 638.091 1866.71 638.091 1866.65 638.091C1866.6 638.091 1866.54 638.091 1866.48 638.091V636.528C1866.54 636.528 1866.59 636.528 1866.64 636.528C1866.69 636.528 1866.74 636.528 1866.8 636.528C1867.31 636.528 1867.68 636.377 1867.92 636.074C1868.15 635.776 1868.27 635.349 1868.27 634.795V623.091ZM1869.1 621.273C1868.77 621.273 1868.49 621.161 1868.25 620.939C1868.02 620.716 1867.9 620.449 1867.9 620.136C1867.9 619.824 1868.02 619.556 1868.25 619.334C1868.49 619.111 1868.77 619 1869.1 619C1869.42 619 1869.7 619.111 1869.93 619.334C1870.17 619.556 1870.29 619.824 1870.29 620.136C1870.29 620.449 1870.17 620.716 1869.93 620.939C1869.7 621.161 1869.42 621.273 1869.1 621.273ZM1877.59 634.227C1876.54 634.227 1875.63 633.995 1874.87 633.531C1874.11 633.062 1873.53 632.409 1873.12 631.571C1872.71 630.728 1872.51 629.748 1872.51 628.631C1872.51 627.513 1872.71 626.528 1873.12 625.676C1873.53 624.819 1874.1 624.152 1874.84 623.673C1875.58 623.19 1876.44 622.949 1877.42 622.949C1877.99 622.949 1878.55 623.044 1879.11 623.233C1879.66 623.422 1880.16 623.73 1880.62 624.156C1881.07 624.578 1881.43 625.136 1881.7 625.832C1881.97 626.528 1882.11 627.385 1882.11 628.403V629.114H1873.7V627.665H1880.4C1880.4 627.049 1880.28 626.5 1880.04 626.017C1879.79 625.534 1879.45 625.153 1879 624.874C1878.55 624.594 1878.03 624.455 1877.42 624.455C1876.75 624.455 1876.18 624.62 1875.69 624.952C1875.21 625.278 1874.83 625.705 1874.57 626.23C1874.31 626.756 1874.18 627.319 1874.18 627.92V628.886C1874.18 629.71 1874.33 630.409 1874.61 630.982C1874.9 631.55 1875.3 631.983 1875.81 632.281C1876.32 632.575 1876.92 632.722 1877.59 632.722C1878.03 632.722 1878.43 632.66 1878.79 632.537C1879.15 632.409 1879.46 632.22 1879.72 631.969C1879.98 631.713 1880.18 631.396 1880.32 631.017L1881.94 631.472C1881.77 632.021 1881.48 632.504 1881.08 632.92C1880.68 633.332 1880.18 633.654 1879.59 633.886C1879 634.114 1878.33 634.227 1877.59 634.227ZM1889.09 634.227C1888.07 634.227 1887.19 633.986 1886.45 633.503C1885.71 633.02 1885.14 632.355 1884.74 631.507C1884.35 630.66 1884.15 629.691 1884.15 628.602C1884.15 627.494 1884.35 626.517 1884.76 625.669C1885.17 624.817 1885.74 624.152 1886.48 623.673C1887.22 623.19 1888.08 622.949 1889.06 622.949C1889.83 622.949 1890.52 623.091 1891.14 623.375C1891.75 623.659 1892.26 624.057 1892.65 624.568C1893.04 625.08 1893.29 625.676 1893.38 626.358H1891.7C1891.58 625.861 1891.29 625.42 1890.85 625.037C1890.42 624.649 1889.83 624.455 1889.09 624.455C1888.44 624.455 1887.86 624.625 1887.37 624.966C1886.88 625.302 1886.5 625.778 1886.23 626.393C1885.96 627.004 1885.82 627.722 1885.82 628.545C1885.82 629.388 1885.96 630.122 1886.22 630.747C1886.49 631.372 1886.87 631.857 1887.36 632.203C1887.85 632.549 1888.43 632.722 1889.09 632.722C1889.53 632.722 1889.92 632.646 1890.28 632.494C1890.63 632.343 1890.93 632.125 1891.18 631.841C1891.43 631.557 1891.6 631.216 1891.7 630.818H1893.38C1893.29 631.462 1893.05 632.042 1892.68 632.558C1892.31 633.07 1891.82 633.477 1891.21 633.78C1890.6 634.078 1889.9 634.227 1889.09 634.227ZM1900.58 623.091V624.511H1894.92V623.091H1900.58ZM1896.57 620.477H1898.25V630.875C1898.25 631.348 1898.31 631.704 1898.45 631.94C1898.59 632.172 1898.77 632.329 1898.99 632.409C1899.21 632.485 1899.45 632.523 1899.69 632.523C1899.88 632.523 1900.03 632.513 1900.15 632.494C1900.27 632.471 1900.36 632.452 1900.43 632.438L1900.77 633.943C1900.66 633.986 1900.5 634.028 1900.3 634.071C1900.09 634.118 1899.84 634.142 1899.52 634.142C1899.05 634.142 1898.59 634.04 1898.13 633.837C1897.68 633.633 1897.31 633.323 1897.01 632.906C1896.72 632.49 1896.57 631.964 1896.57 631.33V620.477ZM1910.63 625.534L1909.12 625.96C1909.03 625.709 1908.89 625.465 1908.7 625.229C1908.52 624.987 1908.28 624.788 1907.97 624.632C1907.65 624.476 1907.25 624.398 1906.76 624.398C1906.1 624.398 1905.54 624.552 1905.1 624.859C1904.66 625.162 1904.44 625.548 1904.44 626.017C1904.44 626.434 1904.59 626.763 1904.89 627.004C1905.19 627.246 1905.67 627.447 1906.31 627.608L1907.93 628.006C1908.91 628.242 1909.63 628.605 1910.11 629.092C1910.59 629.575 1910.83 630.198 1910.83 630.96C1910.83 631.585 1910.65 632.144 1910.29 632.636C1909.93 633.129 1909.44 633.517 1908.8 633.801C1908.16 634.085 1907.41 634.227 1906.57 634.227C1905.45 634.227 1904.53 633.986 1903.8 633.503C1903.07 633.02 1902.61 632.314 1902.42 631.386L1904.01 630.989C1904.16 631.576 1904.45 632.016 1904.87 632.31C1905.29 632.603 1905.85 632.75 1906.54 632.75C1907.32 632.75 1907.94 632.584 1908.4 632.253C1908.86 631.917 1909.09 631.514 1909.09 631.045C1909.09 630.667 1908.96 630.349 1908.7 630.094C1908.43 629.833 1908.02 629.639 1907.48 629.511L1905.66 629.085C1904.66 628.848 1903.92 628.482 1903.46 627.984C1902.99 627.482 1902.76 626.855 1902.76 626.102C1902.76 625.487 1902.93 624.942 1903.28 624.469C1903.63 623.995 1904.1 623.624 1904.71 623.354C1905.31 623.084 1906 622.949 1906.76 622.949C1907.84 622.949 1908.69 623.186 1909.31 623.659C1909.93 624.133 1910.37 624.758 1910.63 625.534Z" fill="white"/>
<path d="M1836.76 707V692.455H1838.52V698.932H1846.28V692.455H1848.04V707H1846.28V700.494H1838.52V707H1836.76ZM1855.77 707.227C1854.79 707.227 1853.92 706.993 1853.18 706.524C1852.44 706.055 1851.86 705.4 1851.45 704.557C1851.03 703.714 1850.83 702.729 1850.83 701.602C1850.83 700.466 1851.03 699.474 1851.45 698.626C1851.86 697.779 1852.44 697.121 1853.18 696.652C1853.92 696.183 1854.79 695.949 1855.77 695.949C1856.76 695.949 1857.62 696.183 1858.36 696.652C1859.1 697.121 1859.68 697.779 1860.09 698.626C1860.51 699.474 1860.71 700.466 1860.71 701.602C1860.71 702.729 1860.51 703.714 1860.09 704.557C1859.68 705.4 1859.1 706.055 1858.36 706.524C1857.62 706.993 1856.76 707.227 1855.77 707.227ZM1855.77 705.722C1856.52 705.722 1857.13 705.53 1857.62 705.146C1858.1 704.763 1858.46 704.259 1858.69 703.634C1858.92 703.009 1859.04 702.331 1859.04 701.602C1859.04 700.873 1858.92 700.194 1858.69 699.564C1858.46 698.934 1858.1 698.425 1857.62 698.037C1857.13 697.649 1856.52 697.455 1855.77 697.455C1855.02 697.455 1854.41 697.649 1853.92 698.037C1853.44 698.425 1853.08 698.934 1852.85 699.564C1852.62 700.194 1852.5 700.873 1852.5 701.602C1852.5 702.331 1852.62 703.009 1852.85 703.634C1853.08 704.259 1853.44 704.763 1853.92 705.146C1854.41 705.53 1855.02 705.722 1855.77 705.722ZM1863.5 707V692.455H1865.18V697.824H1865.32C1865.44 697.634 1865.61 697.393 1865.83 697.099C1866.05 696.801 1866.37 696.536 1866.78 696.304C1867.2 696.067 1867.76 695.949 1868.47 695.949C1869.39 695.949 1870.2 696.179 1870.9 696.638C1871.6 697.097 1872.15 697.748 1872.54 698.591C1872.93 699.434 1873.13 700.428 1873.13 701.574C1873.13 702.729 1872.93 703.731 1872.54 704.578C1872.15 705.421 1871.6 706.074 1870.91 706.538C1870.21 706.998 1869.41 707.227 1868.5 707.227C1867.8 707.227 1867.24 707.111 1866.82 706.879C1866.4 706.643 1866.07 706.375 1865.84 706.077C1865.62 705.774 1865.44 705.523 1865.32 705.324H1865.12V707H1863.5ZM1865.15 701.545C1865.15 702.369 1865.27 703.096 1865.51 703.726C1865.75 704.351 1866.1 704.841 1866.57 705.196C1867.03 705.546 1867.6 705.722 1868.27 705.722C1868.97 705.722 1869.56 705.537 1870.03 705.168C1870.5 704.794 1870.86 704.292 1871.09 703.662C1871.33 703.027 1871.45 702.322 1871.45 701.545C1871.45 700.778 1871.34 700.087 1871.1 699.472C1870.87 698.851 1870.51 698.361 1870.04 698.001C1869.57 697.637 1868.98 697.455 1868.27 697.455C1867.59 697.455 1867.02 697.627 1866.55 697.973C1866.09 698.314 1865.74 698.792 1865.5 699.408C1865.27 700.018 1865.15 700.731 1865.15 701.545ZM1875.92 707V692.455H1877.6V697.824H1877.74C1877.86 697.634 1878.03 697.393 1878.25 697.099C1878.47 696.801 1878.79 696.536 1879.2 696.304C1879.62 696.067 1880.18 695.949 1880.89 695.949C1881.81 695.949 1882.62 696.179 1883.32 696.638C1884.02 697.097 1884.57 697.748 1884.96 698.591C1885.36 699.434 1885.55 700.428 1885.55 701.574C1885.55 702.729 1885.36 703.731 1884.96 704.578C1884.57 705.421 1884.03 706.074 1883.33 706.538C1882.63 706.998 1881.83 707.227 1880.92 707.227C1880.22 707.227 1879.66 707.111 1879.24 706.879C1878.82 706.643 1878.49 706.375 1878.27 706.077C1878.04 705.774 1877.86 705.523 1877.74 705.324H1877.54V707H1875.92ZM1877.57 701.545C1877.57 702.369 1877.69 703.096 1877.93 703.726C1878.17 704.351 1878.53 704.841 1878.99 705.196C1879.45 705.546 1880.02 705.722 1880.69 705.722C1881.4 705.722 1881.98 705.537 1882.45 705.168C1882.92 704.794 1883.28 704.292 1883.51 703.662C1883.76 703.027 1883.88 702.322 1883.88 701.545C1883.88 700.778 1883.76 700.087 1883.52 699.472C1883.29 698.851 1882.94 698.361 1882.46 698.001C1881.99 697.637 1881.4 697.455 1880.69 697.455C1880.01 697.455 1879.44 697.627 1878.98 697.973C1878.51 698.314 1878.16 698.792 1877.92 699.408C1877.69 700.018 1877.57 700.731 1877.57 701.545ZM1888.12 707V696.091H1889.79V707H1888.12ZM1888.97 694.273C1888.64 694.273 1888.36 694.161 1888.12 693.939C1887.89 693.716 1887.78 693.449 1887.78 693.136C1887.78 692.824 1887.89 692.556 1888.12 692.334C1888.36 692.111 1888.64 692 1888.97 692C1889.3 692 1889.57 692.111 1889.81 692.334C1890.04 692.556 1890.16 692.824 1890.16 693.136C1890.16 693.449 1890.04 693.716 1889.81 693.939C1889.57 694.161 1889.3 694.273 1888.97 694.273ZM1897.44 707.227C1896.38 707.227 1895.48 706.995 1894.72 706.531C1893.96 706.062 1893.37 705.409 1892.96 704.571C1892.55 703.728 1892.35 702.748 1892.35 701.631C1892.35 700.513 1892.55 699.528 1892.96 698.676C1893.37 697.819 1893.95 697.152 1894.68 696.673C1895.42 696.19 1896.28 695.949 1897.27 695.949C1897.83 695.949 1898.39 696.044 1898.95 696.233C1899.5 696.422 1900.01 696.73 1900.46 697.156C1900.92 697.578 1901.28 698.136 1901.55 698.832C1901.82 699.528 1901.95 700.385 1901.95 701.403V702.114H1893.54V700.665H1900.25C1900.25 700.049 1900.13 699.5 1899.88 699.017C1899.64 698.534 1899.29 698.153 1898.84 697.874C1898.4 697.594 1897.87 697.455 1897.27 697.455C1896.6 697.455 1896.02 697.62 1895.53 697.952C1895.05 698.278 1894.68 698.705 1894.42 699.23C1894.16 699.756 1894.03 700.319 1894.03 700.92V701.886C1894.03 702.71 1894.17 703.409 1894.45 703.982C1894.74 704.55 1895.14 704.983 1895.65 705.281C1896.16 705.575 1896.76 705.722 1897.44 705.722C1897.88 705.722 1898.27 705.66 1898.63 705.537C1898.99 705.409 1899.3 705.22 1899.56 704.969C1899.82 704.713 1900.02 704.396 1900.16 704.017L1901.78 704.472C1901.61 705.021 1901.33 705.504 1900.92 705.92C1900.52 706.332 1900.02 706.654 1899.43 706.886C1898.84 707.114 1898.17 707.227 1897.44 707.227ZM1912.23 698.534L1910.72 698.96C1910.63 698.709 1910.49 698.465 1910.31 698.229C1910.13 697.987 1909.88 697.788 1909.57 697.632C1909.25 697.476 1908.85 697.398 1908.37 697.398C1907.7 697.398 1907.14 697.552 1906.7 697.859C1906.26 698.162 1906.04 698.548 1906.04 699.017C1906.04 699.434 1906.19 699.763 1906.49 700.004C1906.79 700.246 1907.27 700.447 1907.91 700.608L1909.53 701.006C1910.51 701.242 1911.23 701.605 1911.71 702.092C1912.19 702.575 1912.43 703.198 1912.43 703.96C1912.43 704.585 1912.25 705.144 1911.89 705.636C1911.53 706.129 1911.04 706.517 1910.4 706.801C1909.76 707.085 1909.02 707.227 1908.17 707.227C1907.05 707.227 1906.13 706.986 1905.4 706.503C1904.68 706.02 1904.21 705.314 1904.02 704.386L1905.61 703.989C1905.76 704.576 1906.05 705.016 1906.47 705.31C1906.9 705.603 1907.45 705.75 1908.14 705.75C1908.92 705.75 1909.54 705.584 1910 705.253C1910.46 704.917 1910.7 704.514 1910.7 704.045C1910.7 703.667 1910.56 703.349 1910.3 703.094C1910.03 702.833 1909.63 702.639 1909.08 702.511L1907.26 702.085C1906.26 701.848 1905.53 701.482 1905.06 700.984C1904.59 700.482 1904.36 699.855 1904.36 699.102C1904.36 698.487 1904.53 697.942 1904.88 697.469C1905.23 696.995 1905.71 696.624 1906.31 696.354C1906.91 696.084 1907.6 695.949 1908.37 695.949C1909.45 695.949 1910.29 696.186 1910.91 696.659C1911.53 697.133 1911.97 697.758 1912.23 698.534Z" fill="white"/>
<path d="M2007 130L1998 121L2007 112" stroke="#FFFCE2" stroke-width="2"/>
<path d="M2016 130L2007 121L2016 112" stroke="#FFFCE2" stroke-width="2"/>
<path d="M1836.76 129V114.455H1838.52V120.932H1846.28V114.455H1848.04V129H1846.28V122.494H1838.52V129H1836.76ZM1855.77 129.227C1854.79 129.227 1853.92 128.993 1853.18 128.524C1852.44 128.055 1851.86 127.4 1851.45 126.557C1851.03 125.714 1850.83 124.729 1850.83 123.602C1850.83 122.466 1851.03 121.474 1851.45 120.626C1851.86 119.779 1852.44 119.121 1853.18 118.652C1853.92 118.183 1854.79 117.949 1855.77 117.949C1856.76 117.949 1857.62 118.183 1858.36 118.652C1859.1 119.121 1859.68 119.779 1860.09 120.626C1860.51 121.474 1860.71 122.466 1860.71 123.602C1860.71 124.729 1860.51 125.714 1860.09 126.557C1859.68 127.4 1859.1 128.055 1858.36 128.524C1857.62 128.993 1856.76 129.227 1855.77 129.227ZM1855.77 127.722C1856.52 127.722 1857.13 127.53 1857.62 127.146C1858.1 126.763 1858.46 126.259 1858.69 125.634C1858.92 125.009 1859.04 124.331 1859.04 123.602C1859.04 122.873 1858.92 122.194 1858.69 121.564C1858.46 120.934 1858.1 120.425 1857.62 120.037C1857.13 119.649 1856.52 119.455 1855.77 119.455C1855.02 119.455 1854.41 119.649 1853.92 120.037C1853.44 120.425 1853.08 120.934 1852.85 121.564C1852.62 122.194 1852.5 122.873 1852.5 123.602C1852.5 124.331 1852.62 125.009 1852.85 125.634C1853.08 126.259 1853.44 126.763 1853.92 127.146C1854.41 127.53 1855.02 127.722 1855.77 127.722ZM1863.27 129V118.091H1864.89V119.795H1865.03C1865.26 119.213 1865.63 118.761 1866.13 118.439C1866.64 118.112 1867.25 117.949 1867.96 117.949C1868.68 117.949 1869.28 118.112 1869.76 118.439C1870.24 118.761 1870.62 119.213 1870.89 119.795H1871C1871.28 119.232 1871.7 118.785 1872.26 118.453C1872.82 118.117 1873.49 117.949 1874.27 117.949C1875.24 117.949 1876.04 118.254 1876.66 118.865C1877.28 119.471 1877.59 120.416 1877.59 121.699V129H1875.91V121.699C1875.91 120.894 1875.69 120.319 1875.25 119.973C1874.81 119.627 1874.3 119.455 1873.7 119.455C1872.93 119.455 1872.34 119.687 1871.92 120.151C1871.49 120.61 1871.28 121.192 1871.28 121.898V129H1869.58V121.528C1869.58 120.908 1869.38 120.409 1868.98 120.03C1868.57 119.646 1868.05 119.455 1867.42 119.455C1866.98 119.455 1866.58 119.571 1866.2 119.803C1865.82 120.035 1865.52 120.357 1865.29 120.768C1865.06 121.176 1864.95 121.647 1864.95 122.182V129H1863.27ZM1885.23 129.227C1884.18 129.227 1883.27 128.995 1882.51 128.531C1881.75 128.062 1881.17 127.409 1880.75 126.571C1880.35 125.728 1880.14 124.748 1880.14 123.631C1880.14 122.513 1880.35 121.528 1880.75 120.676C1881.17 119.819 1881.74 119.152 1882.47 118.673C1883.21 118.19 1884.07 117.949 1885.06 117.949C1885.63 117.949 1886.19 118.044 1886.74 118.233C1887.3 118.422 1887.8 118.73 1888.25 119.156C1888.71 119.578 1889.07 120.136 1889.34 120.832C1889.61 121.528 1889.75 122.385 1889.75 123.403V124.114H1881.34V122.665H1888.04C1888.04 122.049 1887.92 121.5 1887.67 121.017C1887.43 120.534 1887.09 120.153 1886.64 119.874C1886.19 119.594 1885.66 119.455 1885.06 119.455C1884.39 119.455 1883.81 119.62 1883.33 119.952C1882.84 120.278 1882.47 120.705 1882.21 121.23C1881.95 121.756 1881.82 122.319 1881.82 122.92V123.886C1881.82 124.71 1881.96 125.409 1882.25 125.982C1882.53 126.55 1882.94 126.983 1883.45 127.281C1883.96 127.575 1884.55 127.722 1885.23 127.722C1885.67 127.722 1886.07 127.66 1886.42 127.537C1886.78 127.409 1887.09 127.22 1887.35 126.969C1887.61 126.713 1887.81 126.396 1887.96 126.017L1889.58 126.472C1889.41 127.021 1889.12 127.504 1888.72 127.92C1888.31 128.332 1887.82 128.654 1887.22 128.886C1886.63 129.114 1885.97 129.227 1885.23 129.227Z" fill="white"/>
<line x1="1" y1="177" x2="1" stroke="white" stroke-width="2"/>
<line x1="2" y1="1" x2="1790" y2="1" stroke="white" stroke-width="2"/>
<path d="M1788.29 36.7071C1788.68 37.0976 1789.32 37.0976 1789.71 36.7071L1796.07 30.3431C1796.46 29.9526 1796.46 29.3195 1796.07 28.9289C1795.68 28.5384 1795.05 28.5384 1794.66 28.9289L1789 34.5858L1783.34 28.9289C1782.95 28.5384 1782.32 28.5384 1781.93 28.9289C1781.54 29.3195 1781.54 29.9526 1781.93 30.3431L1788.29 36.7071ZM1788 2V36H1790V2H1788Z" fill="white"/>
<line x1="2" y1="176" x2="15" y2="176" stroke="white" stroke-width="2"/>
</svg>
