<svg width="64" height="64" viewBox="0 0 64 64" fill="none" xmlns="http://www.w3.org/2000/svg">
<circle cx="32" cy="32" r="32" fill="#FFFCE2"/>
<circle cx="32" cy="32" r="30.8" fill="#161A4A"/>
<path d="M55.5 32C55.5 43.8341 45.0205 53.5 32 53.5C18.9795 53.5 8.5 43.8341 8.5 32C8.5 20.1659 18.9795 10.5 32 10.5C45.0205 10.5 55.5 20.1659 55.5 32Z" fill="#C08552" stroke="black"/>
<path d="M46.7 32C46.7 34.8963 45.1078 37.5597 42.4514 39.5171C39.7952 41.4743 36.1017 42.7 32 42.7C27.8983 42.7 24.2048 41.4743 21.5486 39.5171C18.8921 37.5597 17.3 34.8963 17.3 32C17.3 29.1037 18.8921 26.4403 21.5486 24.4829C24.2048 22.5257 27.8983 21.3 32 21.3C36.1017 21.3 39.7952 22.5257 42.4514 24.4829C45.1078 26.4403 46.7 29.1037 46.7 32Z" fill="#161A4A" stroke="black"/>
<rect x="33.2" y="18.4" width="7.6" height="26" fill="#C08552"/>
<rect x="30.8" y="7.2" width="2.4" height="49.2" fill="#161A4A"/>
<line x1="41.3" y1="23.2" x2="41.3" y2="40.8" stroke="black"/>
<line x1="33.7" y1="10.4" x2="33.7" y2="53.6" stroke="black"/>
<line x1="33.7" y1="10.4" x2="33.7" y2="53.6" stroke="black"/>
<line x1="30.9" y1="42.8" x2="30.9" y2="53.6" stroke="black"/>
<line x1="30.9" y1="42.8" x2="30.9" y2="53.6" stroke="black"/>
<line x1="30.9" y1="10.4" x2="30.9" y2="21.2" stroke="black"/>
</svg>
