<svg width="162" height="162" viewBox="0 0 162 162" fill="none" xmlns="http://www.w3.org/2000/svg">
<path d="M103.5 59V103M84.5 27V135M77.5 108V135M77.5 27V54M161 81C161 125.183 125.183 161 81 161C36.8172 161 1 125.183 1 81C1 36.8172 36.8172 1 81 1C125.183 1 161 36.8172 161 81ZM158 81C158 123.526 123.526 158 81 158C38.4741 158 4 123.526 4 81C4 38.4741 38.4741 4 81 4C123.526 4 158 38.4741 158 81ZM141 81C141 111.376 114.137 136 81 136C47.8629 136 21 111.376 21 81C21 50.6243 47.8629 26 81 26C114.137 26 141 50.6243 141 81ZM119 81C119 96.464 101.987 109 81 109C60.0132 109 43 96.464 43 81C43 65.536 60.0132 53 81 53C101.987 53 119 65.536 119 81ZM84 47H103V112H84V47ZM78 19H84V142H78V19Z" stroke="black"/>
</svg>
