<svg width="1200" height="720" viewBox="0 0 1200 720" fill="none" xmlns="http://www.w3.org/2000/svg">
<path d="M40 0L0 40V1.92711e-05L40 0Z" fill="#FFFCE2"/>
<path d="M0 40L40 0V40L0 40Z" fill="#FFFCE2"/>
<path d="M0 40L40 80H1.91221e-05L0 40Z" fill="#FFFCE2"/>
<path d="M80 40L40 0L80 1.49012e-07L80 40Z" fill="#FFFCE2"/>
<path d="M80 40L40 80V40L80 40Z" fill="#FFFCE2"/>
<path d="M40 80L80 40V80L40 80Z" fill="#DFE2F5"/>
<path d="M40 80L0 40L40 40V80Z" fill="#EBEEF8"/>
<path d="M40 0L80 40L40 40V0Z" fill="#EBEEF8"/>
<path d="M120 80L80 120V80L120 80Z" fill="#DFE2F5"/>
<path d="M40 80L80 120H40L40 80Z" fill="#FCF1CD"/>
<path d="M40 120L1.91221e-05 80H40L40 120Z" fill="#FCF1CD"/>
<path d="M1.91221e-05 80L40 120H1.91221e-05V80Z" fill="#FFFCE2"/>
<path d="M120 80L80 40H120L120 80Z" fill="#FCF1CD"/>
<path d="M80 1.49012e-07L120 40H80L80 1.49012e-07Z" fill="#FCF1CD"/>
<path d="M120 40L80 1.49012e-07H120V40Z" fill="#FFFCE2"/>
<path d="M80 120L40 80L80 80V120Z" fill="#FFFCE2"/>
<path d="M80 40L120 80L80 80V40Z" fill="#FFFCE2"/>
<path d="M0 200L40 240H1.92711e-05L0 200Z" fill="#FFFCE2"/>
<path d="M40 240L0 200H40L40 240Z" fill="#FFFCE2"/>
<path d="M40 240L80 200V240L40 240Z" fill="#FFFCE2"/>
<path d="M40 160L0 200L1.49012e-07 160L40 160Z" fill="#FFFCE2"/>
<path d="M40 160L80 200H40L40 160Z" fill="#FFFCE2"/>
<path d="M80 200L40 160H80L80 200Z" fill="#DFE2F5"/>
<path d="M80 200L40 240L40 200H80Z" fill="#EBEEF8"/>
<path d="M0 200L40 160L40 200H0Z" fill="#EBEEF8"/>
<path d="M80 120L120 160H80L80 120Z" fill="#DFE2F5"/>
<path d="M80 200L120 160V200L80 200Z" fill="#FCF1CD"/>
<path d="M120 200L80 240V200L120 200Z" fill="#FCF1CD"/>
<path d="M80 240L120 200V240H80Z" fill="#FFFCE2"/>
<path d="M80 120L40 160L40 120H80Z" fill="#FCF1CD"/>
<path d="M1.49012e-07 160L40 120L40 160L1.49012e-07 160Z" fill="#FCF1CD"/>
<path d="M40 120L1.49012e-07 160L1.91221e-05 120H40Z" fill="#FFFCE2"/>
<path d="M120 160L80 200L80 160H120Z" fill="#FFFCE2"/>
<path d="M40 160L80 120L80 160H40Z" fill="#FFFCE2"/>
<path d="M200 240L240 200V240L200 240Z" fill="#FFFCE2"/>
<path d="M240 200L200 240V200L240 200Z" fill="#FFFCE2"/>
<path d="M240 200L200 160H240L240 200Z" fill="#FFFCE2"/>
<path d="M160 200L200 240H160L160 200Z" fill="#FFFCE2"/>
<path d="M160 200L200 160V200L160 200Z" fill="#FFFCE2"/>
<path d="M200 160L160 200V160L200 160Z" fill="#DFE2F5"/>
<path d="M200 160L240 200L200 200V160Z" fill="#EBEEF8"/>
<path d="M200 240L160 200L200 200V240Z" fill="#EBEEF8"/>
<path d="M120 160L160 120V160L120 160Z" fill="#DFE2F5"/>
<path d="M200 160L160 120H200L200 160Z" fill="#FCF1CD"/>
<path d="M200 120L240 160H200L200 120Z" fill="#FCF1CD"/>
<path d="M240 160L200 120H240V160Z" fill="#FFFCE2"/>
<path d="M120 160L160 200L120 200V160Z" fill="#FCF1CD"/>
<path d="M160 240L120 200L160 200L160 240Z" fill="#FCF1CD"/>
<path d="M120 200L160 240L120 240V200Z" fill="#FFFCE2"/>
<path d="M160 120L200 160L160 160V120Z" fill="#FFFCE2"/>
<path d="M160 200L120 160L160 160V200Z" fill="#FFFCE2"/>
<path d="M240 40L200 0H240L240 40Z" fill="#FFFCE2"/>
<path d="M200 0L240 40H200L200 0Z" fill="#FFFCE2"/>
<path d="M200 0L160 40V1.91221e-05L200 0Z" fill="#FFFCE2"/>
<path d="M200 80L240 40V80L200 80Z" fill="#FFFCE2"/>
<path d="M200 80L160 40H200L200 80Z" fill="#FFFCE2"/>
<path d="M160 40L200 80H160L160 40Z" fill="#DFE2F5"/>
<path d="M160 40L200 0L200 40H160Z" fill="#EBEEF8"/>
<path d="M240 40L200 80L200 40H240Z" fill="#EBEEF8"/>
<path d="M160 120L120 80H160L160 120Z" fill="#DFE2F5"/>
<path d="M160 40L120 80L120 40H160Z" fill="#FCF1CD"/>
<path d="M120 40L160 1.91221e-05V40H120Z" fill="#FCF1CD"/>
<path d="M160 1.91221e-05L120 40V1.49012e-07L160 1.91221e-05Z" fill="#FFFCE2"/>
<path d="M160 120L200 80L200 120H160Z" fill="#FCF1CD"/>
<path d="M240 80L200 120L200 80L240 80Z" fill="#FCF1CD"/>
<path d="M200 120L240 80L240 120H200Z" fill="#FFFCE2"/>
<path d="M120 80L160 40L160 80H120Z" fill="#FFFCE2"/>
<path d="M200 80L160 120L160 80H200Z" fill="#FFFCE2"/>
<path d="M120 160L80 120H120L120 160Z" fill="#EBEEF8"/>
<path d="M120 80L160 120H120L120 80Z" fill="#EBEEF8"/>
<path d="M80 120L120 80L120 120H80Z" fill="#FFFCE2"/>
<path d="M160 120L120 160L120 120H160Z" fill="#FFFCE2"/>
<path d="M40 480L0 520V480L40 480Z" fill="#FFFCE2"/>
<path d="M0 520L40 480V520H0Z" fill="#FFFCE2"/>
<path d="M0 520L40 560H1.91221e-05L0 520Z" fill="#FFFCE2"/>
<path d="M80 520L40 480H80L80 520Z" fill="#FFFCE2"/>
<path d="M80 520L40 560V520H80Z" fill="#FFFCE2"/>
<path d="M40 560L80 520V560H40Z" fill="#DFE2F5"/>
<path d="M40 560L0 520H40V560Z" fill="#EBEEF8"/>
<path d="M40 480L80 520H40V480Z" fill="#EBEEF8"/>
<path d="M120 560L80 600V560H120Z" fill="#DFE2F5"/>
<path d="M40 560L80 600H40L40 560Z" fill="#FCF1CD"/>
<path d="M40 600L1.91221e-05 560H40L40 600Z" fill="#FCF1CD"/>
<path d="M1.91221e-05 560L40 600H1.91221e-05V560Z" fill="#FFFCE2"/>
<path d="M120 560L80 520H120L120 560Z" fill="#FCF1CD"/>
<path d="M80 480L120 520H80L80 480Z" fill="#FCF1CD"/>
<path d="M120 520L80 480H120V520Z" fill="#FFFCE2"/>
<path d="M80 600L40 560H80V600Z" fill="#FFFCE2"/>
<path d="M80 520L120 560H80V520Z" fill="#FFFCE2"/>
<path d="M0 680L40 720H1.92711e-05L0 680Z" fill="#FFFCE2"/>
<path d="M40 720L0 680H40L40 720Z" fill="#FFFCE2"/>
<path d="M40 720L80 680V720H40Z" fill="#FFFCE2"/>
<path d="M40 640L0 680L1.49012e-07 640H40Z" fill="#FFFCE2"/>
<path d="M40 640L80 680H40L40 640Z" fill="#FFFCE2"/>
<path d="M80 680L40 640H80L80 680Z" fill="#DFE2F5"/>
<path d="M80 680L40 720L40 680H80Z" fill="#EBEEF8"/>
<path d="M0 680L40 640L40 680H0Z" fill="#EBEEF8"/>
<path d="M80 600L120 640H80L80 600Z" fill="#DFE2F5"/>
<path d="M80 680L120 640V680H80Z" fill="#FCF1CD"/>
<path d="M120 680L80 720V680H120Z" fill="#FCF1CD"/>
<path d="M80 720L120 680V720H80Z" fill="#FFFCE2"/>
<path d="M80 600L40 640L40 600H80Z" fill="#FCF1CD"/>
<path d="M1.49012e-07 640L40 600L40 640H1.49012e-07Z" fill="#FCF1CD"/>
<path d="M40 600L1.49012e-07 640L1.91221e-05 600H40Z" fill="#FFFCE2"/>
<path d="M120 640L80 680L80 640H120Z" fill="#FFFCE2"/>
<path d="M40 640L80 600L80 640H40Z" fill="#FFFCE2"/>
<path d="M200 720L240 680V720H200Z" fill="#FFFCE2"/>
<path d="M240 680L200 720V680H240Z" fill="#FFFCE2"/>
<path d="M240 680L200 640H240L240 680Z" fill="#FFFCE2"/>
<path d="M160 680L200 720H160L160 680Z" fill="#FFFCE2"/>
<path d="M160 680L200 640V680H160Z" fill="#FFFCE2"/>
<path d="M200 640L160 680V640H200Z" fill="#DFE2F5"/>
<path d="M200 640L240 680H200V640Z" fill="#EBEEF8"/>
<path d="M200 720L160 680H200V720Z" fill="#EBEEF8"/>
<path d="M120 640L160 600V640H120Z" fill="#DFE2F5"/>
<path d="M200 640L160 600H200L200 640Z" fill="#FCF1CD"/>
<path d="M200 600L240 640H200L200 600Z" fill="#FCF1CD"/>
<path d="M240 640L200 600H240V640Z" fill="#FFFCE2"/>
<path d="M120 640L160 680H120V640Z" fill="#FCF1CD"/>
<path d="M160 720L120 680H160L160 720Z" fill="#FCF1CD"/>
<path d="M120 680L160 720H120V680Z" fill="#FFFCE2"/>
<path d="M160 600L200 640H160V600Z" fill="#FFFCE2"/>
<path d="M160 680L120 640H160V680Z" fill="#FFFCE2"/>
<path d="M240 520L200 480H240L240 520Z" fill="#FFFCE2"/>
<path d="M200 480L240 520H200L200 480Z" fill="#FFFCE2"/>
<path d="M200 480L160 520V480L200 480Z" fill="#FFFCE2"/>
<path d="M200 560L240 520V560H200Z" fill="#FFFCE2"/>
<path d="M200 560L160 520H200L200 560Z" fill="#FFFCE2"/>
<path d="M160 520L200 560H160L160 520Z" fill="#DFE2F5"/>
<path d="M160 520L200 480L200 520H160Z" fill="#EBEEF8"/>
<path d="M240 520L200 560L200 520H240Z" fill="#EBEEF8"/>
<path d="M160 600L120 560H160L160 600Z" fill="#DFE2F5"/>
<path d="M160 520L120 560L120 520H160Z" fill="#FCF1CD"/>
<path d="M120 520L160 480V520H120Z" fill="#FCF1CD"/>
<path d="M160 480L120 520V480L160 480Z" fill="#FFFCE2"/>
<path d="M160 600L200 560L200 600H160Z" fill="#FCF1CD"/>
<path d="M240 560L200 600L200 560H240Z" fill="#FCF1CD"/>
<path d="M200 600L240 560L240 600H200Z" fill="#FFFCE2"/>
<path d="M120 560L160 520L160 560H120Z" fill="#FFFCE2"/>
<path d="M200 560L160 600L160 560H200Z" fill="#FFFCE2"/>
<path d="M120 640L80 600H120L120 640Z" fill="#EBEEF8"/>
<path d="M120 560L160 600H120L120 560Z" fill="#EBEEF8"/>
<path d="M80 600L120 560L120 600H80Z" fill="#FFFCE2"/>
<path d="M160 600L120 640L120 600H160Z" fill="#FFFCE2"/>
<path d="M520 480L480 520V480L520 480Z" fill="#FFFCE2"/>
<path d="M480 520L520 480V520H480Z" fill="#FFFCE2"/>
<path d="M480 520L520 560H480L480 520Z" fill="#FFFCE2"/>
<path d="M560 520L520 480H560V520Z" fill="#FFFCE2"/>
<path d="M560 520L520 560V520H560Z" fill="#FFFCE2"/>
<path d="M520 560L560 520V560H520Z" fill="#DFE2F5"/>
<path d="M520 560L480 520H520V560Z" fill="#EBEEF8"/>
<path d="M520 480L560 520H520V480Z" fill="#EBEEF8"/>
<path d="M600 560L560 600V560H600Z" fill="#DFE2F5"/>
<path d="M520 560L560 600H520V560Z" fill="#FCF1CD"/>
<path d="M520 600L480 560H520V600Z" fill="#FCF1CD"/>
<path d="M480 560L520 600H480V560Z" fill="#FFFCE2"/>
<path d="M600 560L560 520H600V560Z" fill="#FCF1CD"/>
<path d="M560 480L600 520H560V480Z" fill="#FCF1CD"/>
<path d="M600 520L560 480H600V520Z" fill="#FFFCE2"/>
<path d="M560 600L520 560H560V600Z" fill="#FFFCE2"/>
<path d="M560 520L600 560H560V520Z" fill="#FFFCE2"/>
<path d="M480 680L520 720H480L480 680Z" fill="#FFFCE2"/>
<path d="M520 720L480 680H520V720Z" fill="#FFFCE2"/>
<path d="M520 720L560 680V720H520Z" fill="#FFFCE2"/>
<path d="M520 640L480 680V640H520Z" fill="#FFFCE2"/>
<path d="M520 640L560 680H520V640Z" fill="#FFFCE2"/>
<path d="M560 680L520 640H560V680Z" fill="#DFE2F5"/>
<path d="M560 680L520 720V680H560Z" fill="#EBEEF8"/>
<path d="M480 680L520 640V680H480Z" fill="#EBEEF8"/>
<path d="M560 600L600 640H560V600Z" fill="#DFE2F5"/>
<path d="M560 680L600 640V680H560Z" fill="#FCF1CD"/>
<path d="M600 680L560 720V680H600Z" fill="#FCF1CD"/>
<path d="M560 720L600 680V720H560Z" fill="#FFFCE2"/>
<path d="M560 600L520 640V600H560Z" fill="#FCF1CD"/>
<path d="M480 640L520 600V640H480Z" fill="#FCF1CD"/>
<path d="M520 600L480 640L480 600H520Z" fill="#FFFCE2"/>
<path d="M600 640L560 680V640H600Z" fill="#FFFCE2"/>
<path d="M520 640L560 600V640H520Z" fill="#FFFCE2"/>
<path d="M680 720L720 680V720H680Z" fill="#FFFCE2"/>
<path d="M720 680L680 720V680H720Z" fill="#FFFCE2"/>
<path d="M720 680L680 640H720V680Z" fill="#FFFCE2"/>
<path d="M640 680L680 720H640V680Z" fill="#FFFCE2"/>
<path d="M640 680L680 640V680H640Z" fill="#FFFCE2"/>
<path d="M680 640L640 680V640H680Z" fill="#DFE2F5"/>
<path d="M680 640L720 680H680V640Z" fill="#EBEEF8"/>
<path d="M680 720L640 680H680V720Z" fill="#EBEEF8"/>
<path d="M600 640L640 600V640H600Z" fill="#DFE2F5"/>
<path d="M680 640L640 600H680V640Z" fill="#FCF1CD"/>
<path d="M680 600L720 640H680V600Z" fill="#FCF1CD"/>
<path d="M720 640L680 600H720V640Z" fill="#FFFCE2"/>
<path d="M600 640L640 680H600V640Z" fill="#FCF1CD"/>
<path d="M640 720L600 680H640V720Z" fill="#FCF1CD"/>
<path d="M600 680L640 720H600V680Z" fill="#FFFCE2"/>
<path d="M640 600L680 640H640V600Z" fill="#FFFCE2"/>
<path d="M640 680L600 640H640V680Z" fill="#FFFCE2"/>
<path d="M720 520L680 480H720V520Z" fill="#FFFCE2"/>
<path d="M680 480L720 520H680V480Z" fill="#FFFCE2"/>
<path d="M680 480L640 520V480L680 480Z" fill="#FFFCE2"/>
<path d="M680 560L720 520V560H680Z" fill="#FFFCE2"/>
<path d="M680 560L640 520H680V560Z" fill="#FFFCE2"/>
<path d="M640 520L680 560H640V520Z" fill="#DFE2F5"/>
<path d="M640 520L680 480V520H640Z" fill="#EBEEF8"/>
<path d="M720 520L680 560V520H720Z" fill="#EBEEF8"/>
<path d="M640 600L600 560H640V600Z" fill="#DFE2F5"/>
<path d="M640 520L600 560V520H640Z" fill="#FCF1CD"/>
<path d="M600 520L640 480V520H600Z" fill="#FCF1CD"/>
<path d="M640 480L600 520V480L640 480Z" fill="#FFFCE2"/>
<path d="M640 600L680 560V600H640Z" fill="#FCF1CD"/>
<path d="M720 560L680 600V560H720Z" fill="#FCF1CD"/>
<path d="M680 600L720 560V600H680Z" fill="#FFFCE2"/>
<path d="M600 560L640 520V560H600Z" fill="#FFFCE2"/>
<path d="M680 560L640 600V560H680Z" fill="#FFFCE2"/>
<path d="M600 640L560 600H600V640Z" fill="#EBEEF8"/>
<path d="M600 560L640 600H600V560Z" fill="#EBEEF8"/>
<path d="M560 600L600 560V600H560Z" fill="#FFFCE2"/>
<path d="M640 600L600 640V600H640Z" fill="#FFFCE2"/>
<path d="M280 480L240 520L240 480H280Z" fill="#FFFCE2"/>
<path d="M240 520L280 480V520H240Z" fill="#FFFCE2"/>
<path d="M240 520L280 560H240V520Z" fill="#FFFCE2"/>
<path d="M320 520L280 480H320L320 520Z" fill="#FFFCE2"/>
<path d="M320 520L280 560V520H320Z" fill="#FFFCE2"/>
<path d="M280 560L320 520V560H280Z" fill="#DFE2F5"/>
<path d="M280 560L240 520H280V560Z" fill="#EBEEF8"/>
<path d="M280 480L320 520H280V480Z" fill="#EBEEF8"/>
<path d="M360 560L320 600V560H360Z" fill="#DFE2F5"/>
<path d="M280 560L320 600H280L280 560Z" fill="#FCF1CD"/>
<path d="M280 600L240 560H280L280 600Z" fill="#FCF1CD"/>
<path d="M240 560L280 600H240L240 560Z" fill="#FFFCE2"/>
<path d="M360 560L320 520H360L360 560Z" fill="#FCF1CD"/>
<path d="M320 480L360 520H320L320 480Z" fill="#FCF1CD"/>
<path d="M360 520L320 480H360V520Z" fill="#FFFCE2"/>
<path d="M320 600L280 560H320V600Z" fill="#FFFCE2"/>
<path d="M320 520L360 560H320V520Z" fill="#FFFCE2"/>
<path d="M240 680L280 720H240V680Z" fill="#FFFCE2"/>
<path d="M280 720L240 680H280L280 720Z" fill="#FFFCE2"/>
<path d="M280 720L320 680V720H280Z" fill="#FFFCE2"/>
<path d="M280 640L240 680L240 640H280Z" fill="#FFFCE2"/>
<path d="M280 640L320 680H280L280 640Z" fill="#FFFCE2"/>
<path d="M320 680L280 640H320L320 680Z" fill="#DFE2F5"/>
<path d="M320 680L280 720L280 680H320Z" fill="#EBEEF8"/>
<path d="M240 680L280 640L280 680H240Z" fill="#EBEEF8"/>
<path d="M320 600L360 640H320L320 600Z" fill="#DFE2F5"/>
<path d="M320 680L360 640V680H320Z" fill="#FCF1CD"/>
<path d="M360 680L320 720V680H360Z" fill="#FCF1CD"/>
<path d="M320 720L360 680V720H320Z" fill="#FFFCE2"/>
<path d="M320 600L280 640L280 600H320Z" fill="#FCF1CD"/>
<path d="M240 640L280 600L280 640H240Z" fill="#FCF1CD"/>
<path d="M280 600L240 640V600H280Z" fill="#FFFCE2"/>
<path d="M360 640L320 680L320 640H360Z" fill="#FFFCE2"/>
<path d="M280 640L320 600L320 640H280Z" fill="#FFFCE2"/>
<path d="M440 720L480 680L480 720H440Z" fill="#FFFCE2"/>
<path d="M480 680L440 720V680H480Z" fill="#FFFCE2"/>
<path d="M480 680L440 640H480V680Z" fill="#FFFCE2"/>
<path d="M400 680L440 720H400L400 680Z" fill="#FFFCE2"/>
<path d="M400 680L440 640V680H400Z" fill="#FFFCE2"/>
<path d="M440 640L400 680V640H440Z" fill="#DFE2F5"/>
<path d="M440 640L480 680H440V640Z" fill="#EBEEF8"/>
<path d="M440 720L400 680H440V720Z" fill="#EBEEF8"/>
<path d="M360 640L400 600V640H360Z" fill="#DFE2F5"/>
<path d="M440 640L400 600H440V640Z" fill="#FCF1CD"/>
<path d="M440 600L480 640H440V600Z" fill="#FCF1CD"/>
<path d="M480 640L440 600H480L480 640Z" fill="#FFFCE2"/>
<path d="M360 640L400 680H360V640Z" fill="#FCF1CD"/>
<path d="M400 720L360 680H400L400 720Z" fill="#FCF1CD"/>
<path d="M360 680L400 720H360V680Z" fill="#FFFCE2"/>
<path d="M400 600L440 640H400V600Z" fill="#FFFCE2"/>
<path d="M400 680L360 640H400V680Z" fill="#FFFCE2"/>
<path d="M480 520L440 480L480 480V520Z" fill="#FFFCE2"/>
<path d="M440 480L480 520H440V480Z" fill="#FFFCE2"/>
<path d="M440 480L400 520V480L440 480Z" fill="#FFFCE2"/>
<path d="M440 560L480 520L480 560H440Z" fill="#FFFCE2"/>
<path d="M440 560L400 520H440V560Z" fill="#FFFCE2"/>
<path d="M400 520L440 560H400L400 520Z" fill="#DFE2F5"/>
<path d="M400 520L440 480V520H400Z" fill="#EBEEF8"/>
<path d="M480 520L440 560V520H480Z" fill="#EBEEF8"/>
<path d="M400 600L360 560H400L400 600Z" fill="#DFE2F5"/>
<path d="M400 520L360 560L360 520H400Z" fill="#FCF1CD"/>
<path d="M360 520L400 480V520H360Z" fill="#FCF1CD"/>
<path d="M400 480L360 520V480L400 480Z" fill="#FFFCE2"/>
<path d="M400 600L440 560V600H400Z" fill="#FCF1CD"/>
<path d="M480 560L440 600V560H480Z" fill="#FCF1CD"/>
<path d="M440 600L480 560V600H440Z" fill="#FFFCE2"/>
<path d="M360 560L400 520L400 560H360Z" fill="#FFFCE2"/>
<path d="M440 560L400 600L400 560H440Z" fill="#FFFCE2"/>
<path d="M360 640L320 600H360L360 640Z" fill="#EBEEF8"/>
<path d="M360 560L400 600H360L360 560Z" fill="#EBEEF8"/>
<path d="M320 600L360 560L360 600H320Z" fill="#FFFCE2"/>
<path d="M400 600L360 640L360 600H400Z" fill="#FFFCE2"/>
<path d="M280 0L240 40L240 0H280Z" fill="#FFFCE2"/>
<path d="M240 40L280 0V40L240 40Z" fill="#FFFCE2"/>
<path d="M240 40L280 80L240 80V40Z" fill="#FFFCE2"/>
<path d="M320 40L280 0L320 1.49012e-07L320 40Z" fill="#FFFCE2"/>
<path d="M320 40L280 80V40L320 40Z" fill="#FFFCE2"/>
<path d="M280 80L320 40V80L280 80Z" fill="#DFE2F5"/>
<path d="M280 80L240 40L280 40V80Z" fill="#EBEEF8"/>
<path d="M280 0L320 40L280 40V0Z" fill="#EBEEF8"/>
<path d="M360 80L320 120V80L360 80Z" fill="#DFE2F5"/>
<path d="M280 80L320 120H280L280 80Z" fill="#FCF1CD"/>
<path d="M280 120L240 80L280 80L280 120Z" fill="#FCF1CD"/>
<path d="M240 80L280 120H240L240 80Z" fill="#FFFCE2"/>
<path d="M360 80L320 40H360L360 80Z" fill="#FCF1CD"/>
<path d="M320 1.49012e-07L360 40H320L320 1.49012e-07Z" fill="#FCF1CD"/>
<path d="M360 40L320 1.49012e-07H360V40Z" fill="#FFFCE2"/>
<path d="M320 120L280 80L320 80V120Z" fill="#FFFCE2"/>
<path d="M320 40L360 80L320 80V40Z" fill="#FFFCE2"/>
<path d="M240 200L280 240L240 240V200Z" fill="#FFFCE2"/>
<path d="M280 240L240 200H280L280 240Z" fill="#FFFCE2"/>
<path d="M280 240L320 200V240L280 240Z" fill="#FFFCE2"/>
<path d="M280 160L240 200L240 160H280Z" fill="#FFFCE2"/>
<path d="M280 160L320 200H280L280 160Z" fill="#FFFCE2"/>
<path d="M320 200L280 160H320L320 200Z" fill="#DFE2F5"/>
<path d="M320 200L280 240L280 200H320Z" fill="#EBEEF8"/>
<path d="M240 200L280 160L280 200H240Z" fill="#EBEEF8"/>
<path d="M320 120L360 160H320L320 120Z" fill="#DFE2F5"/>
<path d="M320 200L360 160V200L320 200Z" fill="#FCF1CD"/>
<path d="M360 200L320 240V200L360 200Z" fill="#FCF1CD"/>
<path d="M320 240L360 200V240H320Z" fill="#FFFCE2"/>
<path d="M320 120L280 160L280 120H320Z" fill="#FCF1CD"/>
<path d="M240 160L280 120L280 160H240Z" fill="#FCF1CD"/>
<path d="M280 120L240 160V120H280Z" fill="#FFFCE2"/>
<path d="M360 160L320 200L320 160H360Z" fill="#FFFCE2"/>
<path d="M280 160L320 120L320 160H280Z" fill="#FFFCE2"/>
<path d="M440 240L480 200V240L440 240Z" fill="#FFFCE2"/>
<path d="M480 200L440 240V200L480 200Z" fill="#FFFCE2"/>
<path d="M480 200L440 160H480V200Z" fill="#FFFCE2"/>
<path d="M400 200L440 240H400L400 200Z" fill="#FFFCE2"/>
<path d="M400 200L440 160V200L400 200Z" fill="#FFFCE2"/>
<path d="M440 160L400 200V160L440 160Z" fill="#DFE2F5"/>
<path d="M440 160L480 200L440 200V160Z" fill="#EBEEF8"/>
<path d="M440 240L400 200L440 200V240Z" fill="#EBEEF8"/>
<path d="M360 160L400 120V160L360 160Z" fill="#DFE2F5"/>
<path d="M440 160L400 120H440V160Z" fill="#FCF1CD"/>
<path d="M440 120L480 160H440V120Z" fill="#FCF1CD"/>
<path d="M480 160L440 120H480V160Z" fill="#FFFCE2"/>
<path d="M360 160L400 200L360 200V160Z" fill="#FCF1CD"/>
<path d="M400 240L360 200L400 200L400 240Z" fill="#FCF1CD"/>
<path d="M360 200L400 240L360 240V200Z" fill="#FFFCE2"/>
<path d="M400 120L440 160L400 160V120Z" fill="#FFFCE2"/>
<path d="M400 200L360 160L400 160V200Z" fill="#FFFCE2"/>
<path d="M480 40L440 0H480V40Z" fill="#FFFCE2"/>
<path d="M440 0L480 40H440V0Z" fill="#FFFCE2"/>
<path d="M440 0L400 40V1.91221e-05L440 0Z" fill="#FFFCE2"/>
<path d="M440 80L480 40V80L440 80Z" fill="#FFFCE2"/>
<path d="M440 80L400 40H440V80Z" fill="#FFFCE2"/>
<path d="M400 40L440 80H400L400 40Z" fill="#DFE2F5"/>
<path d="M400 40L440 0V40H400Z" fill="#EBEEF8"/>
<path d="M480 40L440 80V40H480Z" fill="#EBEEF8"/>
<path d="M400 120L360 80H400L400 120Z" fill="#DFE2F5"/>
<path d="M400 40L360 80L360 40H400Z" fill="#FCF1CD"/>
<path d="M360 40L400 1.91221e-05V40H360Z" fill="#FCF1CD"/>
<path d="M400 1.91221e-05L360 40V1.49012e-07L400 1.91221e-05Z" fill="#FFFCE2"/>
<path d="M400 120L440 80V120H400Z" fill="#FCF1CD"/>
<path d="M480 80L440 120V80L480 80Z" fill="#FCF1CD"/>
<path d="M440 120L480 80V120H440Z" fill="#FFFCE2"/>
<path d="M360 80L400 40L400 80H360Z" fill="#FFFCE2"/>
<path d="M440 80L400 120L400 80H440Z" fill="#FFFCE2"/>
<path d="M360 160L320 120H360L360 160Z" fill="#EBEEF8"/>
<path d="M360 80L400 120H360L360 80Z" fill="#EBEEF8"/>
<path d="M320 120L360 80L360 120H320Z" fill="#FFFCE2"/>
<path d="M400 120L360 160L360 120H400Z" fill="#FFFCE2"/>
<path d="M280 240L240 280V240L280 240Z" fill="#FFFCE2"/>
<path d="M240 280L280 240V280L240 280Z" fill="#FFFCE2"/>
<path d="M240 280L280 320H240L240 280Z" fill="#FFFCE2"/>
<path d="M320 280L280 240L320 240V280Z" fill="#FFFCE2"/>
<path d="M320 280L280 320V280L320 280Z" fill="#FFFCE2"/>
<path d="M280 320L320 280V320L280 320Z" fill="#DFE2F5"/>
<path d="M280 320L240 280L280 280V320Z" fill="#EBEEF8"/>
<path d="M280 240L320 280L280 280V240Z" fill="#EBEEF8"/>
<path d="M360 320L320 360V320L360 320Z" fill="#DFE2F5"/>
<path d="M280 320L320 360H280L280 320Z" fill="#FCF1CD"/>
<path d="M280 360L240 320H280L280 360Z" fill="#FCF1CD"/>
<path d="M240 320L280 360H240V320Z" fill="#FFFCE2"/>
<path d="M360 320L320 280H360L360 320Z" fill="#FCF1CD"/>
<path d="M320 240L360 280H320V240Z" fill="#FCF1CD"/>
<path d="M360 280L320 240H360L360 280Z" fill="#FFFCE2"/>
<path d="M320 360L280 320L320 320V360Z" fill="#FFFCE2"/>
<path d="M320 280L360 320L320 320V280Z" fill="#FFFCE2"/>
<path d="M240 440L280 480H240L240 440Z" fill="#FFFCE2"/>
<path d="M280 480L240 440H280L280 480Z" fill="#FFFCE2"/>
<path d="M280 480L320 440L320 480H280Z" fill="#FFFCE2"/>
<path d="M280 400L240 440V400L280 400Z" fill="#FFFCE2"/>
<path d="M280 400L320 440H280L280 400Z" fill="#FFFCE2"/>
<path d="M320 440L280 400H320L320 440Z" fill="#DFE2F5"/>
<path d="M320 440L280 480L280 440H320Z" fill="#EBEEF8"/>
<path d="M240 440L280 400L280 440H240Z" fill="#EBEEF8"/>
<path d="M320 360L360 400H320L320 360Z" fill="#DFE2F5"/>
<path d="M320 440L360 400V440H320Z" fill="#FCF1CD"/>
<path d="M360 440L320 480L320 440H360Z" fill="#FCF1CD"/>
<path d="M320 480L360 440L360 480H320Z" fill="#FFFCE2"/>
<path d="M320 360L280 400L280 360H320Z" fill="#FCF1CD"/>
<path d="M240 400L280 360L280 400L240 400Z" fill="#FCF1CD"/>
<path d="M280 360L240 400L240 360H280Z" fill="#FFFCE2"/>
<path d="M360 400L320 440L320 400H360Z" fill="#FFFCE2"/>
<path d="M280 400L320 360L320 400H280Z" fill="#FFFCE2"/>
<path d="M440 480L480 440V480L440 480Z" fill="#FFFCE2"/>
<path d="M480 440L440 480V440H480Z" fill="#FFFCE2"/>
<path d="M480 440L440 400H480V440Z" fill="#FFFCE2"/>
<path d="M400 440L440 480L400 480V440Z" fill="#FFFCE2"/>
<path d="M400 440L440 400V440H400Z" fill="#FFFCE2"/>
<path d="M440 400L400 440V400L440 400Z" fill="#DFE2F5"/>
<path d="M440 400L480 440H440V400Z" fill="#EBEEF8"/>
<path d="M440 480L400 440H440V480Z" fill="#EBEEF8"/>
<path d="M360 400L400 360V400L360 400Z" fill="#DFE2F5"/>
<path d="M440 400L400 360H440V400Z" fill="#FCF1CD"/>
<path d="M440 360L480 400H440V360Z" fill="#FCF1CD"/>
<path d="M480 400L440 360H480V400Z" fill="#FFFCE2"/>
<path d="M360 400L400 440H360V400Z" fill="#FCF1CD"/>
<path d="M400 480L360 440H400V480Z" fill="#FCF1CD"/>
<path d="M360 440L400 480L360 480L360 440Z" fill="#FFFCE2"/>
<path d="M400 360L440 400L400 400V360Z" fill="#FFFCE2"/>
<path d="M400 440L360 400L400 400V440Z" fill="#FFFCE2"/>
<path d="M480 280L440 240L480 240V280Z" fill="#FFFCE2"/>
<path d="M440 240L480 280H440V240Z" fill="#FFFCE2"/>
<path d="M440 240L400 280L400 240H440Z" fill="#FFFCE2"/>
<path d="M440 320L480 280V320L440 320Z" fill="#FFFCE2"/>
<path d="M440 320L400 280H440V320Z" fill="#FFFCE2"/>
<path d="M400 280L440 320H400L400 280Z" fill="#DFE2F5"/>
<path d="M400 280L440 240V280H400Z" fill="#EBEEF8"/>
<path d="M480 280L440 320V280H480Z" fill="#EBEEF8"/>
<path d="M400 360L360 320H400L400 360Z" fill="#DFE2F5"/>
<path d="M400 280L360 320L360 280H400Z" fill="#FCF1CD"/>
<path d="M360 280L400 240L400 280H360Z" fill="#FCF1CD"/>
<path d="M400 240L360 280L360 240L400 240Z" fill="#FFFCE2"/>
<path d="M400 360L440 320V360H400Z" fill="#FCF1CD"/>
<path d="M480 320L440 360V320L480 320Z" fill="#FCF1CD"/>
<path d="M440 360L480 320V360H440Z" fill="#FFFCE2"/>
<path d="M360 320L400 280L400 320H360Z" fill="#FFFCE2"/>
<path d="M440 320L400 360L400 320H440Z" fill="#FFFCE2"/>
<path d="M360 400L320 360H360L360 400Z" fill="#EBEEF8"/>
<path d="M360 320L400 360H360L360 320Z" fill="#EBEEF8"/>
<path d="M320 360L360 320L360 360H320Z" fill="#FFFCE2"/>
<path d="M400 360L360 400L360 360H400Z" fill="#FFFCE2"/>
<path d="M520 240L480 280V240L520 240Z" fill="#FFFCE2"/>
<path d="M480 280L520 240V280L480 280Z" fill="#FFFCE2"/>
<path d="M480 280L520 320L480 320V280Z" fill="#FFFCE2"/>
<path d="M560 280L520 240H560V280Z" fill="#FFFCE2"/>
<path d="M560 280L520 320V280L560 280Z" fill="#FFFCE2"/>
<path d="M520 320L560 280V320L520 320Z" fill="#DFE2F5"/>
<path d="M520 320L480 280L520 280V320Z" fill="#EBEEF8"/>
<path d="M520 240L560 280L520 280V240Z" fill="#EBEEF8"/>
<path d="M600 320L560 360V320L600 320Z" fill="#DFE2F5"/>
<path d="M520 320L560 360H520V320Z" fill="#FCF1CD"/>
<path d="M520 360L480 320L520 320V360Z" fill="#FCF1CD"/>
<path d="M480 320L520 360H480V320Z" fill="#FFFCE2"/>
<path d="M600 320L560 280H600V320Z" fill="#FCF1CD"/>
<path d="M560 240L600 280H560V240Z" fill="#FCF1CD"/>
<path d="M600 280L560 240H600V280Z" fill="#FFFCE2"/>
<path d="M560 360L520 320L560 320V360Z" fill="#FFFCE2"/>
<path d="M560 280L600 320L560 320V280Z" fill="#FFFCE2"/>
<path d="M480 440L520 480L480 480V440Z" fill="#FFFCE2"/>
<path d="M520 480L480 440H520V480Z" fill="#FFFCE2"/>
<path d="M520 480L560 440V480H520Z" fill="#FFFCE2"/>
<path d="M520 400L480 440V400H520Z" fill="#FFFCE2"/>
<path d="M520 400L560 440H520V400Z" fill="#FFFCE2"/>
<path d="M560 440L520 400H560V440Z" fill="#DFE2F5"/>
<path d="M560 440L520 480V440H560Z" fill="#EBEEF8"/>
<path d="M480 440L520 400V440H480Z" fill="#EBEEF8"/>
<path d="M560 360L600 400H560V360Z" fill="#DFE2F5"/>
<path d="M560 440L600 400V440H560Z" fill="#FCF1CD"/>
<path d="M600 440L560 480V440H600Z" fill="#FCF1CD"/>
<path d="M560 480L600 440V480H560Z" fill="#FFFCE2"/>
<path d="M560 360L520 400V360H560Z" fill="#FCF1CD"/>
<path d="M480 400L520 360V400H480Z" fill="#FCF1CD"/>
<path d="M520 360L480 400V360H520Z" fill="#FFFCE2"/>
<path d="M600 400L560 440V400H600Z" fill="#FFFCE2"/>
<path d="M520 400L560 360V400H520Z" fill="#FFFCE2"/>
<path d="M680 480L720 440V480H680Z" fill="#FFFCE2"/>
<path d="M720 440L680 480V440H720Z" fill="#FFFCE2"/>
<path d="M720 440L680 400H720V440Z" fill="#FFFCE2"/>
<path d="M640 440L680 480L640 480V440Z" fill="#FFFCE2"/>
<path d="M640 440L680 400V440H640Z" fill="#FFFCE2"/>
<path d="M680 400L640 440V400L680 400Z" fill="#DFE2F5"/>
<path d="M680 400L720 440H680V400Z" fill="#EBEEF8"/>
<path d="M680 480L640 440H680V480Z" fill="#EBEEF8"/>
<path d="M600 400L640 360V400L600 400Z" fill="#DFE2F5"/>
<path d="M680 400L640 360H680V400Z" fill="#FCF1CD"/>
<path d="M680 360L720 400H680V360Z" fill="#FCF1CD"/>
<path d="M720 400L680 360H720V400Z" fill="#FFFCE2"/>
<path d="M600 400L640 440H600V400Z" fill="#FCF1CD"/>
<path d="M640 480L600 440H640V480Z" fill="#FCF1CD"/>
<path d="M600 440L640 480L600 480V440Z" fill="#FFFCE2"/>
<path d="M640 360L680 400L640 400V360Z" fill="#FFFCE2"/>
<path d="M640 440L600 400L640 400V440Z" fill="#FFFCE2"/>
<path d="M720 280L680 240H720V280Z" fill="#FFFCE2"/>
<path d="M680 240L720 280H680V240Z" fill="#FFFCE2"/>
<path d="M680 240L640 280V240L680 240Z" fill="#FFFCE2"/>
<path d="M680 320L720 280V320L680 320Z" fill="#FFFCE2"/>
<path d="M680 320L640 280H680V320Z" fill="#FFFCE2"/>
<path d="M640 280L680 320H640V280Z" fill="#DFE2F5"/>
<path d="M640 280L680 240V280H640Z" fill="#EBEEF8"/>
<path d="M720 280L680 320V280H720Z" fill="#EBEEF8"/>
<path d="M640 360L600 320H640V360Z" fill="#DFE2F5"/>
<path d="M640 280L600 320V280H640Z" fill="#FCF1CD"/>
<path d="M600 280L640 240V280H600Z" fill="#FCF1CD"/>
<path d="M640 240L600 280V240L640 240Z" fill="#FFFCE2"/>
<path d="M640 360L680 320V360H640Z" fill="#FCF1CD"/>
<path d="M720 320L680 360V320L720 320Z" fill="#FCF1CD"/>
<path d="M680 360L720 320V360H680Z" fill="#FFFCE2"/>
<path d="M600 320L640 280V320H600Z" fill="#FFFCE2"/>
<path d="M680 320L640 360V320H680Z" fill="#FFFCE2"/>
<path d="M600 400L560 360H600V400Z" fill="#EBEEF8"/>
<path d="M600 320L640 360H600V320Z" fill="#EBEEF8"/>
<path d="M560 360L600 320V360H560Z" fill="#FFFCE2"/>
<path d="M640 360L600 400V360H640Z" fill="#FFFCE2"/>
<path d="M520 0L480 40V0H520Z" fill="#FFFCE2"/>
<path d="M480 40L520 0V40L480 40Z" fill="#FFFCE2"/>
<path d="M480 40L520 80L480 80V40Z" fill="#FFFCE2"/>
<path d="M560 40L520 0L560 1.49012e-07V40Z" fill="#FFFCE2"/>
<path d="M560 40L520 80V40L560 40Z" fill="#FFFCE2"/>
<path d="M520 80L560 40V80L520 80Z" fill="#DFE2F5"/>
<path d="M520 80L480 40L520 40V80Z" fill="#EBEEF8"/>
<path d="M520 0L560 40L520 40V0Z" fill="#EBEEF8"/>
<path d="M600 80L560 120V80L600 80Z" fill="#DFE2F5"/>
<path d="M520 80L560 120H520V80Z" fill="#FCF1CD"/>
<path d="M520 120L480 80L520 80V120Z" fill="#FCF1CD"/>
<path d="M480 80L520 120H480V80Z" fill="#FFFCE2"/>
<path d="M600 80L560 40H600V80Z" fill="#FCF1CD"/>
<path d="M560 1.49012e-07L600 40H560V1.49012e-07Z" fill="#FCF1CD"/>
<path d="M600 40L560 1.49012e-07H600V40Z" fill="#FFFCE2"/>
<path d="M560 120L520 80L560 80V120Z" fill="#FFFCE2"/>
<path d="M560 40L600 80L560 80V40Z" fill="#FFFCE2"/>
<path d="M480 200L520 240L480 240V200Z" fill="#FFFCE2"/>
<path d="M520 240L480 200H520V240Z" fill="#FFFCE2"/>
<path d="M520 240L560 200V240H520Z" fill="#FFFCE2"/>
<path d="M520 160L480 200V160H520Z" fill="#FFFCE2"/>
<path d="M520 160L560 200H520V160Z" fill="#FFFCE2"/>
<path d="M560 200L520 160H560V200Z" fill="#DFE2F5"/>
<path d="M560 200L520 240V200H560Z" fill="#EBEEF8"/>
<path d="M480 200L520 160V200H480Z" fill="#EBEEF8"/>
<path d="M560 120L600 160H560V120Z" fill="#DFE2F5"/>
<path d="M560 200L600 160V200L560 200Z" fill="#FCF1CD"/>
<path d="M600 200L560 240V200L600 200Z" fill="#FCF1CD"/>
<path d="M560 240L600 200V240H560Z" fill="#FFFCE2"/>
<path d="M560 120L520 160V120H560Z" fill="#FCF1CD"/>
<path d="M480 160L520 120V160H480Z" fill="#FCF1CD"/>
<path d="M520 120L480 160V120H520Z" fill="#FFFCE2"/>
<path d="M600 160L560 200V160H600Z" fill="#FFFCE2"/>
<path d="M520 160L560 120V160H520Z" fill="#FFFCE2"/>
<path d="M680 240L720 200V240H680Z" fill="#FFFCE2"/>
<path d="M720 200L680 240V200L720 200Z" fill="#FFFCE2"/>
<path d="M720 200L680 160H720V200Z" fill="#FFFCE2"/>
<path d="M640 200L680 240L640 240V200Z" fill="#FFFCE2"/>
<path d="M640 200L680 160V200L640 200Z" fill="#FFFCE2"/>
<path d="M680 160L640 200V160L680 160Z" fill="#DFE2F5"/>
<path d="M680 160L720 200L680 200V160Z" fill="#EBEEF8"/>
<path d="M680 240L640 200L680 200V240Z" fill="#EBEEF8"/>
<path d="M600 160L640 120V160L600 160Z" fill="#DFE2F5"/>
<path d="M680 160L640 120H680V160Z" fill="#FCF1CD"/>
<path d="M680 120L720 160H680V120Z" fill="#FCF1CD"/>
<path d="M720 160L680 120H720V160Z" fill="#FFFCE2"/>
<path d="M600 160L640 200L600 200V160Z" fill="#FCF1CD"/>
<path d="M640 240L600 200L640 200V240Z" fill="#FCF1CD"/>
<path d="M600 200L640 240L600 240V200Z" fill="#FFFCE2"/>
<path d="M640 120L680 160L640 160V120Z" fill="#FFFCE2"/>
<path d="M640 200L600 160L640 160V200Z" fill="#FFFCE2"/>
<path d="M720 40L680 0H720V40Z" fill="#FFFCE2"/>
<path d="M680 0L720 40H680V0Z" fill="#FFFCE2"/>
<path d="M680 0L640 40V1.91221e-05L680 0Z" fill="#FFFCE2"/>
<path d="M680 80L720 40V80L680 80Z" fill="#FFFCE2"/>
<path d="M680 80L640 40H680V80Z" fill="#FFFCE2"/>
<path d="M640 40L680 80H640V40Z" fill="#DFE2F5"/>
<path d="M640 40L680 0V40H640Z" fill="#EBEEF8"/>
<path d="M720 40L680 80V40H720Z" fill="#EBEEF8"/>
<path d="M640 120L600 80H640V120Z" fill="#DFE2F5"/>
<path d="M640 40L600 80V40H640Z" fill="#FCF1CD"/>
<path d="M600 40L640 1.91221e-05V40H600Z" fill="#FCF1CD"/>
<path d="M640 1.91221e-05L600 40V1.49012e-07L640 1.91221e-05Z" fill="#FFFCE2"/>
<path d="M640 120L680 80V120H640Z" fill="#FCF1CD"/>
<path d="M720 80L680 120V80L720 80Z" fill="#FCF1CD"/>
<path d="M680 120L720 80V120H680Z" fill="#FFFCE2"/>
<path d="M600 80L640 40V80H600Z" fill="#FFFCE2"/>
<path d="M680 80L640 120V80H680Z" fill="#FFFCE2"/>
<path d="M600 160L560 120H600V160Z" fill="#EBEEF8"/>
<path d="M600 80L640 120H600V80Z" fill="#EBEEF8"/>
<path d="M560 120L600 80V120H560Z" fill="#FFFCE2"/>
<path d="M640 120L600 160V120H640Z" fill="#FFFCE2"/>
<path d="M40 240L0 280L1.92711e-05 240H40Z" fill="#FFFCE2"/>
<path d="M0 280L40 240V280L0 280Z" fill="#FFFCE2"/>
<path d="M0 280L40 320H1.91221e-05L0 280Z" fill="#FFFCE2"/>
<path d="M80 280L40 240L80 240V280Z" fill="#FFFCE2"/>
<path d="M80 280L40 320V280L80 280Z" fill="#FFFCE2"/>
<path d="M40 320L80 280V320L40 320Z" fill="#DFE2F5"/>
<path d="M40 320L0 280L40 280V320Z" fill="#EBEEF8"/>
<path d="M40 240L80 280L40 280V240Z" fill="#EBEEF8"/>
<path d="M120 320L80 360V320L120 320Z" fill="#DFE2F5"/>
<path d="M40 320L80 360H40L40 320Z" fill="#FCF1CD"/>
<path d="M40 360L1.91221e-05 320H40L40 360Z" fill="#FCF1CD"/>
<path d="M1.91221e-05 320L40 360H1.91221e-05V320Z" fill="#FFFCE2"/>
<path d="M120 320L80 280H120L120 320Z" fill="#FCF1CD"/>
<path d="M80 240L120 280H80V240Z" fill="#FCF1CD"/>
<path d="M120 280L80 240H120L120 280Z" fill="#FFFCE2"/>
<path d="M80 360L40 320L80 320V360Z" fill="#FFFCE2"/>
<path d="M80 280L120 320L80 320V280Z" fill="#FFFCE2"/>
<path d="M0 440L40 480L0 480V440Z" fill="#FFFCE2"/>
<path d="M40 480L0 440H40L40 480Z" fill="#FFFCE2"/>
<path d="M40 480L80 440L80 480H40Z" fill="#FFFCE2"/>
<path d="M40 400L0 440L1.49012e-07 400L40 400Z" fill="#FFFCE2"/>
<path d="M40 400L80 440H40L40 400Z" fill="#FFFCE2"/>
<path d="M80 440L40 400H80L80 440Z" fill="#DFE2F5"/>
<path d="M80 440L40 480L40 440H80Z" fill="#EBEEF8"/>
<path d="M0 440L40 400L40 440H0Z" fill="#EBEEF8"/>
<path d="M80 360L120 400H80L80 360Z" fill="#DFE2F5"/>
<path d="M80 440L120 400V440H80Z" fill="#FCF1CD"/>
<path d="M120 440L80 480L80 440H120Z" fill="#FCF1CD"/>
<path d="M80 480L120 440L120 480H80Z" fill="#FFFCE2"/>
<path d="M80 360L40 400L40 360H80Z" fill="#FCF1CD"/>
<path d="M1.49012e-07 400L40 360L40 400L1.49012e-07 400Z" fill="#FCF1CD"/>
<path d="M40 360L1.49012e-07 400L1.91221e-05 360H40Z" fill="#FFFCE2"/>
<path d="M120 400L80 440L80 400H120Z" fill="#FFFCE2"/>
<path d="M40 400L80 360L80 400H40Z" fill="#FFFCE2"/>
<path d="M200 480L240 440L240 480H200Z" fill="#FFFCE2"/>
<path d="M240 440L200 480V440H240Z" fill="#FFFCE2"/>
<path d="M240 440L200 400L240 400V440Z" fill="#FFFCE2"/>
<path d="M160 440L200 480L160 480V440Z" fill="#FFFCE2"/>
<path d="M160 440L200 400V440H160Z" fill="#FFFCE2"/>
<path d="M200 400L160 440V400L200 400Z" fill="#DFE2F5"/>
<path d="M200 400L240 440H200V400Z" fill="#EBEEF8"/>
<path d="M200 480L160 440H200V480Z" fill="#EBEEF8"/>
<path d="M120 400L160 360V400L120 400Z" fill="#DFE2F5"/>
<path d="M200 400L160 360H200L200 400Z" fill="#FCF1CD"/>
<path d="M200 360L240 400L200 400L200 360Z" fill="#FCF1CD"/>
<path d="M240 400L200 360H240L240 400Z" fill="#FFFCE2"/>
<path d="M120 400L160 440H120V400Z" fill="#FCF1CD"/>
<path d="M160 480L120 440H160V480Z" fill="#FCF1CD"/>
<path d="M120 440L160 480L120 480L120 440Z" fill="#FFFCE2"/>
<path d="M160 360L200 400L160 400V360Z" fill="#FFFCE2"/>
<path d="M160 440L120 400L160 400V440Z" fill="#FFFCE2"/>
<path d="M240 280L200 240L240 240V280Z" fill="#FFFCE2"/>
<path d="M200 240L240 280H200L200 240Z" fill="#FFFCE2"/>
<path d="M200 240L160 280L160 240H200Z" fill="#FFFCE2"/>
<path d="M200 320L240 280L240 320H200Z" fill="#FFFCE2"/>
<path d="M200 320L160 280H200L200 320Z" fill="#FFFCE2"/>
<path d="M160 280L200 320H160L160 280Z" fill="#DFE2F5"/>
<path d="M160 280L200 240L200 280H160Z" fill="#EBEEF8"/>
<path d="M240 280L200 320L200 280H240Z" fill="#EBEEF8"/>
<path d="M160 360L120 320H160L160 360Z" fill="#DFE2F5"/>
<path d="M160 280L120 320L120 280H160Z" fill="#FCF1CD"/>
<path d="M120 280L160 240L160 280H120Z" fill="#FCF1CD"/>
<path d="M160 240L120 280L120 240L160 240Z" fill="#FFFCE2"/>
<path d="M160 360L200 320L200 360H160Z" fill="#FCF1CD"/>
<path d="M240 320L200 360L200 320H240Z" fill="#FCF1CD"/>
<path d="M200 360L240 320V360H200Z" fill="#FFFCE2"/>
<path d="M120 320L160 280L160 320H120Z" fill="#FFFCE2"/>
<path d="M200 320L160 360L160 320H200Z" fill="#FFFCE2"/>
<path d="M120 400L80 360H120L120 400Z" fill="#EBEEF8"/>
<path d="M120 320L160 360H120L120 320Z" fill="#EBEEF8"/>
<path d="M80 360L120 320L120 360H80Z" fill="#FFFCE2"/>
<path d="M160 360L120 400L120 360H160Z" fill="#FFFCE2"/>
<path d="M760 0L720 40V0H760Z" fill="#FFFCE2"/>
<path d="M720 40L760 0V40L720 40Z" fill="#FFFCE2"/>
<path d="M720 40L760 80L720 80V40Z" fill="#FFFCE2"/>
<path d="M800 40L760 0L800 1.49012e-07V40Z" fill="#FFFCE2"/>
<path d="M800 40L760 80V40L800 40Z" fill="#FFFCE2"/>
<path d="M760 80L800 40V80L760 80Z" fill="#DFE2F5"/>
<path d="M760 80L720 40L760 40V80Z" fill="#EBEEF8"/>
<path d="M760 0L800 40L760 40V0Z" fill="#EBEEF8"/>
<path d="M840 80L800 120V80L840 80Z" fill="#DFE2F5"/>
<path d="M760 80L800 120H760V80Z" fill="#FCF1CD"/>
<path d="M760 120L720 80L760 80V120Z" fill="#FCF1CD"/>
<path d="M720 80L760 120H720V80Z" fill="#FFFCE2"/>
<path d="M840 80L800 40H840V80Z" fill="#FCF1CD"/>
<path d="M800 1.49012e-07L840 40H800V1.49012e-07Z" fill="#FCF1CD"/>
<path d="M840 40L800 1.49012e-07H840V40Z" fill="#FFFCE2"/>
<path d="M800 120L760 80L800 80V120Z" fill="#FFFCE2"/>
<path d="M800 40L840 80L800 80V40Z" fill="#FFFCE2"/>
<path d="M720 200L760 240H720V200Z" fill="#FFFCE2"/>
<path d="M760 240L720 200H760V240Z" fill="#FFFCE2"/>
<path d="M760 240L800 200V240L760 240Z" fill="#FFFCE2"/>
<path d="M760 160L720 200V160H760Z" fill="#FFFCE2"/>
<path d="M760 160L800 200H760V160Z" fill="#FFFCE2"/>
<path d="M800 200L760 160H800V200Z" fill="#DFE2F5"/>
<path d="M800 200L760 240V200H800Z" fill="#EBEEF8"/>
<path d="M720 200L760 160V200H720Z" fill="#EBEEF8"/>
<path d="M800 120L840 160H800V120Z" fill="#DFE2F5"/>
<path d="M800 200L840 160V200L800 200Z" fill="#FCF1CD"/>
<path d="M840 200L800 240V200L840 200Z" fill="#FCF1CD"/>
<path d="M800 240L840 200V240H800Z" fill="#FFFCE2"/>
<path d="M800 120L760 160V120H800Z" fill="#FCF1CD"/>
<path d="M720 160L760 120V160H720Z" fill="#FCF1CD"/>
<path d="M760 120L720 160V120H760Z" fill="#FFFCE2"/>
<path d="M840 160L800 200V160H840Z" fill="#FFFCE2"/>
<path d="M760 160L800 120V160H760Z" fill="#FFFCE2"/>
<path d="M920 240L960 200V240L920 240Z" fill="#FFFCE2"/>
<path d="M960 200L920 240V200L960 200Z" fill="#FFFCE2"/>
<path d="M960 200L920 160H960V200Z" fill="#FFFCE2"/>
<path d="M880 200L920 240H880V200Z" fill="#FFFCE2"/>
<path d="M880 200L920 160V200L880 200Z" fill="#FFFCE2"/>
<path d="M920 160L880 200V160L920 160Z" fill="#DFE2F5"/>
<path d="M920 160L960 200L920 200V160Z" fill="#EBEEF8"/>
<path d="M920 240L880 200L920 200V240Z" fill="#EBEEF8"/>
<path d="M840 160L880 120V160L840 160Z" fill="#DFE2F5"/>
<path d="M920 160L880 120H920V160Z" fill="#FCF1CD"/>
<path d="M920 120L960 160H920V120Z" fill="#FCF1CD"/>
<path d="M960 160L920 120H960V160Z" fill="#FFFCE2"/>
<path d="M840 160L880 200L840 200V160Z" fill="#FCF1CD"/>
<path d="M880 240L840 200L880 200V240Z" fill="#FCF1CD"/>
<path d="M840 200L880 240L840 240V200Z" fill="#FFFCE2"/>
<path d="M880 120L920 160L880 160V120Z" fill="#FFFCE2"/>
<path d="M880 200L840 160L880 160V200Z" fill="#FFFCE2"/>
<path d="M960 40L920 0H960V40Z" fill="#FFFCE2"/>
<path d="M920 0L960 40H920V0Z" fill="#FFFCE2"/>
<path d="M920 0L880 40V1.91221e-05L920 0Z" fill="#FFFCE2"/>
<path d="M920 80L960 40V80L920 80Z" fill="#FFFCE2"/>
<path d="M920 80L880 40H920V80Z" fill="#FFFCE2"/>
<path d="M880 40L920 80H880V40Z" fill="#DFE2F5"/>
<path d="M880 40L920 0V40H880Z" fill="#EBEEF8"/>
<path d="M960 40L920 80V40H960Z" fill="#EBEEF8"/>
<path d="M880 120L840 80H880V120Z" fill="#DFE2F5"/>
<path d="M880 40L840 80V40H880Z" fill="#FCF1CD"/>
<path d="M840 40L880 1.91221e-05V40H840Z" fill="#FCF1CD"/>
<path d="M880 1.91221e-05L840 40V1.49012e-07L880 1.91221e-05Z" fill="#FFFCE2"/>
<path d="M880 120L920 80V120H880Z" fill="#FCF1CD"/>
<path d="M960 80L920 120V80L960 80Z" fill="#FCF1CD"/>
<path d="M920 120L960 80V120H920Z" fill="#FFFCE2"/>
<path d="M840 80L880 40V80H840Z" fill="#FFFCE2"/>
<path d="M920 80L880 120V80H920Z" fill="#FFFCE2"/>
<path d="M840 160L800 120H840V160Z" fill="#EBEEF8"/>
<path d="M840 80L880 120H840V80Z" fill="#EBEEF8"/>
<path d="M800 120L840 80V120H800Z" fill="#FFFCE2"/>
<path d="M880 120L840 160V120H880Z" fill="#FFFCE2"/>
<path d="M760 240L720 280V240H760Z" fill="#FFFCE2"/>
<path d="M720 280L760 240V280L720 280Z" fill="#FFFCE2"/>
<path d="M720 280L760 320L720 320V280Z" fill="#FFFCE2"/>
<path d="M800 280L760 240L800 240V280Z" fill="#FFFCE2"/>
<path d="M800 280L760 320V280L800 280Z" fill="#FFFCE2"/>
<path d="M760 320L800 280V320L760 320Z" fill="#DFE2F5"/>
<path d="M760 320L720 280L760 280V320Z" fill="#EBEEF8"/>
<path d="M760 240L800 280L760 280V240Z" fill="#EBEEF8"/>
<path d="M840 320L800 360V320L840 320Z" fill="#DFE2F5"/>
<path d="M760 320L800 360H760V320Z" fill="#FCF1CD"/>
<path d="M760 360L720 320L760 320V360Z" fill="#FCF1CD"/>
<path d="M720 320L760 360H720V320Z" fill="#FFFCE2"/>
<path d="M840 320L800 280H840V320Z" fill="#FCF1CD"/>
<path d="M800 240L840 280H800V240Z" fill="#FCF1CD"/>
<path d="M840 280L800 240H840V280Z" fill="#FFFCE2"/>
<path d="M800 360L760 320L800 320V360Z" fill="#FFFCE2"/>
<path d="M800 280L840 320L800 320V280Z" fill="#FFFCE2"/>
<path d="M720 440L760 480H720V440Z" fill="#FFFCE2"/>
<path d="M760 480L720 440H760V480Z" fill="#FFFCE2"/>
<path d="M760 480L800 440V480H760Z" fill="#FFFCE2"/>
<path d="M760 400L720 440V400H760Z" fill="#FFFCE2"/>
<path d="M760 400L800 440H760V400Z" fill="#FFFCE2"/>
<path d="M800 440L760 400H800V440Z" fill="#DFE2F5"/>
<path d="M800 440L760 480V440H800Z" fill="#EBEEF8"/>
<path d="M720 440L760 400V440H720Z" fill="#EBEEF8"/>
<path d="M800 360L840 400H800V360Z" fill="#DFE2F5"/>
<path d="M800 440L840 400V440H800Z" fill="#FCF1CD"/>
<path d="M840 440L800 480V440H840Z" fill="#FCF1CD"/>
<path d="M800 480L840 440V480H800Z" fill="#FFFCE2"/>
<path d="M800 360L760 400V360H800Z" fill="#FCF1CD"/>
<path d="M720 400L760 360V400H720Z" fill="#FCF1CD"/>
<path d="M760 360L720 400V360H760Z" fill="#FFFCE2"/>
<path d="M840 400L800 440V400H840Z" fill="#FFFCE2"/>
<path d="M760 400L800 360V400H760Z" fill="#FFFCE2"/>
<path d="M920 480L960 440V480H920Z" fill="#FFFCE2"/>
<path d="M960 440L920 480V440H960Z" fill="#FFFCE2"/>
<path d="M960 440L920 400H960V440Z" fill="#FFFCE2"/>
<path d="M880 440L920 480H880V440Z" fill="#FFFCE2"/>
<path d="M880 440L920 400V440H880Z" fill="#FFFCE2"/>
<path d="M920 400L880 440V400L920 400Z" fill="#DFE2F5"/>
<path d="M920 400L960 440H920V400Z" fill="#EBEEF8"/>
<path d="M920 480L880 440H920V480Z" fill="#EBEEF8"/>
<path d="M840 400L880 360V400L840 400Z" fill="#DFE2F5"/>
<path d="M920 400L880 360H920V400Z" fill="#FCF1CD"/>
<path d="M920 360L960 400H920V360Z" fill="#FCF1CD"/>
<path d="M960 400L920 360H960V400Z" fill="#FFFCE2"/>
<path d="M840 400L880 440H840V400Z" fill="#FCF1CD"/>
<path d="M880 480L840 440H880V480Z" fill="#FCF1CD"/>
<path d="M840 440L880 480H840V440Z" fill="#FFFCE2"/>
<path d="M880 360L920 400L880 400V360Z" fill="#FFFCE2"/>
<path d="M880 440L840 400L880 400V440Z" fill="#FFFCE2"/>
<path d="M960 280L920 240L960 240V280Z" fill="#FFFCE2"/>
<path d="M920 240L960 280H920V240Z" fill="#FFFCE2"/>
<path d="M920 240L880 280V240H920Z" fill="#FFFCE2"/>
<path d="M920 320L960 280V320L920 320Z" fill="#FFFCE2"/>
<path d="M920 320L880 280H920V320Z" fill="#FFFCE2"/>
<path d="M880 280L920 320H880V280Z" fill="#DFE2F5"/>
<path d="M880 280L920 240V280H880Z" fill="#EBEEF8"/>
<path d="M960 280L920 320V280H960Z" fill="#EBEEF8"/>
<path d="M880 360L840 320H880V360Z" fill="#DFE2F5"/>
<path d="M880 280L840 320V280H880Z" fill="#FCF1CD"/>
<path d="M840 280L880 240V280H840Z" fill="#FCF1CD"/>
<path d="M880 240L840 280V240L880 240Z" fill="#FFFCE2"/>
<path d="M880 360L920 320V360H880Z" fill="#FCF1CD"/>
<path d="M960 320L920 360V320L960 320Z" fill="#FCF1CD"/>
<path d="M920 360L960 320V360H920Z" fill="#FFFCE2"/>
<path d="M840 320L880 280V320H840Z" fill="#FFFCE2"/>
<path d="M920 320L880 360V320H920Z" fill="#FFFCE2"/>
<path d="M840 400L800 360H840V400Z" fill="#EBEEF8"/>
<path d="M840 320L880 360H840V320Z" fill="#EBEEF8"/>
<path d="M800 360L840 320V360H800Z" fill="#FFFCE2"/>
<path d="M880 360L840 400V360H880Z" fill="#FFFCE2"/>
<path d="M760 480L720 520V480H760Z" fill="#FFFCE2"/>
<path d="M720 520L760 480V520H720Z" fill="#FFFCE2"/>
<path d="M720 520L760 560H720V520Z" fill="#FFFCE2"/>
<path d="M800 520L760 480H800V520Z" fill="#FFFCE2"/>
<path d="M800 520L760 560V520H800Z" fill="#FFFCE2"/>
<path d="M760 560L800 520V560H760Z" fill="#DFE2F5"/>
<path d="M760 560L720 520H760V560Z" fill="#EBEEF8"/>
<path d="M760 480L800 520H760V480Z" fill="#EBEEF8"/>
<path d="M840 560L800 600V560H840Z" fill="#DFE2F5"/>
<path d="M760 560L800 600H760V560Z" fill="#FCF1CD"/>
<path d="M760 600L720 560H760V600Z" fill="#FCF1CD"/>
<path d="M720 560L760 600H720V560Z" fill="#FFFCE2"/>
<path d="M840 560L800 520H840V560Z" fill="#FCF1CD"/>
<path d="M800 480L840 520H800V480Z" fill="#FCF1CD"/>
<path d="M840 520L800 480H840V520Z" fill="#FFFCE2"/>
<path d="M800 600L760 560H800V600Z" fill="#FFFCE2"/>
<path d="M800 520L840 560H800V520Z" fill="#FFFCE2"/>
<path d="M720 680L760 720H720V680Z" fill="#FFFCE2"/>
<path d="M760 720L720 680H760V720Z" fill="#FFFCE2"/>
<path d="M760 720L800 680V720H760Z" fill="#FFFCE2"/>
<path d="M760 640L720 680V640H760Z" fill="#FFFCE2"/>
<path d="M760 640L800 680H760V640Z" fill="#FFFCE2"/>
<path d="M800 680L760 640H800V680Z" fill="#DFE2F5"/>
<path d="M800 680L760 720V680H800Z" fill="#EBEEF8"/>
<path d="M720 680L760 640V680H720Z" fill="#EBEEF8"/>
<path d="M800 600L840 640H800V600Z" fill="#DFE2F5"/>
<path d="M800 680L840 640V680H800Z" fill="#FCF1CD"/>
<path d="M840 680L800 720V680H840Z" fill="#FCF1CD"/>
<path d="M800 720L840 680V720H800Z" fill="#FFFCE2"/>
<path d="M800 600L760 640V600H800Z" fill="#FCF1CD"/>
<path d="M720 640L760 600V640H720Z" fill="#FCF1CD"/>
<path d="M760 600L720 640V600H760Z" fill="#FFFCE2"/>
<path d="M840 640L800 680V640H840Z" fill="#FFFCE2"/>
<path d="M760 640L800 600V640H760Z" fill="#FFFCE2"/>
<path d="M920 720L960 680V720H920Z" fill="#FFFCE2"/>
<path d="M960 680L920 720V680H960Z" fill="#FFFCE2"/>
<path d="M960 680L920 640H960V680Z" fill="#FFFCE2"/>
<path d="M880 680L920 720H880V680Z" fill="#FFFCE2"/>
<path d="M880 680L920 640V680H880Z" fill="#FFFCE2"/>
<path d="M920 640L880 680V640H920Z" fill="#DFE2F5"/>
<path d="M920 640L960 680H920V640Z" fill="#EBEEF8"/>
<path d="M920 720L880 680H920V720Z" fill="#EBEEF8"/>
<path d="M840 640L880 600V640H840Z" fill="#DFE2F5"/>
<path d="M920 640L880 600H920V640Z" fill="#FCF1CD"/>
<path d="M920 600L960 640H920V600Z" fill="#FCF1CD"/>
<path d="M960 640L920 600H960V640Z" fill="#FFFCE2"/>
<path d="M840 640L880 680H840V640Z" fill="#FCF1CD"/>
<path d="M880 720L840 680H880V720Z" fill="#FCF1CD"/>
<path d="M840 680L880 720H840V680Z" fill="#FFFCE2"/>
<path d="M880 600L920 640H880V600Z" fill="#FFFCE2"/>
<path d="M880 680L840 640H880V680Z" fill="#FFFCE2"/>
<path d="M960 520L920 480H960V520Z" fill="#FFFCE2"/>
<path d="M920 480L960 520H920V480Z" fill="#FFFCE2"/>
<path d="M920 480L880 520V480H920Z" fill="#FFFCE2"/>
<path d="M920 560L960 520V560H920Z" fill="#FFFCE2"/>
<path d="M920 560L880 520H920V560Z" fill="#FFFCE2"/>
<path d="M880 520L920 560H880V520Z" fill="#DFE2F5"/>
<path d="M880 520L920 480V520H880Z" fill="#EBEEF8"/>
<path d="M960 520L920 560V520H960Z" fill="#EBEEF8"/>
<path d="M880 600L840 560H880V600Z" fill="#DFE2F5"/>
<path d="M880 520L840 560V520H880Z" fill="#FCF1CD"/>
<path d="M840 520L880 480V520H840Z" fill="#FCF1CD"/>
<path d="M880 480L840 520V480H880Z" fill="#FFFCE2"/>
<path d="M880 600L920 560V600H880Z" fill="#FCF1CD"/>
<path d="M960 560L920 600V560H960Z" fill="#FCF1CD"/>
<path d="M920 600L960 560V600H920Z" fill="#FFFCE2"/>
<path d="M840 560L880 520V560H840Z" fill="#FFFCE2"/>
<path d="M920 560L880 600V560H920Z" fill="#FFFCE2"/>
<path d="M840 640L800 600H840V640Z" fill="#EBEEF8"/>
<path d="M840 560L880 600H840V560Z" fill="#EBEEF8"/>
<path d="M800 600L840 560V600H800Z" fill="#FFFCE2"/>
<path d="M880 600L840 640V600H880Z" fill="#FFFCE2"/>
<path d="M1000 0L960 40V0H1000Z" fill="#FFFCE2"/>
<path d="M960 40L1000 0V40L960 40Z" fill="#FFFCE2"/>
<path d="M960 40L1000 80L960 80V40Z" fill="#FFFCE2"/>
<path d="M1040 40L1000 0L1040 1.49012e-07V40Z" fill="#FFFCE2"/>
<path d="M1040 40L1000 80V40L1040 40Z" fill="#FFFCE2"/>
<path d="M1000 80L1040 40V80L1000 80Z" fill="#DFE2F5"/>
<path d="M1000 80L960 40L1000 40V80Z" fill="#EBEEF8"/>
<path d="M1000 0L1040 40L1000 40V0Z" fill="#EBEEF8"/>
<path d="M1080 80L1040 120V80L1080 80Z" fill="#DFE2F5"/>
<path d="M1000 80L1040 120H1000V80Z" fill="#FCF1CD"/>
<path d="M1000 120L960 80L1000 80V120Z" fill="#FCF1CD"/>
<path d="M960 80L1000 120H960V80Z" fill="#FFFCE2"/>
<path d="M1080 80L1040 40H1080V80Z" fill="#FCF1CD"/>
<path d="M1040 1.49012e-07L1080 40H1040V1.49012e-07Z" fill="#FCF1CD"/>
<path d="M1080 40L1040 1.49012e-07H1080V40Z" fill="#FFFCE2"/>
<path d="M1040 120L1000 80L1040 80V120Z" fill="#FFFCE2"/>
<path d="M1040 40L1080 80L1040 80V40Z" fill="#FFFCE2"/>
<path d="M960 200L1000 240L960 240V200Z" fill="#FFFCE2"/>
<path d="M1000 240L960 200H1000V240Z" fill="#FFFCE2"/>
<path d="M1000 240L1040 200V240L1000 240Z" fill="#FFFCE2"/>
<path d="M1000 160L960 200V160H1000Z" fill="#FFFCE2"/>
<path d="M1000 160L1040 200H1000V160Z" fill="#FFFCE2"/>
<path d="M1040 200L1000 160H1040V200Z" fill="#DFE2F5"/>
<path d="M1040 200L1000 240V200H1040Z" fill="#EBEEF8"/>
<path d="M960 200L1000 160V200H960Z" fill="#EBEEF8"/>
<path d="M1040 120L1080 160H1040V120Z" fill="#DFE2F5"/>
<path d="M1040 200L1080 160V200L1040 200Z" fill="#FCF1CD"/>
<path d="M1080 200L1040 240V200L1080 200Z" fill="#FCF1CD"/>
<path d="M1040 240L1080 200V240H1040Z" fill="#FFFCE2"/>
<path d="M1040 120L1000 160V120H1040Z" fill="#FCF1CD"/>
<path d="M960 160L1000 120V160H960Z" fill="#FCF1CD"/>
<path d="M1000 120L960 160V120H1000Z" fill="#FFFCE2"/>
<path d="M1080 160L1040 200V160H1080Z" fill="#FFFCE2"/>
<path d="M1000 160L1040 120V160H1000Z" fill="#FFFCE2"/>
<path d="M1160 240L1200 200V240L1160 240Z" fill="#FFFCE2"/>
<path d="M1200 200L1160 240V200L1200 200Z" fill="#FFFCE2"/>
<path d="M1200 200L1160 160H1200V200Z" fill="#FFFCE2"/>
<path d="M1120 200L1160 240H1120V200Z" fill="#FFFCE2"/>
<path d="M1120 200L1160 160V200L1120 200Z" fill="#FFFCE2"/>
<path d="M1160 160L1120 200V160L1160 160Z" fill="#DFE2F5"/>
<path d="M1160 160L1200 200L1160 200V160Z" fill="#EBEEF8"/>
<path d="M1160 240L1120 200L1160 200V240Z" fill="#EBEEF8"/>
<path d="M1080 160L1120 120V160L1080 160Z" fill="#DFE2F5"/>
<path d="M1160 160L1120 120H1160V160Z" fill="#FCF1CD"/>
<path d="M1160 120L1200 160H1160V120Z" fill="#FCF1CD"/>
<path d="M1200 160L1160 120H1200V160Z" fill="#FFFCE2"/>
<path d="M1080 160L1120 200L1080 200V160Z" fill="#FCF1CD"/>
<path d="M1120 240L1080 200L1120 200V240Z" fill="#FCF1CD"/>
<path d="M1080 200L1120 240L1080 240V200Z" fill="#FFFCE2"/>
<path d="M1120 120L1160 160L1120 160V120Z" fill="#FFFCE2"/>
<path d="M1120 200L1080 160L1120 160V200Z" fill="#FFFCE2"/>
<path d="M1200 40L1160 0H1200V40Z" fill="#FFFCE2"/>
<path d="M1160 0L1200 40H1160V0Z" fill="#FFFCE2"/>
<path d="M1160 0L1120 40V1.91221e-05L1160 0Z" fill="#FFFCE2"/>
<path d="M1160 80L1200 40V80L1160 80Z" fill="#FFFCE2"/>
<path d="M1160 80L1120 40H1160V80Z" fill="#FFFCE2"/>
<path d="M1120 40L1160 80H1120V40Z" fill="#DFE2F5"/>
<path d="M1120 40L1160 0V40H1120Z" fill="#EBEEF8"/>
<path d="M1200 40L1160 80V40H1200Z" fill="#EBEEF8"/>
<path d="M1120 120L1080 80H1120V120Z" fill="#DFE2F5"/>
<path d="M1120 40L1080 80V40H1120Z" fill="#FCF1CD"/>
<path d="M1080 40L1120 1.91221e-05V40H1080Z" fill="#FCF1CD"/>
<path d="M1120 1.91221e-05L1080 40V1.49012e-07L1120 1.91221e-05Z" fill="#FFFCE2"/>
<path d="M1120 120L1160 80V120H1120Z" fill="#FCF1CD"/>
<path d="M1200 80L1160 120V80L1200 80Z" fill="#FCF1CD"/>
<path d="M1160 120L1200 80V120H1160Z" fill="#FFFCE2"/>
<path d="M1080 80L1120 40V80H1080Z" fill="#FFFCE2"/>
<path d="M1160 80L1120 120V80H1160Z" fill="#FFFCE2"/>
<path d="M1080 160L1040 120H1080V160Z" fill="#EBEEF8"/>
<path d="M1080 80L1120 120H1080V80Z" fill="#EBEEF8"/>
<path d="M1040 120L1080 80V120H1040Z" fill="#FFFCE2"/>
<path d="M1120 120L1080 160V120H1120Z" fill="#FFFCE2"/>
<path d="M1000 240L960 280V240L1000 240Z" fill="#FFFCE2"/>
<path d="M960 280L1000 240V280L960 280Z" fill="#FFFCE2"/>
<path d="M960 280L1000 320L960 320V280Z" fill="#FFFCE2"/>
<path d="M1040 280L1000 240L1040 240V280Z" fill="#FFFCE2"/>
<path d="M1040 280L1000 320V280L1040 280Z" fill="#FFFCE2"/>
<path d="M1000 320L1040 280V320L1000 320Z" fill="#DFE2F5"/>
<path d="M1000 320L960 280L1000 280V320Z" fill="#EBEEF8"/>
<path d="M1000 240L1040 280L1000 280V240Z" fill="#EBEEF8"/>
<path d="M1080 320L1040 360V320L1080 320Z" fill="#DFE2F5"/>
<path d="M1000 320L1040 360H1000V320Z" fill="#FCF1CD"/>
<path d="M1000 360L960 320L1000 320V360Z" fill="#FCF1CD"/>
<path d="M960 320L1000 360H960V320Z" fill="#FFFCE2"/>
<path d="M1080 320L1040 280H1080V320Z" fill="#FCF1CD"/>
<path d="M1040 240L1080 280H1040V240Z" fill="#FCF1CD"/>
<path d="M1080 280L1040 240H1080V280Z" fill="#FFFCE2"/>
<path d="M1040 360L1000 320L1040 320V360Z" fill="#FFFCE2"/>
<path d="M1040 280L1080 320L1040 320V280Z" fill="#FFFCE2"/>
<path d="M960 440L1000 480H960V440Z" fill="#FFFCE2"/>
<path d="M1000 480L960 440H1000V480Z" fill="#FFFCE2"/>
<path d="M1000 480L1040 440V480H1000Z" fill="#FFFCE2"/>
<path d="M1000 400L960 440V400H1000Z" fill="#FFFCE2"/>
<path d="M1000 400L1040 440H1000V400Z" fill="#FFFCE2"/>
<path d="M1040 440L1000 400H1040V440Z" fill="#DFE2F5"/>
<path d="M1040 440L1000 480V440H1040Z" fill="#EBEEF8"/>
<path d="M960 440L1000 400V440H960Z" fill="#EBEEF8"/>
<path d="M1040 360L1080 400H1040V360Z" fill="#DFE2F5"/>
<path d="M1040 440L1080 400V440H1040Z" fill="#FCF1CD"/>
<path d="M1080 440L1040 480V440H1080Z" fill="#FCF1CD"/>
<path d="M1040 480L1080 440V480H1040Z" fill="#FFFCE2"/>
<path d="M1040 360L1000 400V360H1040Z" fill="#FCF1CD"/>
<path d="M960 400L1000 360V400H960Z" fill="#FCF1CD"/>
<path d="M1000 360L960 400V360H1000Z" fill="#FFFCE2"/>
<path d="M1080 400L1040 440V400H1080Z" fill="#FFFCE2"/>
<path d="M1000 400L1040 360V400H1000Z" fill="#FFFCE2"/>
<path d="M1160 480L1200 440V480H1160Z" fill="#FFFCE2"/>
<path d="M1200 440L1160 480V440H1200Z" fill="#FFFCE2"/>
<path d="M1200 440L1160 400H1200V440Z" fill="#FFFCE2"/>
<path d="M1120 440L1160 480H1120V440Z" fill="#FFFCE2"/>
<path d="M1120 440L1160 400V440H1120Z" fill="#FFFCE2"/>
<path d="M1160 400L1120 440V400L1160 400Z" fill="#DFE2F5"/>
<path d="M1160 400L1200 440H1160V400Z" fill="#EBEEF8"/>
<path d="M1160 480L1120 440H1160V480Z" fill="#EBEEF8"/>
<path d="M1080 400L1120 360V400L1080 400Z" fill="#DFE2F5"/>
<path d="M1160 400L1120 360H1160V400Z" fill="#FCF1CD"/>
<path d="M1160 360L1200 400H1160V360Z" fill="#FCF1CD"/>
<path d="M1200 400L1160 360H1200V400Z" fill="#FFFCE2"/>
<path d="M1080 400L1120 440H1080V400Z" fill="#FCF1CD"/>
<path d="M1120 480L1080 440H1120V480Z" fill="#FCF1CD"/>
<path d="M1080 440L1120 480H1080V440Z" fill="#FFFCE2"/>
<path d="M1120 360L1160 400L1120 400V360Z" fill="#FFFCE2"/>
<path d="M1120 440L1080 400L1120 400V440Z" fill="#FFFCE2"/>
<path d="M1200 280L1160 240L1200 240V280Z" fill="#FFFCE2"/>
<path d="M1160 240L1200 280H1160V240Z" fill="#FFFCE2"/>
<path d="M1160 240L1120 280V240H1160Z" fill="#FFFCE2"/>
<path d="M1160 320L1200 280V320L1160 320Z" fill="#FFFCE2"/>
<path d="M1160 320L1120 280H1160V320Z" fill="#FFFCE2"/>
<path d="M1120 280L1160 320H1120V280Z" fill="#DFE2F5"/>
<path d="M1120 280L1160 240V280H1120Z" fill="#EBEEF8"/>
<path d="M1200 280L1160 320V280H1200Z" fill="#EBEEF8"/>
<path d="M1120 360L1080 320H1120V360Z" fill="#DFE2F5"/>
<path d="M1120 280L1080 320V280H1120Z" fill="#FCF1CD"/>
<path d="M1080 280L1120 240V280H1080Z" fill="#FCF1CD"/>
<path d="M1120 240L1080 280V240L1120 240Z" fill="#FFFCE2"/>
<path d="M1120 360L1160 320V360H1120Z" fill="#FCF1CD"/>
<path d="M1200 320L1160 360V320L1200 320Z" fill="#FCF1CD"/>
<path d="M1160 360L1200 320V360H1160Z" fill="#FFFCE2"/>
<path d="M1080 320L1120 280V320H1080Z" fill="#FFFCE2"/>
<path d="M1160 320L1120 360V320H1160Z" fill="#FFFCE2"/>
<path d="M1080 400L1040 360H1080V400Z" fill="#EBEEF8"/>
<path d="M1080 320L1120 360H1080V320Z" fill="#EBEEF8"/>
<path d="M1040 360L1080 320V360H1040Z" fill="#FFFCE2"/>
<path d="M1120 360L1080 400V360H1120Z" fill="#FFFCE2"/>
<path d="M1000 480L960 520V480H1000Z" fill="#FFFCE2"/>
<path d="M960 520L1000 480V520H960Z" fill="#FFFCE2"/>
<path d="M960 520L1000 560H960V520Z" fill="#FFFCE2"/>
<path d="M1040 520L1000 480H1040V520Z" fill="#FFFCE2"/>
<path d="M1040 520L1000 560V520H1040Z" fill="#FFFCE2"/>
<path d="M1000 560L1040 520V560H1000Z" fill="#DFE2F5"/>
<path d="M1000 560L960 520H1000V560Z" fill="#EBEEF8"/>
<path d="M1000 480L1040 520H1000V480Z" fill="#EBEEF8"/>
<path d="M1080 560L1040 600V560H1080Z" fill="#DFE2F5"/>
<path d="M1000 560L1040 600H1000V560Z" fill="#FCF1CD"/>
<path d="M1000 600L960 560H1000V600Z" fill="#FCF1CD"/>
<path d="M960 560L1000 600H960V560Z" fill="#FFFCE2"/>
<path d="M1080 560L1040 520H1080V560Z" fill="#FCF1CD"/>
<path d="M1040 480L1080 520H1040V480Z" fill="#FCF1CD"/>
<path d="M1080 520L1040 480H1080V520Z" fill="#FFFCE2"/>
<path d="M1040 600L1000 560H1040V600Z" fill="#FFFCE2"/>
<path d="M1040 520L1080 560H1040V520Z" fill="#FFFCE2"/>
<path d="M960 680L1000 720H960V680Z" fill="#FFFCE2"/>
<path d="M1000 720L960 680H1000V720Z" fill="#FFFCE2"/>
<path d="M1000 720L1040 680V720H1000Z" fill="#FFFCE2"/>
<path d="M1000 640L960 680V640H1000Z" fill="#FFFCE2"/>
<path d="M1000 640L1040 680H1000V640Z" fill="#FFFCE2"/>
<path d="M1040 680L1000 640H1040V680Z" fill="#DFE2F5"/>
<path d="M1040 680L1000 720V680H1040Z" fill="#EBEEF8"/>
<path d="M960 680L1000 640V680H960Z" fill="#EBEEF8"/>
<path d="M1040 600L1080 640H1040V600Z" fill="#DFE2F5"/>
<path d="M1040 680L1080 640V680H1040Z" fill="#FCF1CD"/>
<path d="M1080 680L1040 720V680H1080Z" fill="#FCF1CD"/>
<path d="M1040 720L1080 680V720H1040Z" fill="#FFFCE2"/>
<path d="M1040 600L1000 640V600H1040Z" fill="#FCF1CD"/>
<path d="M960 640L1000 600V640H960Z" fill="#FCF1CD"/>
<path d="M1000 600L960 640V600H1000Z" fill="#FFFCE2"/>
<path d="M1080 640L1040 680V640H1080Z" fill="#FFFCE2"/>
<path d="M1000 640L1040 600V640H1000Z" fill="#FFFCE2"/>
<path d="M1160 720L1200 680V720H1160Z" fill="#FFFCE2"/>
<path d="M1200 680L1160 720V680H1200Z" fill="#FFFCE2"/>
<path d="M1200 680L1160 640H1200V680Z" fill="#FFFCE2"/>
<path d="M1120 680L1160 720H1120V680Z" fill="#FFFCE2"/>
<path d="M1120 680L1160 640V680H1120Z" fill="#FFFCE2"/>
<path d="M1160 640L1120 680V640H1160Z" fill="#DFE2F5"/>
<path d="M1160 640L1200 680H1160V640Z" fill="#EBEEF8"/>
<path d="M1160 720L1120 680H1160V720Z" fill="#EBEEF8"/>
<path d="M1080 640L1120 600V640H1080Z" fill="#DFE2F5"/>
<path d="M1160 640L1120 600H1160V640Z" fill="#FCF1CD"/>
<path d="M1160 600L1200 640H1160V600Z" fill="#FCF1CD"/>
<path d="M1200 640L1160 600H1200V640Z" fill="#FFFCE2"/>
<path d="M1080 640L1120 680H1080V640Z" fill="#FCF1CD"/>
<path d="M1120 720L1080 680H1120V720Z" fill="#FCF1CD"/>
<path d="M1080 680L1120 720H1080V680Z" fill="#FFFCE2"/>
<path d="M1120 600L1160 640H1120V600Z" fill="#FFFCE2"/>
<path d="M1120 680L1080 640H1120V680Z" fill="#FFFCE2"/>
<path d="M1200 520L1160 480H1200V520Z" fill="#FFFCE2"/>
<path d="M1160 480L1200 520H1160V480Z" fill="#FFFCE2"/>
<path d="M1160 480L1120 520V480H1160Z" fill="#FFFCE2"/>
<path d="M1160 560L1200 520V560H1160Z" fill="#FFFCE2"/>
<path d="M1160 560L1120 520H1160V560Z" fill="#FFFCE2"/>
<path d="M1120 520L1160 560H1120V520Z" fill="#DFE2F5"/>
<path d="M1120 520L1160 480V520H1120Z" fill="#EBEEF8"/>
<path d="M1200 520L1160 560V520H1200Z" fill="#EBEEF8"/>
<path d="M1120 600L1080 560H1120V600Z" fill="#DFE2F5"/>
<path d="M1120 520L1080 560V520H1120Z" fill="#FCF1CD"/>
<path d="M1080 520L1120 480V520H1080Z" fill="#FCF1CD"/>
<path d="M1120 480L1080 520V480H1120Z" fill="#FFFCE2"/>
<path d="M1120 600L1160 560V600H1120Z" fill="#FCF1CD"/>
<path d="M1200 560L1160 600V560H1200Z" fill="#FCF1CD"/>
<path d="M1160 600L1200 560V600H1160Z" fill="#FFFCE2"/>
<path d="M1080 560L1120 520V560H1080Z" fill="#FFFCE2"/>
<path d="M1160 560L1120 600V560H1160Z" fill="#FFFCE2"/>
<path d="M1080 640L1040 600H1080V640Z" fill="#EBEEF8"/>
<path d="M1080 560L1120 600H1080V560Z" fill="#EBEEF8"/>
<path d="M1040 600L1080 560V600H1040Z" fill="#FFFCE2"/>
<path d="M1120 600L1080 640V600H1120Z" fill="#FFFCE2"/>
</svg>
